<?xml version="1.0" encoding="UTF-8"?>
<!-- Created with Inkscape (http://www.inkscape.org/) -->
<svg width="1059" height="650" version="1.1" viewBox="0 0 1059 650" xmlns="http://www.w3.org/2000/svg">
 <g transform="translate(3.3854 .84635)">
  <path d="m0 325v-325h1059v650h-1059zm424.5 195.5c21.714-4.5433 41.805-22.706 53.943-48.767 6.4624-13.875 11.508-40.05 12.526-64.984 0.01685-0.4125 112.98-0.75 251.03-0.75h251v-7h-503l-4e-3 -4.25c-2e-3 -2.3375-1.3341-15.5-2.9595-29.25-2.1813-18.452-4.0136-29.189-6.9958-40.993-6.2722-24.827-5.3879-35.163 4.1924-49.007 8.5402-12.341 18.733-29.644 31.429-53.355 34.784-64.962 42.602-78.657 57.739-101.15 21.156-31.43 40.864-52.421 66.354-70.672 8.312-5.9515 25.915-16.328 27.699-16.328 0.45953 0-1.5016 2.4712-4.3581 5.4915-11.472 12.13-14.055 23.557-12.208 54.009 1.7404 28.691 0.0415 38.202-8.945 50.075-4.1098 5.4298-4.5721 6.4885-3.2959 7.5476 10.212 8.4748 1.419 31.039-25.051 64.288-4.1988 5.2742-7.2883 9.6606-6.8656 9.7475 0.42278 0.0869 6.6187 0.21016 13.769 0.2739 11.335 0.10106 13.672 0.41673 18.25 2.4651 2.8875 1.2921 5.25 2.7359 5.25 3.2085 0 3.2656-17.333 27.385-29.029 40.394l-7.1922 8 5.7626 0.30444c5.49 0.29004 5.949 0.12446 9.7023-3.5 10.019-9.6748 25.924-29.58 33.86-42.375 5.5249-8.908 5.5565-8.5725-1.1039-11.715-2.6592-1.2548-6.8151-1.6909-17.299-1.8153-7.5896-0.0901-14.03-0.394-14.311-0.6754-0.2814-0.28141 2.6942-4.4967 6.6125-9.3674 16.931-21.047 27.918-40.495 28.753-50.896 0.59933-7.4664-0.0965-10.801-2.8227-13.527l-2.0166-2.0166 3.57-4.1707c1.9635-2.2939 4.6423-6.4375 5.9528-9.208 4.1433-8.7589 4.7809-15.618 4.042-43.482-0.708-26.699-0.43732-29.751 3.5936-40.525 2.4362-6.5114 10.597-15.879 18.028-20.694 2.6923-1.7446 4.7303-3.3367 4.5289-3.5381-0.80085-0.80085-24.897 7.7758-36.165 12.872-26.293 11.893-43.54 23.908-65.051 45.32-29.152 29.017-46.539 55.121-83.958 126.05-14.148 26.818-28.255 52.187-32.491 58.431l-1.5335 2.26-3.856-2.6168c-2.1354-1.4491-5.4671-2.6949-7.4665-2.7918-15.379-0.74556-21.505 2.5131-41.277 21.955-15.404 15.147-18.248 20.172-18.24 32.22 7e-3 10.581 2.4768 14.885 10.033 17.482l3.6456 1.2533-5.5601 4.1075c-7.6259 5.6336-19.056 12.487-27.119 16.26l-6.7283 3.1486-1.489-2.1259c-2.0566-2.9362-6.1093-2.7647-22.931 0.97048-38.951 8.6489-71.863 7.3777-83.959-3.2429-3.7032-3.2515-7.486-10.218-7.486-13.787 0-4.2656 6.6397-9.4764 16-12.556 18.858-6.2055 22.516-8.0366 34.879-17.459 19.138-14.586 24.241-21.641 22.687-31.364-0.89701-5.6096-2.8787-8.9122-8.1119-13.519-6.2224-5.4771-12.549-7.4671-22.324-7.0213-6.5117 0.29704-8.9367 0.94695-15.338 4.1106-11.201 5.5362-30.219 23.562-39.092 37.054-7.8312 11.907-13.928 34.05-14.094 51.188-0.0919 9.4927 0.18927 11.548 2.0519 15 2.9527 5.4719 6.8333 8.9289 13.342 11.885 8.6414 3.9252 17.297 4.9633 35.95 4.3115 18.157-0.63448 26.553-1.9102 50.55-7.6808 18.385-4.4212 24.914-6.6888 32.623-11.331 3.0266-1.8225 8.7197-4.348 12.651-5.6122 10.492-3.3736 30.352-13.281 41.225-20.565 11.195-7.4999 13.567-8.2812 18.31-6.0304 4.8387 2.2961 7.2089 7.6795 9.6966 22.023 1.1447 6.6 3.6865 19.562 5.6484 28.805s3.3616 17.011 3.1101 17.262c-0.2514 0.2514-17.064 0.33898-37.361 0.19462l-36.904-0.26248 16.451-8.5c16.588-8.5709 19.934-11.134 17.049-13.057-5.65-3.7657-28.43 6.6167-39.453 17.981l-3.953 4.0755h-358.59v7h350.05l-5.4147 6.3828c-7.619 8.9813-10.062 13.563-14.602 27.39-6.6314 20.195-7.3072 35.04-2.1282 46.748 2.6308 5.9473 12.743 16.428 21.411 22.19 17.364 11.544 36.658 15.666 55.183 11.79zm-11.137-10.559c-16.202-2.8151-39.133-16.063-48.059-27.765-7.1493-9.3733-9.7181-27.814-5.8753-42.176 2.5712-9.6099 8.9233-21.874 14.668-28.319l5.0635-5.6811h84.607l0.60297 2.25c1.0245 3.8229 0.69129 41.167-0.43987 49.299-3.1661 22.763-14.677 43.114-28.067 49.622-6.171 2.9991-14.957 4.0809-22.5 2.7703zm-130.73-202.41c-4.9204-1.7541-9.2802-5.9232-10.703-10.235-2.3848-7.2261 5.6773-16.751 16.386-19.359 12.211-2.974 24.665 4.1312 24.676 14.077 6e-3 5.3786-3.9334 10.295-11.13 13.891-6.8935 3.4447-12.74 3.9392-19.229 1.6261zm155.66-1.6424c-6.383-1.8457-8.0689-8.5966-4.1621-16.667 6.4251-13.272 23.867-13.903 23.867-0.86298 0 3.8143-0.66716 5.2728-4.6463 10.158-3.6922 4.5326-9.7952 8.9572-11.572 8.3893-0.15517-0.0496-1.7245-0.50724-3.4873-1.017zm86.705 130.11v-15h6.5c5.8333 0 6.5-0.20513 6.5-2 0-1.914-0.66667-2-15.5-2s-15.5 0.086-15.5 2c0 1.7949 0.66667 2 6.5 2h6.5v30h5zm23 7.5v-7.5h3.8892c5.1603 0 7.7084 2.3052 9.9486 9 1.553 4.6412 2.2558 5.5494 4.5013 5.8164 1.4635 0.17403 2.6609 0.0183 2.6609-0.34609 0-2.7874-3.6549-12.216-5.4193-13.981l-2.182-2.182 2.7648-1.5868c5.4938-3.153 4.8401-10.942-1.1742-13.989-2.6867-1.3613-5.4445-1.7064-11.989-1.5l-8.5 0.26799-0.27717 15.458c-0.15244 8.5019-0.0541 16.039 0.21862 16.75 0.27268 0.7106 1.6349 1.292 3.0272 1.292 2.4835 0 2.5314-0.14187 2.5314-7.5zm0-17v-5.5h5.345c3.9082 0 5.7899 0.4916 7 1.8287 4.1413 4.5761 0.34973 9.1713-7.5675 9.1713h-4.7775zm31.853 18.4 2.0363-4.9h14.221l2.4324 5.5c2.4023 5.432 3.6242 6.3137 6.3542 4.585 1.13-0.7155 0.0804-3.967-5.4974-17.03l-6.894-16.146-3.397 0.29562c-3.379 0.29406-3.4333 0.38005-10.253 16.255-3.7706 8.7775-6.8556 16.237-6.8556 16.577s1.3087 0.4257 2.9082 0.19093c2.3894-0.35069 3.2715-1.301 4.9446-5.3268zm4.6755-10.989c0.36471-1.1491 1.5888-4.182 2.7203-6.7398l2.0572-4.6506 1.2408 3.5838c0.68241 1.9711 1.9752 5.004 2.8728 6.7398l1.632 3.156h-5.5931c-5.2177 0-5.5486-0.14023-4.93-2.0893zm84.283 14.839c0.29931-1.5627-0.63586-1.75-8.7382-1.75h-9.0733v-12h8c7.3333 0 8-0.16667 8-2s-0.66667-2-8-2h-8v-10h8.5c7.8333 0 8.5-0.15686 8.5-2 0-1.8841-0.66667-2-11.5-2h-11.5v16.417c0 12.189 0.32191 16.551 1.25 16.938 0.6875 0.28646 5.9697 0.43646 11.738 0.33333 9.1062-0.16281 10.532-0.4181 10.823-1.9375zm30 0c0.29942-1.5627-0.6357-1.75-8.738-1.75h-9.0733v-30h-6v16.333c0 8.9833 0.31391 16.647 0.69757 17.031 0.38366 0.38366 5.6658 0.57116 11.738 0.41666 9.5883-0.24395 11.085-0.51108 11.376-2.0309zm87.664-8.7464 7.0246 4e-3 2.5 5.2464c2.0428 4.287 3.0196 5.3059 5.3413 5.5717 3.442 0.39399 3.7364 1.539-4.7107-18.325-6.3568-14.949-6.3904-15.001-9.8213-15.299l-3.4427-0.29944-6.6948 15.799c-3.6821 8.6897-6.6896 16.106-6.6832 16.48 6e-3 0.37425 1.024 0.84112 2.2615 1.0375 1.8668 0.29622 2.6716-0.54361 4.7254-4.9304l2.4754-5.2879 7.0246 4e-3zm-3.8748-7.7536c0.89505-2.0625 2.1071-5.2305 2.6934-7.0399l1.0661-3.2899 1.689 4.2899c0.92897 2.3595 2.1868 5.5274 2.7952 7.0399l1.1062 2.75h-10.977zm32.452 5c0.0505-13.244 0.11493-13.659 1.75-11.281 0.93365 1.3579 5.4615 7.3204 10.062 13.25 7.2036 9.2849 8.7649 10.781 11.25 10.781h2.8856v-33h-5l-8e-3 26.5-1.8334-3c-1.0078-1.65-5.5096-7.6125-10.003-13.25-7.0913-8.8962-8.5657-10.25-11.163-10.25h-2.9924v34h5l0.0525-13.75zm103.23 12.193c1.4175-0.54393 1.7133-2.0203 1.7133-8.5505v-7.893h-7c-5.5556 0-7 0.30952-7 1.5 0 1.0866 1.1169 1.5 4.0523 1.5h4.0523l-0.60452 10.5-4.5 0.32626c-10.097 0.73204-17-4.2855-17-12.356 0-6.0878 1.7428-9.2985 6.3131-11.63 4.0473-2.0648 12.35-2.7949 16.442-1.4458 1.652 0.54467 2.4262 0.29696 2.8957-0.92643 0.98729-2.5728-1.4387-3.436-9.7043-3.4527-13.61-0.0276-22.352 6.5986-22.314 16.914 0.0409 11.347 8.4943 17.328 23.405 16.56 4.1452-0.21353 8.3077-0.68409 9.25-1.0457zm-284.99-12.943c9.6876-21.569 9.0916-19.5 5.6166-19.5-3.2944 0-3.2045-0.15506-10.882 18.755l-3.7577 9.2548-5.3779-14.005c-5.346-13.922-5.3967-14.005-8.5413-14.005h-3.1634l6.3775 15.551c3.5076 8.5533 6.657 16.004 6.9985 16.556s2.0319 0.86703 3.7563 0.69853c2.9852-0.29171 3.4145-0.92816 8.974-13.306zm93.786 12.75c0.0457-0.4125 0.60825-6.3076 1.25-13.1l1.1668-12.35 5.3468 13.1c4.7988 11.758 5.5967 13.1 7.7855 13.1 1.912 0 2.8388-0.918 4.2906-4.25 1.0185-2.3375 3.4131-7.625 5.3213-11.75s3.6971-8.175 3.9754-9c0.27823-0.825 0.8072 2.55 1.1755 7.5 1.2455 16.741 1.4262 17.5 4.1662 17.5 2.9502 0 3.0291-1.2766 1.2549-20.299l-1.1938-12.799-3.56 0.29911c-3.5239 0.29608-3.6158 0.42322-9.0612 12.536-3.0256 6.7305-5.8037 12.243-6.1736 12.25-0.36984 7e-3 -1.1769-1.5156-1.7934-3.3836s-2.8829-7.3805-5.0365-12.25c-3.7702-8.5248-4.0458-8.865-7.4229-9.1619-2.9812-0.26209-3.5774 0.0379-3.9745 2-0.44266 2.1875-2.6228 26.902-2.6075 29.558 8e-3 1.3129 4.9464 1.798 5.0904 0.5zm128.11-4.25 2.0779-5h14.467l2.0779 5c1.845 4.4396 2.4168 5 5.1019 5 2.4678 0 2.9012-0.32188 2.3561-1.75-0.36736-0.9625-3.4716-8.275-6.8982-16.25-6.165-14.348-6.2658-14.503-9.6256-14.8l-3.3953-0.29992-6.6969 15.8c-3.6833 8.69-6.6871 16.137-6.6751 16.55 0.012 0.4125 1.1717 0.75 2.5772 0.75 2.1228 0 2.9072-0.84651 4.6333-5zm4.3014-10.75c0.38727-0.9625 1.6263-4.1216 2.7535-7.0202 1.1271-2.8986 2.1634-5.1486 2.3029-5 0.31833 0.33921 5.4535 12.997 5.4535 13.443 0 0.18017-2.5231 0.32759-5.607 0.32759-4.9416 0-5.5234-0.20769-4.9028-1.75zm91.51 14.289c0-1.1481-1.8744-1.523-8.75-1.75l-8.75-0.28893-0.2999-5.75-0.29991-5.75h8.0499c7.3832 0 8.0499-0.16563 8.0499-2 0-1.8333-0.66667-2-8-2h-8v-10h8.5c7.8333 0 8.5-0.15686 8.5-2 0-1.8788-0.66667-2-11-2h-11v33h11.5c9.4194 0 11.5-0.26434 11.5-1.4611zm12-5.6662v-7.1272l5.0589 0.48609c2.7824 0.26736 5.5329 0.96009 6.1122 1.5394s1.8335 3.4553 2.787 6.3911c1.5565 4.7922 2.0515 5.3695 4.8425 5.6478l3.1088 0.30998-2.0115-5.9564c-1.1063-3.276-2.8917-6.753-3.9674-7.7265-1.9272-1.7441-1.9092-1.809 1.2235-4.4244 2.3443-1.9571 3.1794-3.486 3.1794-5.8206 0-6.4817-6.0572-9.5416-17.833-9.0088l-7 0.3167-0.54954 32.5h2.5248c2.4635 0 2.5248-0.17287 2.5248-7.1272zm1-16.373v-5.5h5c3.6667 0 5.5333 0.53333 7 2 4.362 4.362 0.75461 9-7 9h-5zm-861.13-45.935c3.4249-1.7711 8.5923-7.4435 12.838-14.093 1.766-2.7657 7.7114-15.723 13.212-28.794 5.5006-13.071 10.947-25.094 12.103-26.718 3.9561-5.5558 9.6221-7.8464 28.672-11.591 17.715-3.4823 17.856-3.5313 29.826-10.309 24.685-13.979 28.324-16.925 32.439-26.265 4.0102-9.1023 3.4756-23.566-1.246-33.714-2.9588-6.3591-11.417-14.485-23.254-22.34-13.651-9.0587-18.897-11.177-37.751-15.242-22.066-4.757-31.76-4.7616-56.833-0.0271-16.809 3.174-20.006 4.138-37.381 11.271-19.078 7.8328-29.014 13.34-31.836 17.649-5.6564 8.6327-7e-3 17.337 7.368 11.352 0.84232-0.68356 4.7485-5.1161 8.6805-9.85 8.6271-10.387 9.6145-10.905 37.172-19.52 17.805-5.5661 21.381-6.3725 28.264-6.3725 10.118 0 41.896 7.0235 49.859 11.02 13.426 6.7376 29.488 22.07 32.609 31.128 3.6771 10.671 1.4046 25.149-5.5294 35.227-7.3655 10.705-20.752 18.815-32.118 19.457-11.101 0.62726-17.064-3.9403-17.75-13.596-0.36509-5.14 0.33002-7.7607 6.6872-25.212 3.902-10.711 7.0946-20.689 7.0946-22.173 0-3.7295-4.498-8.8515-7.7732-8.8515-1.4275 0-4.527 0.93506-6.8878 2.0779-8.218 3.9783-12.775 11.808-16.721 28.73-2.9128 12.492-4.5279 16.166-11.942 27.165-6.8099 10.102-8.2769 14.476-9.5682 28.527-1.4173 15.422-1.9782 17.272-10.24 33.764-7.3201 14.612-9.8678 22.287-9.8678 29.724 0 7.9137 3.7136 10.763 9.8748 7.5772zm413.69-1.4378c8.4664-4.0053 12.047-7.4637 23.577-22.773 9.9219-13.174 13.117-16.397 17.652-17.806 3.9683-1.2327 6.6426 1.6682 11.186 12.134 5.9581 13.724 7.2596 15.582 13.24 18.895l5.2751 2.9226 23.236 0.33041c13.151 0.18701 26.172-0.1264 30-0.72213 13.017-2.0255 28.058-11.868 28.553-18.684 0.17562-2.4201-0.37958-3.2079-3.2887-4.6666-2.9756-1.492-6.4218-1.757-23-1.7684-25.258-0.0174-32.531-1.9071-42.42-11.022-8.3755-7.7202-11.678-17.18-13.451-38.53-1.0506-12.653-1.8198-15.357-6.2609-22.008-6.0743-9.0973-22.154-13.821-33.838-9.9399-8.7423 2.9037-26.427 21.19-36.414 37.652-6.4426 10.62-17.035 34.916-18.989 43.556-2.345 10.367-2.1649 22.33 0.4123 27.382 4.2671 8.3642 13.502 10.265 24.529 5.0478zm2.7847-25.845c-9.7689-1.7945-11.208-26.827-2.5234-43.904 7.5853-14.917 19.521-21.867 29.07-16.929 3.9266 2.0305 8.6618 7.6969 10.117 12.107 1.6784 5.0857 0.73946 15.565-2.0558 22.944-4.9048 12.948-24.6 27.621-34.608 25.782zm227.78 27.276c9.0384-1.9158 20.333-6.7765 26.348-11.339 9.1462-6.9376 11.493-14.863 7.7932-26.319-1.4785-4.578-3.8399-7.5414-16.75-21.02-12.012-12.541-17.137-17.088-25.529-22.651-5.775-3.8283-11.714-8.2586-13.197-9.845-6.1805-6.61-7.7067-16.969-3.276-22.234 3.9639-4.7109 6.5663-4.7257 21.046-0.12029 17.179 5.4637 21.23 5.929 24.698 2.8367 4.2386-3.7801 4.4385-6.989 0.70035-11.246-7.0368-8.0145-23.889-8.7535-47.471-2.0817-13.796 3.9031-17.053 5.2403-22.259 9.1375-8.9963 6.7347-9.707 20.469-1.6087 31.086 1.4136 1.8533 10.062 9.8107 19.219 17.683 23.216 19.959 30.279 27.078 33.601 33.868 3.9953 8.1662 4.4243 13.557 1.3622 17.117-2.0103 2.3371-3.217 2.8058-7.3594 2.8589-7.4251 0.0951-13.802-2.3231-37.955-14.393-23.686-11.837-30.356-13.896-33.812-10.441-4.4372 4.4372 1.0473 16.809 10.097 22.776 4.347 2.8661 25.058 11.404 33.715 13.899 7.4386 2.1436 21.614 2.3424 30.638 0.42989zm80.716 0.38876c10.85-2.5018 27.762-13.857 45.067-30.257 9.2696-8.7856 15.08-21.547 15.08-33.123 0-8.0923-3.0136-23.892-7.0119-36.762-3.4198-11.007-6.9566-15.977-13.48-18.94-8.7695-3.9839-17.203-1.4461-34.394 10.35-6.388 4.3832-16.565 11.244-22.615 15.246-6.05 4.002-12.657 9.023-14.683 11.158-7.7605 8.1802-10.83 18.36-10.8 35.815 0.0409 23.731 8.4347 41.013 22.307 45.929 4.8996 1.7361 14.367 2.0058 20.53 0.5847zm5.9564-24.36c-24.098-6.4098-29.741-47.515-9.0195-65.708 12.233-10.741 26.281-10.263 34.502 1.1744 3.6762 5.1142 7.4453 15.375 8.7598 23.847 3.7692 24.293-14.457 45.95-34.242 40.687z" fill="#fefefe"/>
  <path d="m380.5 357.55c1.65-0.75156 3.1875-1.1831 3.4167-0.95891 0.66205 0.6476-0.19961 1.0828-3.4167 1.7258l-3 0.59958zm4.5-1.6104c0-0.58246 0.45-0.7809 1-0.44098s1 0.81648 1 1.059-0.45 0.44098-1 0.44098-1-0.47656-1-1.059zm10-5.3706c0-0.275 0.9-0.98167 2-1.5704s2-0.84537 2-0.57037-0.9 0.98167-2 1.5704-2 0.84537-2 0.57037zm5-3c0-0.275 0.9-0.98167 2-1.5704s2-0.84537 2-0.57037-0.9 0.98167-2 1.5704-2 0.84537-2 0.57037zm5.5-3.2554c2.1843-2.1371 13.66-10.383 13.029-9.3615-0.3708 0.59996-3.004 2.7976-5.8515 4.8836-5.5471 4.0637-8.878 6.1418-7.1773 4.4778zm43.5-40.693c0-0.20765 0.7875-0.99515 1.75-1.75 1.5861-1.2439 1.6214-1.2085 0.37756 0.37756-1.3064 1.6658-2.1276 2.1955-2.1276 1.3724zm5.5-6.6224c0.99549-1.1 1.969-2 2.1635-2s-0.20857 0.9-0.89553 2-1.6605 2-2.1635 2c-0.50295 0-0.1-0.9 0.89553-2zm25.2-16.25c10.163-15.886 19.445-29.058 14.269-20.25-3.7771 6.4281-13.974 21.5-14.545 21.5-0.28815 0-0.16404-0.5625 0.27579-1.25zm129.42-2.5c0.74894-0.9625 4.0058-4.675 7.2376-8.25 3.2317-3.575 8.8233-10.438 12.426-15.25 3.6024-4.8125 6.7293-8.75 6.9487-8.75 0.95091 0-8.4159 12.343-16.695 22-4.951 5.775-9.0092 10.838-9.018 11.25-9e-3 0.4125-0.5212 0.75-1.1385 0.75-0.73879 0-0.657-0.59817 0.23925-1.75zm19.578-8.8986c8.4215-9.3682 18.473-21.98 26.584-33.356 1.2869-1.805 1.5054-1.9116 0.79011-0.38568-2.8754 6.134-24.34 32.618-33.141 40.891-2.3404 2.2 0.25457-1.0169 5.7667-7.1486zm-152.18-3.7282c0.94531-1.4427 1.9078-2.6231 2.1389-2.6231 0.72338 0-1.6049 3.854-2.7593 4.5674-0.6041 0.37335-0.32492-0.50159 0.62038-1.9443zm3.4887-5.6231c0.5887-1.1 1.2954-2 1.5704-2s0.0183 0.9-0.57037 2c-0.5887 1.1-1.2954 2-1.5704 2s-0.0183-0.9 0.57037-2zm4.4684-7.5c1.5386-2.75 3.2617-5.45 3.8291-6 0.56739-0.55-0.22726 1.25-1.7659 4-1.5386 2.75-3.2617 5.45-3.8291 6-0.56739 0.55 0.22726-1.25 1.7659-4zm12.532 1.5c0.5887-1.1 1.2954-2 1.5704-2s0.0183 0.9-0.57037 2c-0.5887 1.1-1.2954 2-1.5704 2s-0.0183-0.9 0.57037-2zm5-8.5c1.815-3.3 3.7556-6.45 4.3125-7 0.55681-0.55-0.46023 1.7-2.2601 5-1.7999 3.3-3.7405 6.45-4.3125 7s0.44505-1.7 2.2601-5zm-11-4.5c1.1224-2.2 2.2656-4 2.5406-4s-0.41829 1.8-1.5406 4-2.2656 4-2.5406 4 0.41829-1.8 1.5406-4zm149.07-2.5c1.2353-2.2 2.6754-4.45 3.2003-5 1.4975-1.5693-1.9272 4.7658-3.7841 7-0.91422 1.1-0.6515 0.2 0.58383-2zm-131.15-5.572c1.0027-2.2396 2.379-4.6021 3.0585-5.25 0.67951-0.64791 0.0546 1.1845-1.3888 4.072-3.0968 6.1953-4.2943 7.0402-1.6697 1.178zm-11.921-2.928c1.6658-3.3 3.2538-6 3.5288-6s-0.86296 2.7-2.5288 6-3.2538 6-3.5288 6 0.86296-2.7 2.5288-6zm161 1c0.5887-1.1 1.2954-2 1.5704-2s0.0183 0.9-0.57037 2c-0.5887 1.1-1.2954 2-1.5704 2s-0.0183-0.9 0.57037-2zm-18-2.5c-1.375-0.78602-2.0235-1.4451-1.4411-1.4646 0.58238-0.0195 1.9324 0.62525 3 1.4328 2.469 1.8674 1.6804 1.8835-1.5589 0.0318zm20.395-1.3301c0.4175-0.67552-0.63879-1.9578-2.5955-3.1508-1.8147-1.1064-2.9189-2.0134-2.4538-2.0154 1.3017-6e-3 6.6543 3.3347 6.6543 4.1528 0 0.39896-0.51953 1.0465-1.1545 1.4389-0.70973 0.43864-0.88328 0.27468-0.4505-0.42558zm-144.39-7.1699c1.6658-3.3 3.2538-6 3.5288-6s-0.86296 2.7-2.5288 6-3.2538 6-3.5288 6 0.86296-2.7 2.5288-6zm90.73 5.3968c-0.33176-0.33175 2.6635-4.7192 6.6562-9.75 3.9926-5.0307 9.8903-12.972 13.106-17.647 5.7402-8.3453 8.6478-12.084 6.9994-9-1.899 3.553-12.415 18.217-19.145 26.696l-7.2987 9.1962 9.4517 0.74711-4.5833 0.18025c-2.5208 0.0991-4.8548-0.0912-5.1865-0.42295zm23.082-0.0799c0.72187-0.28887 1.5844-0.25335 1.9167 0.0789 0.33229 0.33229-0.25834 0.56864-1.3125 0.52522-1.165-0.048-1.4019-0.28494-0.60417-0.60416zm-123.81-12.317c2.2123-4.4 4.2473-8 4.5223-8s-1.31 3.6-3.5223 8-4.2473 8-4.5223 8 1.31-3.6 3.5223-8zm117 6.9904c0-0.55526 3.6712-5.6178 8.1582-11.25 4.487-5.6322 10.178-13.278 12.647-16.99 2.4687-3.7125 4.6633-6.75 4.8769-6.75 1.2148 0-9.591 15.357-18.815 26.74-3.2268 3.9821-5.867 7.4366-5.867 7.6767 0 0.24011 0.7875 0.64235 1.75 0.89387 1.3169 0.34415 1.1932 0.48604-0.5 0.57333-1.2375 0.0638-2.25-0.3383-2.25-0.89356zm12.25 0.27452c2.6125-0.206 6.8875-0.206 9.5 0s0.475 0.37454-4.75 0.37454-7.3625-0.16854-4.75-0.37454zm-110.25-17.265c2.2123-4.4 4.2473-8 4.5223-8s-1.31 3.6-3.5223 8-4.2473 8-4.5223 8 1.31-3.6 3.5223-8zm-9-9c2.2123-4.4 4.2473-8 4.5223-8s-1.31 3.6-3.5223 8-4.2473 8-4.5223 8 1.31-3.6 3.5223-8zm18-8c1.6658-3.3 3.2538-6 3.5288-6s-0.86296 2.7-2.5288 6-3.2538 6-3.5288 6 0.86296-2.7 2.5288-6zm-10.5-6c1.3935-2.75 2.7587-5 3.0337-5s-0.64016 2.25-2.0337 5-2.7587 5-3.0337 5 0.64016-2.25 2.0337-5zm112.58 3c1.4578-3.061 1.9197-3.6283 1.9197-2.3578 0 0.53655-0.69982 1.849-1.5552 2.9167-1.4664 1.8303-1.4872 1.7984-0.36454-0.55887zm13.92-1c0.5887-1.1 1.2954-2 1.5704-2s0.0183 0.9-0.57037 2c-0.5887 1.1-1.2954 2-1.5704 2s-0.0183-0.9 0.57037-2zm-110-7c1.1224-2.2 2.2656-4 2.5406-4s-0.41829 1.8-1.5406 4-2.2656 4-2.5406 4 0.41829-1.8 1.5406-4zm99.031 1.5c0-0.55 0.43621-1.675 0.96937-2.5s0.96937-1.05 0.96937-0.5-0.43621 1.675-0.96937 2.5-0.96937 1.05-0.96937 0.5zm15.05-1.5c1.4578-3.061 1.9197-3.6283 1.9197-2.3578 0 0.53655-0.69982 1.849-1.5552 2.9167-1.4664 1.8303-1.4872 1.7984-0.36454-0.55887zm-125.08-5c1.1224-2.2 2.2656-4 2.5406-4s-0.41829 1.8-1.5406 4-2.2656 4-2.5406 4 0.41829-1.8 1.5406-4zm16-4c1.1224-2.2 2.2656-4 2.5406-4s-0.41829 1.8-1.5406 4-2.2656 4-2.5406 4 0.41829-1.8 1.5406-4zm112.03 2.5c0-0.55 0.43621-1.675 0.96937-2.5s0.96937-1.05 0.96937-0.5-0.43621 1.675-0.96937 2.5-0.96937 1.05-0.96937 0.5zm-123.53-6.5c0.85325-1.65 1.7764-3 2.0514-3s-0.19811 1.35-1.0514 3-1.7764 3-2.0514 3 0.19811-1.35 1.0514-3zm16-4c0.85325-1.65 1.7764-3 2.0514-3s-0.19811 1.35-1.0514 3-1.7764 3-2.0514 3 0.19811-1.35 1.0514-3zm-11.006-4.5c13.67-24.209 34.378-52.316 51.474-69.865 16.284-16.716 29.573-27.359 46.282-37.066 8.062-4.6836 5.2384-2.1772-3.7022 3.2863-31.598 19.309-61.226 51.22-87.07 93.78-7.9148 13.034-12.156 19.025-6.9831 9.8638zm103.05 1.6319c-0.32611-1.0275-1.4659-2.6582-2.5329-3.6238-1.9062-1.7251-1.8762-1.8362 1.7255-6.3819 5.1414-6.489 5.8263-7.1099 3.6576-3.3164-1.0407 1.8204-2.8901 4.2477-4.1098 5.394l-2.2177 2.0842 2.4677 2.9327c1.3572 1.613 2.4677 3.3482 2.4677 3.856 0 1.5633-0.83352 1.0232-1.4581-0.94485zm-89.258-1.8819c2.5224-4.708 10.98-18.25 11.398-18.25 0.30134 0-0.10341 1.0125-0.89943 2.25-0.79603 1.2375-3.3741 5.5125-5.729 9.5s-4.4819 7.25-4.7267 7.25-0.26423-0.3375-0.0432-0.75zm103.89-6.5644c-1.1959-1.273-2.1743-2.5481-2.1743-2.8336s1.8942-2.5065 4.2094-4.9356c4.2864-4.4971 3.4748-2.7716-1.1594 2.4652-1.7606 1.9896-2.1595 3.0226-1.2886 3.3372 1.1421 0.41245 3.8062 4.2812 2.948 4.2812-0.19848 0-1.3393-1.0415-2.5352-2.3144zm-91.634-13.686c4.3994-7.9179 20.601-30.707 28.793-40.5 7.6859-9.1879 23.317-24.94 31.667-31.913 6.9823-5.8305 21.577-16.343 25-18.007 2.2432-1.0905-0.52388 1.0109-11.003 8.3559-23.578 16.526-44.729 39.037-64.894 69.063-7.6239 11.353-11.808 17.04-9.563 13zm98.54-1c1.4578-3.061 1.9197-3.6283 1.9197-2.3578 0 0.53655-0.69982 1.849-1.5552 2.9167-1.4664 1.8303-1.4872 1.7984-0.36454-0.55887zm2.9987-7.5833c0.048-1.165 0.28494-1.4019 0.60416-0.60417 0.28887 0.72187 0.25335 1.5844-0.0789 1.9167-0.33229 0.33229-0.56864-0.25834-0.52522-1.3125zm1-4c0.048-1.165 0.28494-1.4019 0.60416-0.60417 0.28887 0.72187 0.25335 1.5844-0.0789 1.9167-0.33229 0.33229-0.56864-0.25834-0.52522-1.3125zm-15.921-1.4167c0-1.375 0.22698-1.9375 0.50439-1.25s0.27741 1.8125 0 2.5-0.50439 0.125-0.50439-1.25zm17-5c0-1.375 0.22698-1.9375 0.50439-1.25s0.27741 1.8125 0 2.5-0.50439 0.125-0.50439-1.25zm-16.926-14c0-1.925 0.2058-2.7125 0.45733-1.75 0.25152 0.9625 0.25152 2.5375 0 3.5-0.25153 0.9625-0.45733 0.175-0.45733-1.75zm16.963-7.5c0.0204-1.65 0.2445-2.2039 0.49804-1.231 0.25354 0.97297 0.23687 2.323-0.0371 3-0.27388 0.67703-0.48132-0.11903-0.46094-1.769zm-18-7c0.0204-1.65 0.2445-2.2039 0.49804-1.231 0.25354 0.97297 0.23687 2.323-0.0371 3-0.27388 0.67703-0.48132-0.11903-0.46094-1.769zm17.154-13.5c0-4.675 0.17226-6.5875 0.3828-4.25 0.21053 2.3375 0.21053 6.1625 0 8.5-0.21054 2.3375-0.3828 0.425-0.3828-4.25zm-17.192-2c0-1.375 0.22698-1.9375 0.50439-1.25s0.27741 1.8125 0 2.5-0.50439 0.125-0.50439-1.25zm0.92106-7.5833c0.048-1.1649 0.28494-1.4019 0.60416-0.60417 0.28887 0.72188 0.25335 1.5844-0.0789 1.9167-0.33229 0.33229-0.56864-0.25833-0.52522-1.3125zm1-4c0.048-1.1649 0.28494-1.4019 0.60416-0.60417 0.28887 0.72188 0.25335 1.5844-0.0789 1.9167-0.33229 0.33229-0.56864-0.25833-0.52522-1.3125zm16-1c0.048-1.1649 0.28494-1.4019 0.60416-0.60417 0.28887 0.72188 0.25335 1.5844-0.0789 1.9167-0.33229 0.33229-0.56864-0.25833-0.52522-1.3125zm-15.056-1.7767c-0.0577-2.186 6.4997-12.735 9.7992-15.764l3.6781-3.3765-3.2514 3.5491c-1.7883 1.952-4.8156 6.452-6.7273 10-1.9117 3.548-3.4861 6.0639-3.4986 5.5909zm17.063-5.64c-0.0302-0.825 0.38124-2.175 0.9144-3 1.1813-1.828 1.1813-0.24908 0 2.5-0.56668 1.3187-0.87815 1.4891-0.9144 0.5zm1.9144-5.941c0-0.51754 0.44485-1.2159 0.98855-1.5519 0.56686-0.35034 0.7345 0.05106 0.39301 0.94098-0.66479 1.7324-1.3816 2.0494-1.3816 0.61096zm-30-0.55463c0-0.66794 14.122-7.716 14.567-7.2704 0.19928 0.19927-2.9968 2.0245-7.1025 4.056-4.1056 2.0315-7.4648 3.478-7.4648 3.2144zm10-1.8826c0-0.25116 2.3625-1.8339 5.25-3.5171s4.575-3.0864 3.75-3.118c-1.6288-0.06244 2.7748-2.9158 4.5-2.9158 0.55 0-0.0806 0.59885-1.4014 1.3308-1.3208 0.73192-1.903 1.5035-1.2938 1.7146 0.6092 0.21109-1.5727 1.8639-4.8486 3.673-3.2759 1.8091-5.9562 3.0837-5.9562 2.8325zm22.565-1.7243c1.482-2.5399 5.6432-7.0847 10.151-11.087 2.3308-2.0694 3.6348-3.8724 2.9698-4.1065-0.65201-0.22956-0.39797-0.29909 0.56453-0.15452s1.75-0.09253 1.75-0.52689c0-0.77518 4.1314-2.2249 4.7053-1.6511 0.16093 0.16094-1.9102 1.72-4.6025 3.4645-2.6923 1.7446-7.5001 5.9825-10.684 9.4177s-5.3681 5.5247-4.8538 4.6433zm-6.7524-6.5806c0.72187-0.28887 1.5844-0.25334 1.9167 0.07895 0.33229 0.33229-0.25834 0.56864-1.3125 0.52522-1.165-0.04798-1.4019-0.28494-0.60417-0.60417zm0.1875-2.3169c0.825-0.53316 1.95-0.96937 2.5-0.96937s0.325 0.43622-0.5 0.96937-1.95 0.96937-2.5 0.96937-0.325-0.43622 0.5-0.96937zm5-1.8313c0.825-0.50973 2.625-1.2277 4-1.5955 1.7375-0.46475 2.0425-0.38604 1 0.25807-0.825 0.50973-2.625 1.2277-4 1.5955-1.7375 0.46475-2.0425 0.38604-1-0.25807z" fill="#e8c47f"/>
  <path d="m415.81 510.32c0.72187-0.28887 1.5844-0.25335 1.9167 0.0789 0.33229 0.33229-0.25834 0.56864-1.3125 0.52522-1.165-0.048-1.4019-0.28494-0.60417-0.60416zm9 0c0.72187-0.28887 1.5844-0.25335 1.9167 0.0789 0.33229 0.33229-0.25834 0.56864-1.3125 0.52522-1.165-0.048-1.4019-0.28494-0.60417-0.60416zm37.188-13.694c0-0.20765 0.7875-0.99515 1.75-1.75 1.5861-1.2439 1.6214-1.2085 0.37756 0.37756-1.3064 1.6658-2.1276 2.1955-2.1276 1.3724zm-117.73-27.622c0-2.475 0.19502-3.4875 0.43337-2.25 0.23836 1.2375 0.23836 3.2625 0 4.5-0.23835 1.2375-0.43337 0.225-0.43337-2.25zm12.807-8.5833c0.048-1.165 0.28494-1.4019 0.60416-0.60417 0.28887 0.72187 0.25335 1.5844-0.0789 1.9167-0.33229 0.33229-0.56864-0.25834-0.52522-1.3125zm0-11c0.048-1.165 0.28494-1.4019 0.60416-0.60417 0.28887 0.72187 0.25335 1.5844-0.0789 1.9167-0.33229 0.33229-0.56864-0.25834-0.52522-1.3125zm164.19 0.89034c0.97297-0.25354 2.323-0.23687 3 0.0371 0.67703 0.27393-0.11903 0.48137-1.769 0.46099-1.65-0.0204-2.2039-0.2445-1.231-0.49804zm21.166-0.61523c-0.2761-0.71952-0.35875-6.682-0.18365-13.25l0.31836-11.942 0.21504 12.684 0.21503 12.684 5.5 0.83318-2.7814 0.14983c-1.5298 0.0824-3.0073-0.43887-3.2834-1.1584zm21.177 0.48916c-0.27841-0.45048 0.82003-0.6244 2.441-0.3865 1.621 0.23791 2.9472 0.60648 2.9472 0.81906 0 0.76198-4.8927 0.3692-5.3882-0.43256zm36.946-0.0877c-0.30822-0.49871 0.34022-0.67122 1.441-0.38337 2.335 0.61061 2.6302 1.2901 0.5604 1.2901-0.79254 0-1.6932-0.40803-2.0014-0.90674zm56.625 0.17938c7.237-0.22961 10.816-0.73147 11.096-1.5558 0.22728-0.66927 0.36457-0.54185 0.30509 0.28315-0.0888 1.2321-2.0706 1.51-11.096 1.5558l-10.988 0.0558 10.683-0.33894zm18.272-0.52985c-0.27924-0.72769-0.37102-8.505-0.20396-17.283l0.30376-15.96 0.2227 16.75 0.22271 16.75h10.927c7.8509 0 11.045-0.35187 11.346-1.25 0.24166-0.7199 0.3737-0.61388 0.31135 0.25-0.15028 2.0821-22.342 2.7948-23.13 0.74279zm124.81 0.56422c0.97297-0.25354 2.323-0.23687 3 0.0371 0.67703 0.27393-0.11903 0.48137-1.769 0.46099-1.65-0.0204-2.2039-0.2445-1.231-0.49804zm11 0c0.97297-0.25354 2.323-0.23687 3 0.0371 0.67703 0.27393-0.11903 0.48137-1.769 0.46099-1.65-0.0204-2.2039-0.2445-1.231-0.49804zm93.481-0.0127c1.2375-0.23836 3.2625-0.23836 4.5 0 1.2375 0.23835 0.225 0.43337-2.25 0.43337s-3.4875-0.19502-2.25-0.43337zm-259.34-16.794c-1e-3 -9.35 0.14916-13.31 0.33401-8.7991 0.18486 4.5105 0.1858 12.16 2e-3 17-0.1837 4.8395-0.33495 1.1491-0.3361-8.2009zm273.94 7.5c0-4.675 0.17226-6.5875 0.3828-4.25 0.21053 2.3375 0.21053 6.1625 0 8.5-0.21054 2.3375-0.3828 0.425-0.3828-4.25zm-197.15 3.5c0.0204-1.65 0.2445-2.2039 0.49804-1.231s0.23687 2.323-0.0371 3c-0.27393 0.67703-0.48137-0.11903-0.46099-1.769zm167.21 0.25-1.905-2.25 2.25 1.905c1.2375 1.0477 2.25 2.0602 2.25 2.25 0 0.80025-0.80479 0.20945-2.595-1.905zm24.577-3.0483 0.48173-5.2017 0.33241 4.3859c0.18282 2.4122-0.034 4.753-0.48173 5.2017-0.44778 0.4487-0.59736-1.5249-0.33241-4.3859zm-263.67-1.2017c6e-3 -3.3 0.1923-4.5294 0.41486-2.7321s0.21797 4.4974-0.0102 6c-0.22818 1.5026-0.41027 0.0321-0.40466-3.2679zm76.769 3.9167c0.048-1.165 0.28494-1.4019 0.60416-0.60417 0.28887 0.72187 0.25335 1.5844-0.0789 1.9167-0.33229 0.33229-0.56864-0.25834-0.52522-1.3125zm31.153-1.4167c0-1.925 0.2058-2.7125 0.45733-1.75 0.25152 0.9625 0.25152 2.5375 0 3.5-0.25153 0.9625-0.45733 0.175-0.45733-1.75zm-292.86-10.5c2e-3 -6.05 0.16696-8.3961 0.36601-5.2135s0.1972 8.1326-4e-3 11c-0.20131 2.8674-0.36417 0.26349-0.36191-5.7865zm297.86 7.5c0-1.925 0.2058-2.7125 0.45733-1.75 0.25152 0.9625 0.25152 2.5375 0 3.5-0.25153 0.9625-0.45733 0.175-0.45733-1.75zm72.926 1c0-1.375 0.22698-1.9375 0.50439-1.25s0.27741 1.8125 0 2.5-0.50439 0.125-0.50439-1.25zm-253.16-4.7572c0-0.41646 2.1375-0.6195 4.75-0.4512 7.599 0.48954 8.2546 0.96704 1.5 1.0924-3.4375 0.0638-6.25-0.22474-6.25-0.64121zm200.77 0.0325c1.7974-0.22256 4.4974-0.21797 6 0.0102 1.5026 0.22818 0.0321 0.41027-3.2679 0.40466-3.3-6e-3 -4.5294-0.1923-2.7321-0.41486zm77.982 1e-3c1.7875-0.22182 4.7125-0.22182 6.5 0 1.7875 0.22183 0.325 0.40333-3.25 0.40333s-5.0375-0.1815-3.25-0.40333zm29.482-2.2763c0-1.925 0.2058-2.7125 0.45733-1.75 0.25152 0.9625 0.25152 2.5375 0 3.5-0.25153 0.9625-0.45733 0.175-0.45733-1.75zm-168.04-0.5c0.0204-1.65 0.2445-2.2039 0.49804-1.231s0.23687 2.323-0.0371 3c-0.27393 0.67703-0.48137-0.11903-0.46099-1.769zm5.0774-1.5c0-2.475 0.19502-3.4875 0.43337-2.25 0.23836 1.2375 0.23836 3.2625 0 4.5-0.23835 1.2375-0.43337 0.225-0.43337-2.25zm156.89 2c0-1.375 0.22698-1.9375 0.50439-1.25s0.27741 1.8125 0 2.5-0.50439 0.125-0.50439-1.25zm-219-1c0-1.375 0.22698-1.9375 0.50439-1.25s0.27741 1.8125 0 2.5-0.50439 0.125-0.50439-1.25zm-116.41-0.70573c1.2375-0.23836 3.2625-0.23836 4.5 0 1.2375 0.23835 0.225 0.43337-2.25 0.43337s-3.4875-0.19502-2.25-0.43337zm207.44-2.7943c0.0204-1.65 0.2445-2.2039 0.49804-1.231s0.23687 2.323-0.0371 3c-0.27393 0.67703-0.48137-0.11903-0.46099-1.769zm-106.9-3.5c0-3.025 0.18747-4.2625 0.41659-2.75 0.22913 1.5125 0.22913 3.9875 0 5.5-0.22912 1.5125-0.41659 0.275-0.41659-2.75zm111.78 2.4167c0.048-1.165 0.28494-1.4019 0.60416-0.60417 0.28887 0.72187 0.25335 1.5844-0.0789 1.9167-0.33229 0.33229-0.56864-0.25834-0.52522-1.3125zm-273-2c0.048-1.165 0.28494-1.4019 0.60416-0.60417 0.28887 0.72187 0.25335 1.5844-0.0789 1.9167-0.33229 0.33229-0.56864-0.25834-0.52522-1.3125zm235.12-4.9167c0.0204-1.65 0.2445-2.2039 0.49804-1.231s0.23687 2.323-0.0371 3c-0.27393 0.67703-0.48137-0.11903-0.46099-1.769zm-173.43-1.2073c1.2439-0.23919 3.0439-0.23011 4 0.0202 0.95609 0.25029-0.0617 0.446-2.2617 0.4349-2.2-0.0111-2.9822-0.21589-1.7383-0.45508zm116.4-1.2927c0-1.375 0.22698-1.9375 0.50439-1.25s0.27741 1.8125 0 2.5-0.50439 0.125-0.50439-1.25zm237.65 1.3169c0.72187-0.28887 1.5844-0.25335 1.9167 0.0789 0.33229 0.33229-0.25834 0.56864-1.3125 0.52522-1.165-0.048-1.4019-0.28494-0.60417-0.60416zm-537.81-10.817c1.8658-1.925 3.6173-3.5 3.8923-3.5s-1.0266 1.575-2.8923 3.5-3.6173 3.5-3.8923 3.5 1.0266-1.575 2.8923-3.5zm123.23-0.5c0-1.925 0.2058-2.7125 0.45733-1.75 0.25152 0.9625 0.25152 2.5375 0 3.5-0.25153 0.9625-0.45733 0.175-0.45733-1.75zm-114.23-0.5c1.2918-1.375 2.5736-2.5 2.8486-2.5s-0.55688 1.125-1.8486 2.5-2.5736 2.5-2.8486 2.5 0.55688-1.125 1.8486-2.5zm88.079-1.0833c0.048-1.165 0.28494-1.4019 0.60416-0.60417 0.28887 0.72187 0.25335 1.5844-0.0789 1.9167-0.33229 0.33229-0.56864-0.25834-0.52522-1.3125zm-80.579-13.417c2.1482-2.2 4.1309-4 4.4059-4s-1.2577 1.8-3.4059 4-4.1309 4-4.4059 4 1.2577-1.8 3.4059-4zm105.58-5.5833c0.048-1.165 0.28494-1.4019 0.60416-0.60417 0.28887 0.72187 0.25335 1.5844-0.0789 1.9167-0.33229 0.33229-0.56864-0.25834-0.52522-1.3125zm-220.27-7.0998c0.72187-0.28887 1.5844-0.25335 1.9167 0.0789 0.33229 0.33229-0.25834 0.56864-1.3125 0.52522-1.165-0.048-1.4019-0.28494-0.60417-0.60416zm219.27-1.9002c0.048-1.165 0.28494-1.4019 0.60416-0.60417 0.28887 0.72187 0.25335 1.5844-0.0789 1.9167-0.33229 0.33229-0.56864-0.25834-0.52522-1.3125zm6.326-1.6667-1.905-2.25 2.25 1.905c1.2375 1.0477 2.25 2.0602 2.25 2.25 0 0.80025-0.80479 0.20945-2.595-1.905zm-77.136-1.443c0.97297-0.25354 2.323-0.23687 3 0.0371 0.67703 0.27393-0.11903 0.48137-1.769 0.46099-1.65-0.0204-2.2039-0.2445-1.231-0.49804zm217.48-3.9693c0.6875-0.27741 1.8125-0.27741 2.5 0s0.125 0.50439-1.25 0.50439-1.9375-0.22698-1.25-0.50439zm-147.67-1.921c0.048-1.165 0.28494-1.4019 0.60416-0.60417 0.28887 0.72187 0.25335 1.5844-0.0789 1.9167-0.33229 0.33229-0.56864-0.25834-0.52522-1.3125zm191.33-7.6667-1.905-2.25 2.25 1.905c2.1144 1.7902 2.7052 2.595 1.905 2.595-0.18976 0-1.2023-1.0125-2.25-2.25zm-382.59-0.43311c0.72187-0.28887 1.5844-0.25335 1.9167 0.0789 0.33229 0.33229-0.25834 0.56864-1.3125 0.52522-1.165-0.048-1.4019-0.28494-0.60417-0.60416zm24 0c0.72187-0.28887 1.5844-0.25335 1.9167 0.0789 0.33229 0.33229-0.25834 0.56864-1.3125 0.52522-1.165-0.048-1.4019-0.28494-0.60417-0.60416zm10-1c0.72187-0.28887 1.5844-0.25335 1.9167 0.0789 0.33229 0.33229-0.25834 0.56864-1.3125 0.52522-1.165-0.048-1.4019-0.28494-0.60417-0.60416zm530.19 0.30555c0-0.20765 0.7875-0.99515 1.75-1.75 1.5861-1.2439 1.6214-1.2085 0.37756 0.37756-1.3064 1.6658-2.1276 2.1955-2.1276 1.3724zm-483.76-2.8621c0.69483-1.4822 1.4281-2.2154 1.6294-1.6294s-0.36716 1.7988-1.2633 2.6949c-1.5059 1.5059-1.5336 1.4251-0.36607-1.0655zm405.84-2.3436c0.048-1.165 0.28494-1.4019 0.60416-0.60417 0.28887 0.72187 0.25335 1.5844-0.0789 1.9167-0.33229 0.33229-0.56864-0.25834-0.52522-1.3125zm59.734 0.90022c0.72187-0.28887 1.5844-0.25335 1.9167 0.0789 0.33229 0.33229-0.25834 0.56864-1.3125 0.52522-1.165-0.048-1.4019-0.28494-0.60417-0.60416zm25.188-1.6944c0-0.20765 0.7875-0.99515 1.75-1.75 1.5861-1.2439 1.6214-1.2085 0.37756 0.37756-1.3064 1.6658-2.1276 2.1955-2.1276 1.3724zm-197.92-3.2058c0.048-1.165 0.28494-1.4019 0.60416-0.60417 0.28887 0.72187 0.25335 1.5844-0.0789 1.9167-0.33229 0.33229-0.56864-0.25834-0.52522-1.3125zm152.79-2.1667c-1.2439-1.5861-1.2085-1.6214 0.37756-0.37756 1.6658 1.3064 2.1955 2.1276 1.3724 2.1276-0.20765 0-0.99515-0.7875-1.75-1.75zm35.628-0.25c0.99549-1.1 2.035-2 2.31-2s-0.31449 0.9-1.31 2-2.035 2-2.31 2 0.31449-0.9 1.31-2zm-620.42-3.5833c0.048-1.165 0.28494-1.4019 0.60416-0.60417 0.28887 0.72187 0.25335 1.5844-0.0789 1.9167-0.3323 0.33229-0.56864-0.25834-0.52522-1.3125zm304.92-2.7296c0-0.1721 1.4625-1.6346 3.25-3.25l3.25-2.9371-2.9371 3.25c-2.7378 3.0295-3.5629 3.7096-3.5629 2.9371zm56.872-8.4371c-1.2439-1.5861-1.2085-1.6214 0.37756-0.37756 1.6658 1.3064 2.1955 2.1276 1.3724 2.1276-0.20765 0-0.99515-0.7875-1.75-1.75zm-333.37-1.25c0.99549-1.1 2.035-2 2.31-2s-0.31449 0.9-1.31 2-2.035 2-2.31 2 0.31449-0.9 1.31-2zm470.45-2.75-3.4462-3.75 3.75 3.4462c3.4904 3.2076 4.2098 4.0538 3.4462 4.0538-0.16711 0-1.8546-1.6875-3.75-3.75zm132.13-3.8333c0.048-1.165 0.28494-1.4019 0.60416-0.60417 0.28887 0.72187 0.25335 1.5844-0.0789 1.9167-0.33229 0.33229-0.56864-0.25834-0.52522-1.3125zm-56.827-5.9167c0.0111-2.2 0.21589-2.9822 0.45508-1.7383s0.23011 3.0439-0.0202 4c-0.25029 0.95609-0.446-0.0617-0.4349-2.2617zm-48.815-0.75-2.9371-3.25 3.25 2.9371c1.7875 1.6154 3.25 3.0779 3.25 3.25 0 0.77256-0.82513 0.0924-3.5629-2.9371zm-358.28-2.75c0-1.375 0.22698-1.9375 0.50439-1.25s0.27741 1.8125 0 2.5-0.50439 0.125-0.50439-1.25zm463.92-0.58333c0.048-1.165 0.28494-1.4019 0.60416-0.60417 0.28887 0.72187 0.25335 1.5844-0.0789 1.9167-0.33229 0.33229-0.56864-0.25834-0.52522-1.3125zm-149.21-1.1667c-1.2439-1.5861-1.2085-1.6214 0.37756-0.37756 1.6658 1.3064 2.1955 2.1276 1.3724 2.1276-0.20765 0-0.99515-0.7875-1.75-1.75zm-314.79-2.8333c0.048-1.165 0.28494-1.4019 0.60416-0.60417 0.28887 0.72187 0.25335 1.5844-0.0789 1.9167-0.33229 0.33229-0.56864-0.25834-0.52522-1.3125zm153.08-1.4167c0-1.375 0.22698-1.9375 0.50439-1.25s0.27741 1.8125 0 2.5-0.50439 0.125-0.50439-1.25zm196.25-1.25-1.905-2.25 2.25 1.905c1.2375 1.0477 2.25 2.0602 2.25 2.25 0 0.80025-0.80479 0.20945-2.595-1.905zm-41.533-0.5c-1.2439-1.5861-1.2085-1.6214 0.37756-0.37756 0.9625 0.75485 1.75 1.5424 1.75 1.75 0 0.82304-0.82119 0.29331-2.1276-1.3724zm175.21 0.16667c0.048-1.165 0.28494-1.4019 0.60416-0.60417 0.28887 0.72187 0.25335 1.5844-0.0789 1.9167-0.33229 0.33229-0.56864-0.25834-0.52522-1.3125zm-773.92-3.4167c0-1.375 0.22698-1.9375 0.50439-1.25s0.27741 1.8125 0 2.5-0.50439 0.125-0.50439-1.25zm161.77-3.75-2.4243-2.75 2.75 2.4243c2.5703 2.2659 3.2086 3.0757 2.4243 3.0757-0.17912 0-1.4166-1.2375-2.75-2.75zm429.48 0.5-1.905-2.25 2.25 1.905c1.2375 1.0477 2.25 2.0602 2.25 2.25 0 0.80025-0.80479 0.20945-2.595-1.905zm-117.33-0.33333c0.048-1.165 0.28494-1.4019 0.60416-0.60417 0.28887 0.72187 0.25335 1.5844-0.0789 1.9167-0.33229 0.33229-0.56864-0.25834-0.52522-1.3125zm-37.155-8.1667-2.4243-2.75 2.75 2.4243c1.5125 1.3334 2.75 2.5709 2.75 2.75 0 0.78428-0.8098 0.14598-3.0757-2.4243zm-384.16-1.9573c1.2439-0.23919 3.0439-0.23011 4 0.0202 0.95609 0.25029-0.0617 0.446-2.2617 0.4349-2.2-0.0111-2.9822-0.21589-1.7383-0.45508zm147.32-1.8761c0.048-1.165 0.28494-1.4019 0.60416-0.60417 0.28887 0.72187 0.25335 1.5844-0.0789 1.9167-0.33229 0.33229-0.56864-0.25834-0.52522-1.3125zm-56.079 0.20577c0-0.20765 0.7875-0.99515 1.75-1.75 1.5861-1.2439 1.6214-1.2085 0.37756 0.37756-1.3064 1.6658-2.1276 2.1955-2.1276 1.3724zm468.87-1.3724c-1.2439-1.5861-1.2085-1.6214 0.37756-0.37756 1.6658 1.3064 2.1955 2.1276 1.3724 2.1276-0.20765 0-0.99515-0.7875-1.75-1.75zm-267.71-1.25c0-1.375 0.22698-1.9375 0.50439-1.25s0.27741 1.8125 0 2.5-0.50439 0.125-0.50439-1.25zm-303.29-0.75c-1.2439-1.5861-1.2085-1.6214 0.37756-0.37756 1.6658 1.3064 2.1955 2.1276 1.3724 2.1276-0.20765 0-0.99515-0.7875-1.75-1.75zm273.13-9.75c3.5432-3.575 6.6672-6.5 6.9422-6.5s-2.399 2.925-5.9422 6.5-6.6672 6.5-6.9422 6.5 2.399-2.925 5.9422-6.5zm-160.5 1.5c0.99549-1.1 2.035-2 2.31-2s-0.31449 0.9-1.31 2-2.035 2-2.31 2 0.31449-0.9 1.31-2zm-116.34-2c0-1.375 0.22698-1.9375 0.50439-1.25s0.27741 1.8125 0 2.5-0.50439 0.125-0.50439-1.25zm296.59 0.33772c0.6875-0.27741 1.8125-0.27741 2.5 0s0.125 0.50439-1.25 0.50439-1.9375-0.22698-1.25-0.50439zm130.12-6.0877c-1.2439-1.5861-1.2085-1.6214 0.37756-0.37756 1.6658 1.3064 2.1955 2.1276 1.3724 2.1276-0.20765 0-0.99515-0.7875-1.75-1.75zm144.63-6.25c0.99549-1.1 2.035-2 2.31-2s-0.31449 0.9-1.31 2-2.035 2-2.31 2 0.31449-0.9 1.31-2zm48.579-2.5833c0.048-1.165 0.28494-1.4019 0.60416-0.60417 0.28887 0.72187 0.25335 1.5844-0.0789 1.9167-0.33229 0.33229-0.56864-0.25834-0.52522-1.3125zm-312.27-2.0998c0.72187-0.28887 1.5844-0.25335 1.9167 0.0789 0.33229 0.33229-0.25834 0.56864-1.3125 0.52522-1.165-0.048-1.4019-0.28494-0.60417-0.60416zm-224.73-9.9002c0.048-1.165 0.28494-1.4019 0.60416-0.60417 0.28887 0.72187 0.25335 1.5844-0.0789 1.9167-0.3323 0.33229-0.56864-0.25834-0.52522-1.3125zm0-7c0.048-1.165 0.28494-1.4019 0.60416-0.60417 0.28887 0.72187 0.25335 1.5844-0.0789 1.9167-0.3323 0.33229-0.56864-0.25834-0.52522-1.3125zm-89.079-14.917c1.2918-1.375 2.5736-2.5 2.8486-2.5s-0.55688 1.125-1.8486 2.5-2.5736 2.5-2.8486 2.5 0.55688-1.125 1.8486-2.5zm-103.84-1.5c0-1.375 0.22697-1.9375 0.50439-1.25 0.27741 0.6875 0.27741 1.8125 0 2.5-0.27741 0.6875-0.50439 0.125-0.50439-1.25zm13.842-1.3776c0-0.20765 0.7875-0.99515 1.75-1.75 1.5861-1.2439 1.6214-1.2085 0.37756 0.37756-1.3064 1.6658-2.1276 2.1955-2.1276 1.3724zm142.4-2.8724-1.905-2.25 2.25 1.905c2.1144 1.7902 2.7052 2.595 1.905 2.595-0.18976 0-1.2023-1.0125-2.25-2.25zm-153.4-4.1276c0-0.20765 0.7875-0.99515 1.75-1.75 1.5861-1.2439 1.6214-1.2085 0.37756 0.37756-1.3064 1.6658-2.1276 2.1955-2.1276 1.3724zm91.206-31.363c3.6884-0.19186 9.9884-0.19314 14-3e-3 4.0116 0.1903 0.99375 0.34727-6.7062 0.34883-7.7 2e-3 -10.982-0.15414-7.2938-0.34599z" fill="#b3b0c6"/>
  <path d="m453 505.62c0-0.20765 0.7875-0.99515 1.75-1.75 1.5861-1.2439 1.6214-1.2085 0.37756 0.37756-1.3064 1.6658-2.1276 2.1955-2.1276 1.3724zm6-6c0-0.20765 0.7875-0.99515 1.75-1.75 1.5861-1.2439 1.6214-1.2085 0.37756 0.37756-1.3064 1.6658-2.1276 2.1955-2.1276 1.3724zm-90.563-12.872-2.9371-3.25 3.25 2.9371c3.0295 2.7378 3.7096 3.5629 2.9371 3.5629-0.1721 0-1.6346-1.4625-3.25-3.25zm96.721-41.75c0-1.375 0.22698-1.9375 0.50439-1.25s0.27741 1.8125 0 2.5-0.50439 0.125-0.50439-1.25zm498.25-13.377c-0.29063-0.75738-0.38901-3.5699-0.21861-6.25l0.30981-4.8729 8-0.171-7.5 0.78602v10.77l8.5 0.76559-4.2814 0.1747c-2.8428 0.11601-4.459-0.28801-4.8098-1.2024zm-206.33-6.2063c0.048-1.165 0.28494-1.4019 0.60416-0.60417 0.28887 0.72187 0.25335 1.5844-0.0789 1.9167-0.33229 0.33229-0.56864-0.25834-0.52522-1.3125zm-214.83-3.9167c0.0111-2.2 0.21589-2.9822 0.45508-1.7383s0.23011 3.0439-0.0202 4c-0.25029 0.95609-0.446-0.0617-0.4349-2.2617zm-77.057-2c0.0204-1.65 0.2445-2.2039 0.49804-1.231s0.23687 2.323-0.0371 3c-0.27393 0.67703-0.48137-0.11903-0.46099-1.769zm331.68-46.25c-1.2439-1.5861-1.2085-1.6214 0.37756-0.37756 0.9625 0.75485 1.75 1.5424 1.75 1.75 0 0.82304-0.82119 0.29331-2.1276-1.3724zm-528-20c-1.2439-1.5861-1.2085-1.6214 0.37756-0.37756 1.6658 1.3064 2.1955 2.1276 1.3724 2.1276-0.20765 0-0.99515-0.7875-1.75-1.75zm246-2c-1.2439-1.5861-1.2085-1.6214 0.37756-0.37756 0.9625 0.75485 1.75 1.5424 1.75 1.75 0 0.82304-0.82119 0.29331-2.1276-1.3724zm254.07-24-3.4462-3.75 3.75 3.4462c3.4904 3.2076 4.2098 4.0538 3.4462 4.0538-0.16711 0-1.8546-1.6875-3.75-3.75zm-38.541-1.5-1.905-2.25 2.25 1.905c1.2375 1.0477 2.25 2.0602 2.25 2.25 0 0.80025-0.80479 0.20945-2.595-1.905zm-440.59-16.433c0.72187-0.28887 1.5844-0.25335 1.9167 0.0789 0.33229 0.33229-0.25834 0.56864-1.3125 0.52522-1.165-0.048-1.4019-0.28494-0.60417-0.60416zm460.06-2.0669c-1.2439-1.5861-1.2085-1.6214 0.37756-0.37756 1.6658 1.3064 2.1955 2.1276 1.3724 2.1276-0.20765 0-0.99515-0.7875-1.75-1.75zm-424.87-6.5629c0-0.1721 1.4625-1.6346 3.25-3.25l3.25-2.9371-2.9371 3.25c-2.7378 3.0295-3.5629 3.7096-3.5629 2.9371zm199.5-3.6871c0.99549-1.1 2.035-2 2.31-2s-0.31449 0.9-1.31 2-2.035 2-2.31 2 0.31449-0.9 1.31-2zm-106.5-8.5c1.8658-1.925 3.6173-3.5 3.8923-3.5s-1.0266 1.575-2.8923 3.5-3.6173 3.5-3.8923 3.5 1.0266-1.575 2.8923-3.5zm-143-3.8776c0-0.20765 0.7875-0.99515 1.75-1.75 1.5861-1.2439 1.6214-1.2085 0.37756 0.37756-1.3064 1.6658-2.1276 2.1955-2.1276 1.3724zm566.75-2.2847c0.6875-0.27741 1.8125-0.27741 2.5 0s0.125 0.50439-1.25 0.50439-1.9375-0.22698-1.25-0.50439zm-565.75-9.7153c0-0.20765 0.7875-0.99515 1.75-1.75 1.5861-1.2439 1.6214-1.2085 0.37756 0.37756-1.3064 1.6658-2.1276 2.1955-2.1276 1.3724zm420-4c0-0.20765 0.7875-0.99515 1.75-1.75 1.5861-1.2439 1.6214-1.2085 0.37756 0.37756-1.3064 1.6658-2.1276 2.1955-2.1276 1.3724zm-495.13-41.372c-1.2439-1.5861-1.2085-1.6214 0.37756-0.37756 0.9625 0.75485 1.75 1.5424 1.75 1.75 0 0.82304-0.82119 0.29331-2.1276-1.3724zm-7-7c-1.2439-1.5861-1.2085-1.6214 0.37756-0.37756 0.9625 0.75485 1.75 1.5424 1.75 1.75 0 0.82304-0.82119 0.29331-2.1276-1.3724zm28.533-1.5-1.905-2.25 2.25 1.905c2.1144 1.7902 2.7052 2.595 1.905 2.595-0.18976 0-1.2023-1.0125-2.25-2.25z" fill="#9f9caf"/>
  <path d="m393.98 351.49c9.4277-5.1481 19.211-11.538 23.02-15.035 2.2188-2.0373 13.827-5.9632 14.789-5.0015 0.94143 0.94143-16.442 11.47-28.229 17.097-16.034 7.6549-21.012 9.1826-9.5801 2.94zm58.02-50.433c0-0.51754 0.44485-1.2159 0.98855-1.5519 0.56686-0.35034 0.7345 0.0511 0.39301 0.94098-0.66479 1.7324-1.3816 2.0494-1.3816 0.61096zm27.2-23.498c0-1.8998-0.68948-4.8362-1.5322-6.5254-1.521-3.0488-1.4771-3.1638 5.9764-15.68 4.1297-6.9348 15.407-27.514 25.06-45.732 9.6532-18.218 20.482-38.299 24.065-44.624 36.953-65.246 71.382-101.94 117.33-125.05 9.7389-4.8985 27.58-12.201 35.162-14.392 4.632-1.3385 5.0092-1.3404 3.2419-0.01557-5.5886 4.1893-13.482 13.092-15.721 17.73-4.5772 9.4842-5.3198 14.676-4.8238 33.727 0.9892 37.995 0.47607 44.099-4.551 54.135-1.2768 2.5491-3.9152 6.3245-5.8631 8.3899-1.9479 2.0653-3.5416 4.0051-3.5416 4.3106s1.2375 1.8483 2.75 3.4284c2.4528 2.5626 2.7448 3.5951 2.7021 9.5547-0.0398 5.5443-0.67095 8.0094-3.708 14.482-4.657 9.9244-14.129 24.358-24.571 37.44-4.4953 5.6322-8.1733 10.695-8.1733 11.25 0 0.63115 5.3412 1.0178 14.25 1.0315 11.763 0.0181 14.97 0.34898 18.377 1.8959 2.2696 1.0306 4.3893 2.2989 4.7103 2.8183 1.4342 2.3206-17.541 28.216-32.962 44.984-8.295 9.0194-8.658 9.2795-12.955 9.2795-2.4312 0-4.4132-0.3375-4.4043-0.75 9e-3 -0.4125 4.088-5.475 9.0646-11.25 11.348-13.169 25.139-33.458 24.722-36.375-0.60575-4.2459-6.8307-6.0341-22.485-6.4592l-14.182-0.38508 7.2544-9.1406c10.779-13.582 18.126-24.438 22.512-33.264 4.7969-9.6536 6.084-14.207 6.0912-21.55 5e-3 -4.5778-0.47095-6.2396-2.4622-8.606l-2.4677-2.9327 2.5018-2.3503c3.9722-3.7317 9.1063-15.07 10.468-23.118 0.90993-5.3782 1.0033-11.696 0.35212-23.82-1.1329-21.091-0.97082-31.356 0.60158-38.106 1.7609-7.5597 7.1758-17.461 12.93-23.644 2.6875-2.8875 4.5176-5.25 4.067-5.25-3.7152 0-22.935 11.348-36.648 21.637-9.8368 7.3813-27.409 24.266-36.803 35.363-20.97 24.773-41.395 57.613-71.522 115-6.2079 11.825-11.813 22.175-12.457 23-0.6432 0.825-1.712 2.7707-2.375 4.3238-2.9239 6.8488-22.729 39.448-28.21 46.434l-1.7714 2.2577z" fill="#d79a28"/>
  <path d="m407.77 521.28c1.7974-0.22256 4.4974-0.21797 6 0.0102 1.5026 0.22818 0.0321 0.41027-3.2679 0.40466-3.3-6e-3 -4.5294-0.1923-2.7321-0.41486zm-8.9554-0.95838c0.72187-0.28887 1.5844-0.25335 1.9167 0.0789 0.33229 0.33229-0.25834 0.56864-1.3125 0.52522-1.165-0.048-1.4019-0.28494-0.60417-0.60416zm22 0c0.72187-0.28887 1.5844-0.25335 1.9167 0.0789 0.33229 0.33229-0.25834 0.56864-1.3125 0.52522-1.165-0.048-1.4019-0.28494-0.60417-0.60416zm-42.062-6.385c-2.0625-1.0888-3.75-2.2031-3.75-2.4761 0-0.44554 7.8986 3.2458 8.9167 4.1671 1.1508 1.0414-1.8531 0.0583-5.1667-1.691zm62.25-0.36154c0-0.275 0.9-0.98167 2-1.5704s2-0.84537 2-0.57037-0.9 0.98167-2 1.5704-2 0.84537-2 0.57037zm-69.559-4.1255c-1.864-1.4934-1.8518-1.5118 0.30887-0.46481 1.2375 0.59969 2.25 1.2995 2.25 1.5552 0 0.76522-0.51861 0.54424-2.5589-1.0904zm74.559 1.335c0-0.19599 2.1375-2.1131 4.75-4.2602s3.85-2.8688 2.75-1.6038c-1.9441 2.2358-7.5 6.5798-7.5 5.864zm-83.545-7.6476c-3.3088-2.6772-7.3116-6.6148-8.8952-8.75-2.2168-2.9891-1.6346-2.6023 2.5304 1.6811 2.9753 3.0599 7.2096 6.9823 9.4096 8.7165 2.2 1.7342 3.7685 3.1682 3.4855 3.1866-0.28296 0.0184-3.2217-2.157-6.5304-4.8342zm74.545 4.5179c0-0.23109 1.1804-1.1936 2.6231-2.1389 1.4427-0.9453 2.3177-1.2245 1.9443-0.62038-0.71346 1.1544-4.5674 3.4827-4.5674 2.7593zm-45.559-4.2054c-1.8303-1.4664-1.7984-1.4872 0.55887-0.36454 3.061 1.4578 3.6283 1.9197 2.3578 1.9197-0.53655 0-1.849-0.69982-2.9167-1.5552zm55.993-4.7151c2.4946-3.1736 5.2291-7.1111 6.0766-8.75 0.8475-1.6389 1.7831-2.9798 2.0792-2.9798 1.185 0-4.18 8.2136-8.3039 12.713l-4.3875 4.787zm8.5661 3.8927c0-0.20765 0.7875-0.99515 1.75-1.75 1.5861-1.2439 1.6214-1.2085 0.37756 0.37756-1.3064 1.6658-2.1276 2.1955-2.1276 1.3724zm-71.559-3.1776c-1.864-1.4934-1.8518-1.5118 0.30887-0.46481 1.2375 0.59969 2.25 1.2995 2.25 1.5552 0 0.76522-0.51861 0.54424-2.5589-1.0904zm78.341-4.9448c7.6723-9.272 8.3964-10.016 5.189-5.3291-1.7582 2.569-4.5758 5.944-6.2615 7.5-2.2554 2.082-1.9722 1.5086 1.0725-2.1709zm-89.377-2.75-1.905-2.25 2.25 1.905c1.2375 1.0477 2.25 2.0602 2.25 2.25 0 0.80025-0.80479 0.20945-2.595-1.905zm-5.4807-4.5-2.4243-2.75 2.75 2.4243c2.5703 2.2659 3.2086 3.0757 2.4243 3.0757-0.17912 0-1.4166-1.2375-2.75-2.75zm-4.0519-5c-1.2439-1.5861-1.2085-1.6214 0.37756-0.37756 1.6658 1.3064 2.1955 2.1276 1.3724 2.1276-0.20765 0-0.99515-0.7875-1.75-1.75zm93.158 1.25c0-0.55 0.43621-1.675 0.96937-2.5s0.96937-1.05 0.96937-0.5-0.43621 1.675-0.96937 2.5-0.96937 1.05-0.96937 0.5zm14.969-1.5c0.5887-1.1 1.2954-2 1.5704-2s0.0183 0.9-0.57037 2c-0.5887 1.1-1.2954 2-1.5704 2s-0.0183-0.9 0.57037-2zm-110.54-3.0665c-0.36253-0.58659-0.44468-1.281-0.18255-1.5431 0.26212-0.26213 0.74306 0.21781 1.0688 1.0665 0.67618 1.7621 0.0999 2.0721-0.8862 0.4766zm-16.38-2.5168c0.048-1.165 0.28494-1.4019 0.60416-0.60417 0.28887 0.72187 0.25335 1.5844-0.0789 1.9167-0.33229 0.33229-0.56864-0.25834-0.52522-1.3125zm12-12c0.048-1.165 0.28494-1.4019 0.60416-0.60417 0.28887 0.72187 0.25335 1.5844-0.0789 1.9167-0.33229 0.33229-0.56864-0.25834-0.52522-1.3125zm-12-4c0.048-1.165 0.28494-1.4019 0.60416-0.60417 0.28887 0.72187 0.25335 1.5844-0.0789 1.9167-0.33229 0.33229-0.56864-0.25834-0.52522-1.3125zm119-2c0.048-1.165 0.28494-1.4019 0.60416-0.60417 0.28887 0.72187 0.25335 1.5844-0.0789 1.9167-0.33229 0.33229-0.56864-0.25834-0.52522-1.3125zm-118-4c0.048-1.165 0.28494-1.4019 0.60416-0.60417 0.28887 0.72187 0.25335 1.5844-0.0789 1.9167-0.33229 0.33229-0.56864-0.25834-0.52522-1.3125zm119.08-5.4167c0-1.375 0.22698-1.9375 0.50439-1.25s0.27741 1.8125 0 2.5-0.50439 0.125-0.50439-1.25zm-117.08-2.5833c0.048-1.165 0.28494-1.4019 0.60416-0.60417 0.28887 0.72187 0.25335 1.5844-0.0789 1.9167-0.33229 0.33229-0.56864-0.25834-0.52522-1.3125zm9-1c0.048-1.165 0.28494-1.4019 0.60416-0.60417 0.28887 0.72187 0.25335 1.5844-0.0789 1.9167-0.33229 0.33229-0.56864-0.25834-0.52522-1.3125zm131.12-13.917c0.0204-1.65 0.2445-2.2039 0.49804-1.231s0.23687 2.323-0.0371 3c-0.27393 0.67703-0.48137-0.11903-0.46099-1.769zm-134.19-1.883c0-1.0732 2.9754-6.617 3.5514-6.617 0.275 0-0.24379 1.4625-1.1529 3.25-1.8562 3.6499-2.3985 4.4111-2.3985 3.367zm135.25-8.117c0.0111-2.2 0.21589-2.9822 0.45508-1.7383s0.23011 3.0439-0.0202 4c-0.25029 0.95609-0.446-0.0617-0.4349-2.2617zm-123.25-0.5c0.5887-1.1 1.2954-2 1.5704-2s0.0183 0.9-0.57037 2c-0.5887 1.1-1.2954 2-1.5704 2s-0.0183-0.9 0.57037-2zm-7.0311-0.72923c0.5936-1.2261 3.4309-4.6413 6.3052-7.5894 4.1564-4.2632 4.4039-4.4209 1.2092-0.77076-2.2092 2.5242-5.0465 5.9394-6.3052 7.5894-1.4305 1.8753-1.8838 2.1642-1.2092 0.77077zm106.23-5.7708c0.0204-1.65 0.2445-2.2039 0.49804-1.231s0.23687 2.323-0.0371 3c-0.27393 0.67703-0.48137-0.11903-0.46099-1.769zm-93.455-2c1.1352-1.65 3.3329-4.125 4.8837-5.5 1.8728-1.6604 1.5225-0.98881-1.043 2-5.2415 6.1064-6.2935 7.065-3.8407 3.5zm6.3661-12.75c0.24191-0.1375 3.1294-2.725 6.4167-5.75l5.9768-5.5-5.4658 5.75c-3.0062 3.1625-5.8937 5.75-6.4167 5.75-0.52295 0-0.7529-0.1125-0.51099-0.25zm11.894-3.2371c0-0.27477 6.4125-3.7008 14.25-7.6135s15.142-7.8531 16.233-8.7567c1.8814-1.5588 1.9095-1.5485 0.54934 0.20144-1.3646 1.7557-31.032 17.213-31.032 16.169zm99.079-4.0963c0.048-1.165 0.28494-1.4019 0.60416-0.60417 0.28887 0.72187 0.25335 1.5844-0.0789 1.9167-0.33229 0.33229-0.56864-0.25834-0.52522-1.3125zm-94.079-6.8463c0-0.275 0.9-0.98167 2-1.5704s2-0.84537 2-0.57037-0.9 0.98167-2 1.5704-2 0.84537-2 0.57037zm93.158-2.5704c0-1.375 0.22698-1.9375 0.50439-1.25s0.27741 1.8125 0 2.5-0.50439 0.125-0.50439-1.25zm-392.5-2.8287c-0.91024-1.0058-1.6413-2.2433-1.6246-2.75 0.01672-0.50669 0.50516-0.10504 1.0854 0.89256 0.58025 0.9976 2.0291 2.2066 3.2196 2.6866 1.4653 0.59083 1.6493 0.89328 0.56958 0.93618-0.87726 0.0349-2.3398-0.75954-3.25-1.7654zm176.61 1.1358c0.97297-0.25354 2.323-0.23687 3 0.0371 0.67703 0.27393-0.11903 0.48137-1.769 0.46099-1.65-0.0204-2.2039-0.2445-1.231-0.49804zm20 0c0.97297-0.25354 2.323-0.23687 3 0.0371 0.67703 0.27393-0.11903 0.48137-1.769 0.46099-1.65-0.0204-2.2039-0.2445-1.231-0.49804zm210.54 0.01c0.72187-0.28887 1.5844-0.25335 1.9167 0.0789 0.33229 0.33229-0.25834 0.56864-1.3125 0.52522-1.165-0.048-1.4019-0.28494-0.60417-0.60416zm222.94-0.0226c1.2375-0.23836 3.2625-0.23836 4.5 0 1.2375 0.23835 0.225 0.43337-2.25 0.43337s-3.4875-0.19502-2.25-0.43337zm9.0117-2e-3c1.2439-0.23919 3.0439-0.23011 4 0.0202 0.95609 0.25029-0.0617 0.446-2.2617 0.4349-2.2-0.0111-2.9822-0.21589-1.7383-0.45508zm80.051 0.0242c0.72187-0.28887 1.5844-0.25335 1.9167 0.0789 0.33229 0.33229-0.25834 0.56864-1.3125 0.52522-1.165-0.048-1.4019-0.28494-0.60417-0.60416zm6 0c0.72187-0.28887 1.5844-0.25335 1.9167 0.0789 0.33229 0.33229-0.25834 0.56864-1.3125 0.52522-1.165-0.048-1.4019-0.28494-0.60417-0.60416zm-716.81-2.8166c1.8637-1.375 3.6386-2.4978 3.9443-2.495 0.94369 8e-3 -5.3848 4.9208-6.3886 4.9591-0.51935 0.0198 0.58057-1.089 2.4443-2.464zm160.81 1.8169c0.72187-0.28887 1.5844-0.25335 1.9167 0.0789 0.33229 0.33229-0.25834 0.56864-1.3125 0.52522-1.165-0.048-1.4019-0.28494-0.60417-0.60416zm36.938 0.0208c0.6875-0.27741 1.8125-0.27741 2.5 0s0.125 0.50439-1.25 0.50439-1.9375-0.22698-1.25-0.50439zm418.06-0.0208c0.72187-0.28887 1.5844-0.25335 1.9167 0.0789 0.33229 0.33229-0.25834 0.56864-1.3125 0.52522-1.165-0.048-1.4019-0.28494-0.60417-0.60416zm24 0c0.72187-0.28887 1.5844-0.25335 1.9167 0.0789 0.33229 0.33229-0.25834 0.56864-1.3125 0.52522-1.165-0.048-1.4019-0.28494-0.60417-0.60416zm-434-1c0.72187-0.28887 1.5844-0.25335 1.9167 0.0789 0.33229 0.33229-0.25834 0.56864-1.3125 0.52522-1.165-0.048-1.4019-0.28494-0.60417-0.60416zm185.11-2.0669-2.4243-2.75 2.75 2.4243c2.5703 2.2659 3.2086 3.0757 2.4243 3.0757-0.17912 0-1.4166-1.2375-2.75-2.75zm-179.11 1.0669c0.72187-0.28887 1.5844-0.25335 1.9167 0.0789 0.33229 0.33229-0.25834 0.56864-1.3125 0.52522-1.165-0.048-1.4019-0.28494-0.60417-0.60416zm487.69-0.30544c-0.35034-0.56686 0.0511-0.7345 0.94098-0.39301 1.7324 0.66479 2.0494 1.3816 0.61096 1.3816-0.51754 0-1.2159-0.44485-1.5519-0.98855zm-482.69-0.69456c0.72187-0.28887 1.5844-0.25335 1.9167 0.0789 0.33229 0.33229-0.25834 0.56864-1.3125 0.52522-1.165-0.048-1.4019-0.28494-0.60417-0.60416zm387.19-0.31689c-0.825-0.53316-1.05-0.96937-0.5-0.96937s1.675 0.43621 2.5 0.96937 1.05 0.96937 0.5 0.96937-1.675-0.43621-2.5-0.96937zm89.453-4.25-3.953-4.25 4.25 3.953c2.3375 2.1741 4.25 4.0866 4.25 4.25 0 0.75658-0.87085-4.9e-4 -4.547-3.953zm39.63 3.8854c0.22917-0.2005 1.5417-0.90032 2.9167-1.5552 2.3573-1.1226 2.3892-1.1018 0.55887 0.36454-1.593 1.2763-4.8479 2.3913-3.4755 1.1906zm-743.83-4.1354c0.0111-2.2 0.21588-2.9822 0.45508-1.7383s0.23011 3.0439-0.02018 4c-0.25029 0.95609-0.446-0.06166-0.4349-2.2617zm236.56 2.8169c0.72187-0.28887 1.5844-0.25335 1.9167 0.0789 0.33229 0.33229-0.25834 0.56864-1.3125 0.52522-1.165-0.048-1.4019-0.28494-0.60417-0.60416zm157.35-1.3169c0-1.375 0.22698-1.9375 0.50439-1.25s0.27741 1.8125 0 2.5-0.50439 0.125-0.50439-1.25zm-375.69-3.5c4.7212-6.2936 5.3316-6.8531 2.9349-2.6902-1.048 1.8204-2.981 4.2954-4.2956 5.5-1.4078 1.29-0.84853 0.13525 1.3607-2.8098zm134.67 2.4667c-1.2984-1.0817-1.9307-1.9667-1.405-1.9667s1.7703 0.9 2.7658 2c2.2869 2.527 1.6951 2.5125-1.3608-0.0333zm87.673 1.3502c0.72187-0.28887 1.5844-0.25335 1.9167 0.0789 0.33229 0.33229-0.25834 0.56864-1.3125 0.52522-1.165-0.048-1.4019-0.28494-0.60417-0.60416zm190.69-1.3169c0.99549-1.1 2.035-2 2.31-2s-0.31449 0.9-1.31 2-2.035 2-2.31 2 0.31449-0.9 1.31-2zm237.58 1.6272c1.029-0.92077 6.9167-3.6264 6.9167-3.1785 0 0.57598-5.5438 3.5514-6.617 3.5514-0.39398 0-0.52882-0.16777-0.29966-0.37282zm-158.33-2.3731c5.6375-0.17825 14.862-0.17825 20.5 0s1.025 0.32409-10.25 0.32409-15.888-0.14584-10.25-0.32409zm-256.94-0.93723c0.72187-0.28887 1.5844-0.25335 1.9167 0.0789 0.33229 0.33229-0.25834 0.56864-1.3125 0.52522-1.165-0.048-1.4019-0.28494-0.60417-0.60416zm294 0c0.72187-0.28887 1.5844-0.25335 1.9167 0.0789 0.33229 0.33229-0.25834 0.56864-1.3125 0.52522-1.165-0.048-1.4019-0.28494-0.60417-0.60416zm49.688-1.3169c-1.3187-0.56668-1.4891-0.87815-0.5-0.9144 0.825-0.0302 2.175 0.38124 3 0.9144 1.828 1.1813 0.24909 1.1813-2.5 0zm79.5 0.80591c0.275-0.25574 2.75-2.4384 5.5-4.8504 4.7522-4.1681 4.8266-4.1973 1.5-0.58838-1.925 2.0884-4.4 4.2711-5.5 4.8504s-1.775 0.84413-1.5 0.58838zm78-0.026c0-0.19599 2.1375-2.1131 4.75-4.2602s3.85-2.8688 2.75-1.6038c-1.9441 2.2358-7.5 6.5798-7.5 5.864zm-606.13-2.5299c-1.2439-1.5861-1.2085-1.6214 0.37756-0.37756 0.9625 0.75485 1.75 1.5424 1.75 1.75 0 0.82304-0.82119 0.29331-2.1276-1.3724zm407.13 0.75c0.825-0.53316 1.95-0.96937 2.5-0.96937s0.325 0.43621-0.5 0.96937-1.95 0.96937-2.5 0.96937-0.325-0.43621 0.5-0.96937zm-70.393-2.0945c-2.5707-2.0221-7.1772-9.6685-6.3332-10.513 0.22731-0.22731 1.2416 1.4236 2.254 3.6686 1.0124 2.245 3.2203 5.1696 4.9065 6.4991 1.6862 1.3295 2.789 2.4222 2.4507 2.4283-0.33833 6e-3 -1.8134-0.93145-3.2779-2.0834zm-48.607 0.71697c0-0.20765 0.7875-0.99515 1.75-1.75 1.5861-1.2439 1.6214-1.2085 0.37756 0.37756-1.3064 1.6658-2.1276 2.1955-2.1276 1.3724zm222.1-1.327c0.72815-1.2125 1.5392-1.9893 1.8022-1.7262s-0.33267 1.2551-1.3239 2.2045c-1.7219 1.6493-1.7432 1.628-0.47833-0.47833zm39.9-0.29548c-0.5887-1.1-0.84537-2-0.57037-2s0.98167 0.9 1.5704 2 0.84537 2 0.57037 2-0.98167-0.9-1.5704-2zm-697.92-0.58333c0.04798-1.165 0.28494-1.4019 0.60417-0.60417 0.28887 0.72187 0.25334 1.5844-0.07895 1.9167-0.33229 0.33229-0.56864-0.25834-0.52522-1.3125zm392.08-0.41667c0-1.375 0.22698-1.9375 0.50439-1.25s0.27741 1.8125 0 2.5-0.50439 0.125-0.50439-1.25zm193.24-2.25c-3.0654-3.3227-6.6522-8.0555-4.7366-6.25 2.1362 2.0134 8.5629 9.5 8.1551 9.5-0.23111 0-1.7694-1.4625-3.4185-3.25zm-561.7-2.2374c0.91468-1.9181 1.8406-3.3099 2.0576-3.0929 0.45746 0.45746-2.5782 6.5804-3.2625 6.5804-0.25198 0 0.29023-1.5694 1.2049-3.4874zm415.3 3.1099c0-0.20765 0.7875-0.99515 1.75-1.75 1.5861-1.2439 1.6214-1.2085 0.37756 0.37756-1.3064 1.6658-2.1276 2.1955-2.1276 1.3724zm130.75-3.5197c2.3375-2.2973 4.25-4.6853 4.25-5.3065 0-0.62125 0.26096-0.86859 0.5799-0.54964 0.92743 0.92742-2.2636 5.15-5.814 7.6934-2.6934 1.9296-2.521 1.6075 0.98407-1.8373zm-568.67 1.314c0.04798-1.165 0.28494-1.4019 0.60417-0.60417 0.28887 0.72187 0.25334 1.5844-0.07895 1.9167-0.33229 0.33229-0.56864-0.25834-0.52522-1.3125zm196.73 0.90022c0.72187-0.28887 1.5844-0.25335 1.9167 0.0789 0.33229 0.33229-0.25834 0.56864-1.3125 0.52522-1.165-0.048-1.4019-0.28494-0.60417-0.60416zm30.938 0.0208c0.6875-0.27741 1.8125-0.27741 2.5 0s0.125 0.50439-1.25 0.50439-1.9375-0.22698-1.25-0.50439zm48.25 0.31247c0-0.23109 1.1804-1.1936 2.6231-2.1389 1.4427-0.9453 2.3177-1.2245 1.9443-0.62038-0.71346 1.1544-4.5674 3.4827-4.5674 2.7593zm345.75-1.7183c-2.0625-1.0888-3.75-2.2031-3.75-2.4761 0-0.44554 7.8986 3.2458 8.9167 4.1671 1.1508 1.0414-1.8531 0.0583-5.1667-1.691zm37.482-0.93188c0-1.925 0.2058-2.7125 0.45733-1.75 0.25152 0.9625 0.25152 2.5375 0 3.5-0.25153 0.9625-0.45733 0.175-0.45733-1.75zm103.77 2.6979c0-0.275 2.7-2.839 6-5.6979s6-4.9729 6-4.6979-2.7 2.839-6 5.6979-6 4.9729-6 4.6979zm-525.25-1.3602c0.6875-0.27741 1.8125-0.27741 2.5 0s0.125 0.50439-1.25 0.50439-1.9375-0.22698-1.25-0.50439zm203.25-1.7153c0-0.20765 0.7875-0.99515 1.75-1.75 1.5861-1.2439 1.6214-1.2085 0.37756 0.37756-1.3064 1.6658-2.1276 2.1955-2.1276 1.3724zm-263.14-2.6818-2.3608-2.0594 3 1.7567c3.9484 2.3121 4.0072 2.362 2.7774 2.362-0.58073 0-2.1182-0.92671-3.4167-2.0594zm182.22 0.47602c0.048-1.165 0.28494-1.4019 0.60416-0.60417 0.28887 0.72187 0.25335 1.5844-0.0789 1.9167-0.33229 0.33229-0.56864-0.25834-0.52522-1.3125zm30.116-0.91667c0.0204-1.65 0.2445-2.2039 0.49804-1.231s0.23687 2.323-0.0371 3c-0.27393 0.67703-0.48137-0.11903-0.46099-1.769zm-247.92-3.5c0-2.475 0.19502-3.4875 0.43337-2.25 0.23836 1.2375 0.23836 3.2625 0 4.5-0.23835 1.2375-0.43337 0.225-0.43337-2.25zm252.81 2.4167c0.048-1.165 0.28494-1.4019 0.60416-0.60417 0.28887 0.72187 0.25335 1.5844-0.0789 1.9167-0.33229 0.33229-0.56864-0.25834-0.52522-1.3125zm-126.27-0.0998c0.72187-0.28887 1.5844-0.25335 1.9167 0.0789 0.33229 0.33229-0.25834 0.56864-1.3125 0.52522-1.165-0.048-1.4019-0.28494-0.60417-0.60416zm175.19 0.30557c0-0.20765 0.7875-0.99515 1.75-1.75 1.5861-1.2439 1.6214-1.2085 0.37756 0.37756-1.3064 1.6658-2.1276 2.1955-2.1276 1.3724zm164.75-1.6905c-2.0625-1.0888-3.75-2.2031-3.75-2.4761s1.8 0.42185 4 1.5442 4 2.2565 4 2.5203c0 0.65417-7e-3 0.65155-4.25-1.5884zm146.33 1.7654c0.22917-0.16646 1.7667-1.0932 3.4167-2.0594l3-1.7567-2.3608 2.0594c-1.2984 1.1326-2.8359 2.0594-3.4167 2.0594-0.58074 0-0.86838-0.1362-0.63922-0.30266zm-480.83-1.3867c0.9625-0.25152 2.5375-0.25152 3.5 0 0.9625 0.25153 0.175 0.45733-1.75 0.45733s-2.7125-0.2058-1.75-0.45733zm412.98-2.3107c0-1.925 0.2058-2.7125 0.45733-1.75 0.25152 0.9625 0.25152 2.5375 0 3.5-0.25153 0.9625-0.45733 0.175-0.45733-1.75zm-661.2 1.5c0-0.55 0.43621-1.675 0.96937-2.5s0.96937-1.05 0.96937-0.5-0.43621 1.675-0.96937 2.5-0.96937 1.05-0.96937 0.5zm448.59-2.0387c-0.96498-2.5147-0.68031-3.1636 0.49853-1.1363 0.58369 1.0038 0.8506 2.0357 0.59313 2.2931s-0.74872-0.26309-1.0917-1.1568zm-303.75-1.2113c-1.2439-1.5861-1.2085-1.6214 0.37756-0.37756 1.6658 1.3064 2.1955 2.1276 1.3724 2.1276-0.20765 0-0.99515-0.7875-1.75-1.75zm277.88-0.75c1.1429-1.65 4.0154-4.8 6.3832-7 3.6508-3.392 3.4849-3.088-1.0911 2-7.2323 8.0416-7.7148 8.4974-5.2921 5zm277.12 0.75c-1.2439-1.5861-1.2085-1.6214 0.37756-0.37756 1.6658 1.3064 2.1955 2.1276 1.3724 2.1276-0.20765 0-0.99515-0.7875-1.75-1.75zm37.628-0.25c0.99549-1.1 2.035-2 2.31-2s-0.31449 0.9-1.31 2-2.035 2-2.31 2 0.31449-0.9 1.31-2zm14.5-0.5c1.2918-1.375 2.5736-2.5 2.8486-2.5s-0.55688 1.125-1.8486 2.5-2.5736 2.5-2.8486 2.5 0.55688-1.125 1.8486-2.5zm-201.84-1.5c0-1.375 0.22698-1.9375 0.50439-1.25s0.27741 1.8125 0 2.5-0.50439 0.125-0.50439-1.25zm114.92 0.41667c0.048-1.165 0.28494-1.4019 0.60416-0.60417 0.28887 0.72187 0.25335 1.5844-0.0789 1.9167-0.33229 0.33229-0.56864-0.25834-0.52522-1.3125zm-302-1c0.048-1.165 0.28494-1.4019 0.60416-0.60417 0.28887 0.72187 0.25335 1.5844-0.0789 1.9167-0.33229 0.33229-0.56864-0.25834-0.52522-1.3125zm-31-1c0.048-1.165 0.28494-1.4019 0.60416-0.60417 0.28887 0.72187 0.25335 1.5844-0.0789 1.9167-0.33229 0.33229-0.56864-0.25834-0.52522-1.3125zm84.921 1.2058c0-0.20765 0.7875-0.99515 1.75-1.75 1.5861-1.2439 1.6214-1.2085 0.37756 0.37756-1.3064 1.6658-2.1276 2.1955-2.1276 1.3724zm118.25-0.31177c0.9625-0.25152 2.5375-0.25152 3.5 0 0.9625 0.25153 0.175 0.45733-1.75 0.45733s-2.7125-0.2058-1.75-0.45733zm-532.22-0.81067c0-0.55 0.43621-1.675 0.96937-2.5s0.96937-1.05 0.96937-0.5-0.43621 1.675-0.96937 2.5-0.96937 1.05-0.96937 0.5zm368.05-1.0833c0.048-1.165 0.28494-1.4019 0.60416-0.60417 0.28887 0.72187 0.25335 1.5844-0.0789 1.9167-0.33229 0.33229-0.56864-0.25834-0.52522-1.3125zm256.92-0.41667c-0.5887-1.1-0.84537-2-0.57037-2s0.98167 0.9 1.5704 2 0.84537 2 0.57037 2-0.98167-0.9-1.5704-2zm-182.86-1.75c-1.0912-2.55-1.0665-2.6089 0.33949-0.80887 0.83394 1.0676 1.5162 2.3051 1.5162 2.75 0 1.5199-0.67833 0.81036-1.8557-1.9411zm119.86 1.75c-0.825-0.53316-1.05-0.96937-0.5-0.96937s1.675 0.43621 2.5 0.96937 1.05 0.96937 0.5 0.96937-1.675-0.43621-2.5-0.96937zm190 0.62244c0-0.20765 0.7875-0.99515 1.75-1.75 1.5861-1.2439 1.6214-1.2085 0.37756 0.37756-1.3064 1.6658-2.1276 2.1955-2.1276 1.3724zm-365.33-1.2891c-0.9215-0.92149-0.84392-21.105 0.0833-21.68 0.4125-0.25555 0.75 4.6673 0.75 10.94 0 6.2723-0.0375 11.405-0.0833 11.406-0.0458 7.7e-4 -0.38334-0.2986-0.75-0.66527zm98.083-0.9053c-3.8772-2.1034-3.4381-2.8293 0.5-0.82653 3.7695 1.9171 4.4366 2.4139 3.1667 2.3585-0.50417-0.022-2.1542-0.71139-3.6667-1.5319zm64.691 0.14613c1.0676-0.86579 3.0926-1.5281 4.5-1.4718 2.3526 0.0941 2.31 0.16185-0.52842 0.84042-1.698 0.40594-3.723 1.0682-4.5 1.4718s-0.5392 0.0254 0.52842-0.84042zm-567.44-5.5742c1.6658-3.3 3.2538-6 3.5288-6s-0.86296 2.7-2.5288 6-3.2538 6-3.5288 6 0.86296-2.7 2.5288-6zm439 3.5c1.2918-1.375 2.5736-2.5 2.8486-2.5s-0.55688 1.125-1.8486 2.5-2.5736 2.5-2.8486 2.5 0.55688-1.125 1.8486-2.5zm240.19 0c0.0204-1.65 0.2445-2.2039 0.49804-1.231s0.23687 2.323-0.0371 3c-0.27393 0.67703-0.48137-0.11903-0.46099-1.769zm79.324-0.5c2.2124-4.4609 2.9281-5.1771 1.9984-2-0.40235 1.375-1.4072 3.175-2.2329 4-1.1582 1.1571-1.1046 0.69994 0.2345-2zm-381.44 0.41667c0.048-1.165 0.28494-1.4019 0.60416-0.60417 0.28887 0.72187 0.25335 1.5844-0.0789 1.9167-0.33229 0.33229-0.56864-0.25834-0.52522-1.3125zm-220.92-1.4167c0-1.375 0.22698-1.9375 0.50439-1.25s0.27741 1.8125 0 2.5-0.50439 0.125-0.50439-1.25zm476.32-7.25-8.9792-9.25 9.25 8.9792c8.5912 8.3396 9.7052 9.5208 8.9792 9.5208-0.14897 0-4.3115-4.1625-9.25-9.25zm40.085 6.5431c-0.54268-1.4252-0.42782-1.5401 0.5598-0.5598 0.68342 0.67834 0.99067 1.4852 0.68278 1.7931s-0.86705-0.24711-1.2426-1.2333zm-651.53 0.20687c0-0.55 0.43621-1.675 0.96937-2.5s0.96937-1.05 0.96937-0.5-0.43621 1.675-0.96937 2.5-0.96937 1.05-0.96937 0.5zm435.97-0.5c-0.90129-0.58246-1.0246-0.97549-0.30902-0.98469 0.65504-8e-3 1.4691 0.43469 1.809 0.98469 0.7673 1.2415 0.42112 1.2415-1.5 0zm35.437-3.25-2.9371-3.25 3.25 2.9371c1.7875 1.6154 3.25 3.0779 3.25 3.25 0 0.77256-0.82513 0.0924-3.5629-2.9371zm-335.44 0.59098c0-0.54579 1.2375-2.0833 2.75-3.4167l2.75-2.4243-2.5 3c-1.375 1.65-2.6125 3.1875-2.75 3.4167-0.1375 0.22916-0.25-0.0299-0.25-0.57569zm619.56-0.63411c0.37553-0.98622 0.93469-1.5412 1.2426-1.2333s6.4e-4 1.1148-0.68278 1.7931c-0.98762 0.98026-1.1025 0.8654-0.5598-0.5598zm-464.3-2.3999c0.97297-0.25354 2.323-0.23687 3 0.0371 0.67703 0.27393-0.11903 0.48137-1.769 0.46099-1.65-0.0204-2.2039-0.2445-1.231-0.49804zm29.136-1.557-1.905-2.25 2.25 1.905c2.1144 1.7902 2.7052 2.595 1.905 2.595-0.18976 0-1.2023-1.0125-2.25-2.25zm326.47 0.5c-1.2439-1.5861-1.2085-1.6214 0.37756-0.37756 0.9625 0.75485 1.75 1.5424 1.75 1.75 0 0.82304-0.82119 0.29331-2.1276-1.3724zm-643.84 0.25c0-0.55 0.43621-1.675 0.96937-2.5s0.96937-1.05 0.96937-0.5-0.43621 1.675-0.96937 2.5-0.96937 1.05-0.96937 0.5zm278.42-3.146c-1.3487-1.4553-2.4522-3.1304-2.4522-3.7225 0-0.59206 0.76685 0.0362 1.7041 1.396 0.93726 1.3599 2.3998 3.0207 3.25 3.6907 0.85024 0.67 1.1869 1.2325 0.74814 1.25s-1.9013-1.1589-3.25-2.6142zm-298.37 0.0627c0.048-1.165 0.28494-1.4019 0.60416-0.60417 0.28887 0.72187 0.25335 1.5844-0.0789 1.9167-0.3323 0.33229-0.56864-0.25834-0.52522-1.3125zm654.39-5.6667c-13.872-14.406-17.891-18.75-17.345-18.75 0.30539 0 6.0655 5.85 12.8 13 6.7347 7.15 12.083 13 11.886 13-0.19769 0-3.501-3.2625-7.3407-7.25zm-284.39 4.6667c0.048-1.165 0.28494-1.4019 0.60416-0.60417 0.28887 0.72187 0.25335 1.5844-0.0789 1.9167-0.33229 0.33229-0.56864-0.25834-0.52522-1.3125zm-41.329-0.079c0.6875-0.27741 1.8125-0.27741 2.5 0s0.125 0.50439-1.25 0.50439-1.9375-0.22698-1.25-0.50439zm153.71-0.40425c-0.36253-0.58659-0.44468-1.281-0.18255-1.5431 0.26212-0.26213 0.74306 0.21781 1.0688 1.0665 0.67618 1.7621 0.0998 2.0721-0.8862 0.4766zm192.7-1.9334c0-1.375 0.22698-1.9375 0.50439-1.25s0.27741 1.8125 0 2.5-0.50439 0.125-0.50439-1.25zm100.92 0.41667c0.048-1.165 0.28494-1.4019 0.60416-0.60417 0.28887 0.72187 0.25335 1.5844-0.0789 1.9167-0.33229 0.33229-0.56864-0.25834-0.52522-1.3125zm-775-1c0.048-1.165 0.28494-1.4019 0.60416-0.60417 0.28887 0.72187 0.25335 1.5844-0.0789 1.9167-0.3323 0.33229-0.56864-0.25834-0.52522-1.3125zm614.85-4.1667-2.4243-2.75 2.75 2.4243c1.5125 1.3334 2.75 2.5709 2.75 2.75 0 0.78428-0.8098 0.14598-3.0757-2.4243zm161.39-3.75c6e-3 -3.3 0.1923-4.5294 0.41486-2.7321s0.21797 4.4974-0.0102 6c-0.22818 1.5026-0.41027 0.0321-0.40466-3.2679zm-775.23 2.9167c0.048-1.165 0.28494-1.4019 0.60416-0.60417 0.28887 0.72187 0.25335 1.5844-0.0789 1.9167-0.3323 0.33229-0.56864-0.25834-0.52522-1.3125zm22.952 0.0833c0-0.55 0.43621-1.675 0.96937-2.5s0.96937-1.05 0.96937-0.5-0.43621 1.675-0.96937 2.5-0.96937 1.05-0.96937 0.5zm165.97-1.8775c0-0.20765 0.7875-0.99515 1.75-1.75 1.5861-1.2439 1.6214-1.2085 0.37756 0.37756-1.3064 1.6658-2.1276 2.1955-2.1276 1.3724zm202.07-0.12244c0-0.55 0.64311-2.125 1.4291-3.5s1.4291-2.05 1.4291-1.5-0.64311 2.125-1.4291 3.5-1.4291 2.05-1.4291 1.5zm212.93-5.6095-6.5-6.0766 6.75 5.7152c5.932 5.0226 7.436 6.5161 6.5 6.4545-0.1375-9e-3 -3.175-2.7509-6.75-6.093zm-158.84 3.1095c0-1.375 0.22698-1.9375 0.50439-1.25s0.27741 1.8125 0 2.5-0.50439 0.125-0.50439-1.25zm-443.93-3c0-1.925 0.2058-2.7125 0.45733-1.75 0.25152 0.9625 0.25152 2.5375 0 3.5-0.25153 0.9625-0.45733 0.175-0.45733-1.75zm191.77 2.6224c0-0.20765 0.7875-0.99515 1.75-1.75 1.5861-1.2439 1.6214-1.2085 0.37756 0.37756-1.3064 1.6658-2.1276 2.1955-2.1276 1.3724zm506.08-1.2058c0.048-1.165 0.28494-1.4019 0.60416-0.60417 0.28887 0.72187 0.25335 1.5844-0.0789 1.9167-0.33229 0.33229-0.56864-0.25834-0.52522-1.3125zm-335-1c0.048-1.165 0.28494-1.4019 0.60416-0.60417 0.28887 0.72187 0.25335 1.5844-0.0789 1.9167-0.33229 0.33229-0.56864-0.25834-0.52522-1.3125zm392 0c0.048-1.165 0.28494-1.4019 0.60416-0.60417 0.28887 0.72187 0.25335 1.5844-0.0789 1.9167-0.33229 0.33229-0.56864-0.25834-0.52522-1.3125zm-730.08-0.04706c0-0.53004 1.9125-2.7425 4.25-4.9167l4.25-3.953-4 4.4846c-2.2 2.4666-4.1125 4.679-4.25 4.9167s-0.25-2e-3 -0.25-0.5317zm171-0.74717c0-0.20765 0.7875-0.99515 1.75-1.75 1.5861-1.2439 1.6214-1.2085 0.37756 0.37756-1.3064 1.6658-2.1276 2.1955-2.1276 1.3724zm96.079-3.2058c0.048-1.165 0.28494-1.4019 0.60416-0.60417 0.28887 0.72187 0.25335 1.5844-0.0789 1.9167-0.33229 0.33229-0.56864-0.25834-0.52522-1.3125zm109.92 0.94113c0-0.53655 0.69982-1.849 1.5552-2.9167 1.4664-1.8303 1.4872-1.7984 0.36454 0.55887-1.4578 3.061-1.9197 3.6283-1.9197 2.3578zm-228.19-1.0409c0.72187-0.28887 1.5844-0.25335 1.9167 0.0789 0.33229 0.33229-0.25834 0.56864-1.3125 0.52522-1.165-0.048-1.4019-0.28494-0.60417-0.60416zm6 0c0.72187-0.28887 1.5844-0.25335 1.9167 0.0789 0.33229 0.33229-0.25834 0.56864-1.3125 0.52522-1.165-0.048-1.4019-0.28494-0.60417-0.60416zm20.188 0.30555c0-0.20765 0.7875-0.99515 1.75-1.75 1.5861-1.2439 1.6214-1.2085 0.37756 0.37756-1.3064 1.6658-2.1276 2.1955-2.1276 1.3724zm162.34-7.1224c4e-3 -4.4 0.17944-6.0756 0.39069-3.7236 0.21124 2.352 0.20827 5.952-7e-3 8-0.21487 2.048-0.38771 0.12357-0.38408-4.2764zm111.74 4.9167c0.048-1.165 0.28494-1.4019 0.60416-0.60417 0.28887 0.72187 0.25335 1.5844-0.0789 1.9167-0.33229 0.33229-0.56864-0.25834-0.52522-1.3125zm-310.86-2.1667c-1.5477-1.5125-1.8923-2.024-0.76577-1.1366 1.1265 0.88739 2.9482 2.1112 4.0482 2.7196s1.4446 1.1198 0.76578 1.1366c-0.67883 0.0167-2.5005-1.2071-4.0482-2.7196zm23.866 2.3854c0.22917-0.2005 1.5417-0.90032 2.9167-1.5552 2.3573-1.1226 2.3892-1.1018 0.55887 0.36454-1.593 1.2763-4.8479 2.3913-3.4755 1.1906zm489.92-0.57643c0-0.51754 0.44485-1.2159 0.98855-1.5519 0.56686-0.35034 0.7345 0.0511 0.39301 0.94098-0.66479 1.7324-1.3816 2.0494-1.3816 0.61096zm96.079-0.64235c0.048-1.165 0.28494-1.4019 0.60416-0.60417 0.28887 0.72187 0.25335 1.5844-0.0789 1.9167-0.33229 0.33229-0.56864-0.25834-0.52522-1.3125zm-638.08-0.35765c0-0.51754 0.44485-1.2159 0.98855-1.5519 0.56686-0.35034 0.7345 0.0511 0.39301 0.94098-0.66479 1.7324-1.3816 2.0494-1.3816 0.61096zm69 0.56342c0-0.20765 0.7875-0.99515 1.75-1.75 1.5861-1.2439 1.6214-1.2085 0.37756 0.37756-1.3064 1.6658-2.1276 2.1955-2.1276 1.3724zm193-1.6224c0.5887-1.1 1.2954-2 1.5704-2s0.0183 0.9-0.57037 2c-0.5887 1.1-1.2954 2-1.5704 2s-0.0183-0.9 0.57037-2zm193.5-2.689c-2.75-2.5296-3.65-3.6785-2-2.553 2.81 1.9168 8.3588 7.2958 7.4243 7.1971-0.23337-0.0247-2.6743-2.1145-5.4243-4.6442zm109.53 4.189c0-0.55 0.43621-1.675 0.96937-2.5s0.96937-1.05 0.96937-0.5-0.43621 1.675-0.96937 2.5-0.96937 1.05-0.96937 0.5zm-379.03-1.5c-0.90129-0.58246-1.0246-0.97549-0.30902-0.98469 0.65504-8e-3 1.4691 0.43469 1.809 0.98469 0.7673 1.2415 0.42112 1.2415-1.5 0zm13.083 0.71703c0.22917-0.15563 1.3167-0.94313 2.4167-1.75 1.85-1.357 1.8971-1.3358 0.62756 0.28297-0.75485 0.9625-1.8424 1.75-2.4167 1.75s-0.85672-0.12734-0.62756-0.28297zm-141.08-1.0299c0-0.1721 1.4625-1.6346 3.25-3.25l3.25-2.9371-2.9371 3.25c-2.7378 3.0295-3.5629 3.7096-3.5629 2.9371zm436.25-1.8021c-3.4085-2.1829-4.5116-3.6488-1.5-1.9934 2.2944 1.2612 5.8888 4.0407 5.25 4.0598-0.275 8e-3 -1.9625-0.92165-3.75-2.0664zm-414.76-5.885c3.8138-4.125 7.125-7.725 7.3582-8s-0.0543 0.4-0.63889 1.5-3.8958 4.7-7.3582 8l-6.2953 6zm466.4 4.1612c1.1118-1.5614 2.812-3.4738 3.7782-4.25 0.96625-0.77616 0.23694 0.50131-1.6207 2.8388-3.815 4.8005-5.23 5.726-2.1576 1.4112zm-542.19-1.2381c0.9936-1.6923 2.4456-3.6048 3.2266-4.25 0.78103-0.64522 0.15873 0.73938-1.3829 3.0769-3.237 4.9082-4.5136 5.7204-1.8437 1.1731zm612.91 1.4769c-0.35589-0.92744-0.42208-1.9113-0.14708-2.1863s0.79119 0.25882 1.1471 1.1863 0.42208 1.9113 0.14708 2.1863-0.79119-0.25882-1.1471-1.1863zm-750.52-0.98333c0.048-1.165 0.28494-1.4019 0.60416-0.60417 0.28887 0.72187 0.25335 1.5844-0.0789 1.9167-0.3323 0.33229-0.56864-0.25834-0.52522-1.3125zm398.92-0.41667c0.5887-1.1 1.2954-2 1.5704-2s0.0183 0.9-0.57037 2c-0.5887 1.1-1.2954 2-1.5704 2s-0.0183-0.9 0.57037-2zm7 1.6224c0-0.20765 0.7875-0.99515 1.75-1.75 1.5861-1.2439 1.6214-1.2085 0.37756 0.37756-1.3064 1.6658-2.1276 2.1955-2.1276 1.3724zm365.08-1.2058c0.048-1.165 0.28494-1.4019 0.60416-0.60417 0.28887 0.72187 0.25335 1.5844-0.0789 1.9167-0.33229 0.33229-0.56864-0.25834-0.52522-1.3125zm-725.27-0.0998c0.72187-0.28887 1.5844-0.25335 1.9167 0.0789 0.33229 0.33229-0.25834 0.56864-1.3125 0.52522-1.165-0.048-1.4019-0.28494-0.60417-0.60416zm111.65-0.38342c-0.36253-0.58659-0.44468-1.281-0.18255-1.5431 0.26212-0.26213 0.74306 0.21781 1.0688 1.0665 0.67618 1.7621 0.0999 2.0721-0.8862 0.4766zm-106.65-0.61656c0.72187-0.28887 1.5844-0.25335 1.9167 0.0789 0.33229 0.33229-0.25834 0.56864-1.3125 0.52522-1.165-0.048-1.4019-0.28494-0.60417-0.60416zm265.85 0.0164c-0.97967-0.97967-0.81207-5.1254 0.23333-5.7715 0.495-0.30592 0.9 1.0175 0.9 2.941 0 3.6978-0.0761 3.8878-1.1333 2.8305zm-259.85-1.0164c0.72187-0.28887 1.5844-0.25335 1.9167 0.0789 0.33229 0.33229-0.25834 0.56864-1.3125 0.52522-1.165-0.048-1.4019-0.28494-0.60417-0.60416zm5-1c0.72187-0.28887 1.5844-0.25335 1.9167 0.0789 0.33229 0.33229-0.25834 0.56864-1.3125 0.52522-1.165-0.048-1.4019-0.28494-0.60417-0.60416zm375.11-2.0669-2.4243-2.75 2.75 2.4243c2.5703 2.2659 3.2086 3.0757 2.4243 3.0757-0.17912 0-1.4166-1.2375-2.75-2.75zm-31.343-4.25c2.5926-3.3 5.4162-6.5625 6.2746-7.25 0.85844-0.68753-1.0586 2.0124-4.2601 6s-6.0251 7.25-6.2746 7.25 1.6675-2.7 4.2601-6zm66.651 3c0-1.925 0.2058-2.7125 0.45733-1.75 0.25152 0.9625 0.25152 2.5375 0 3.5-0.25153 0.9625-0.45733 0.175-0.45733-1.75zm236.27-2c2.7086-2.75 5.1498-5 5.4248-5s-1.7162 2.25-4.4248 5-5.1498 5-5.4248 5 1.7162-2.25 4.4248-5zm-21.317 2.4348c0.9256-1.0641 3.1756-2.7862 5-3.8269 3.9146-2.2329 2.8833-1.1251-2.6829 2.882-2.3266 1.6749-3.2959 2.0702-2.3171 0.94483zm-377.09-11.185c11.382-11.086 21.689-19.262 24.257-19.241 0.63202 5e-3 -1.271 1.3972-4.2289 3.0934s-11.156 8.667-18.219 15.491c-7.0623 6.8237-13.073 12.407-13.357 12.407-0.28389 0 4.9125-5.2875 11.548-11.75zm-252.28 10.067c0.72187-0.28887 1.5844-0.25335 1.9167 0.0789 0.33229 0.33229-0.25834 0.56864-1.3125 0.52522-1.165-0.048-1.4019-0.28494-0.60417-0.60416zm84.188 0.3702c0-0.1721 1.4625-1.6346 3.25-3.25l3.25-2.9371-2.9371 3.25c-2.7378 3.0295-3.5629 3.7096-3.5629 2.9371zm469.1-3.2219c-1.707-1.9441-3.1036-3.8341-3.1036-4.2 0-0.36586 0.34099-0.2377 0.75775 0.2848s2.076 2.4125 3.6871 4.2 2.6668 3.25 2.3458 3.25c-0.32092 0-1.9801-1.5907-3.6871-3.5348zm-568.48 0.45725c-1.4526-1.1427-3.1377-3.0552-3.7446-4.25-0.73329-1.4438-0.14418-1.114 1.7563 0.98305 1.5728 1.7355 3.7597 3.6344 4.8597 4.2196 1.1 0.58525 1.4982 1.0778 0.88486 1.0945-0.61333 0.0167-2.3037-0.90449-3.7563-2.0471zm319.45-0.50578c0.048-1.165 0.28494-1.4019 0.60416-0.60417 0.28887 0.72187 0.25335 1.5844-0.0789 1.9167-0.33229 0.33229-0.56864-0.25834-0.52522-1.3125zm61.683-0.12393c1.2439-0.23919 3.0439-0.23011 4 0.0202 0.95609 0.25029-0.0617 0.446-2.2617 0.4349-2.2-0.0111-2.9822-0.21589-1.7383-0.45508zm317.74-2.9623c-2.2-1.9724-3.1-3.12-2-2.5502 1.8534 0.96015 7.3765 6.2715 6.4243 6.1781-0.23337-0.0229-2.2243-1.6554-4.4243-3.6279zm-735.81-1.4074c0.9936-1.6923 2.4456-3.6048 3.2266-4.25 0.78103-0.64522 0.15873 0.73938-1.3829 3.0769-3.237 4.9082-4.5136 5.7204-1.8437 1.1731zm690.81 2.357c1.5714-1.5924 19.5-13.39 19.5-12.832 0 0.275-3.9375 3.1312-8.75 6.347-9.7367 6.5063-12.293 8.0485-10.75 6.4847zm-542-8.2801c3.8205-3.85 7.1714-7 7.4464-7s-2.6259 3.15-6.4464 7-7.1714 7-7.4464 7 2.6259-3.15 6.4464-7zm5.4702 5.0557c0.57231-1.0694 1.5348-2.2498 2.1389-2.6231 0.6041-0.37335 0.32492 0.50159-0.62038 1.9443-2.0016 3.0549-3.0381 3.5182-1.5185 0.67881zm162.53-0.93135c3.049-3.3568 8.2908-6.6668 9.1683-5.7894 0.26534 0.26533-0.50123 0.79463-1.7035 1.1762-1.2022 0.38158-4.0487 2.3188-6.3254 4.3049-4.1119 3.5871-4.1195 3.5892-1.1395 0.30825zm40.579 1.2923c0.048-1.165 0.28494-1.4019 0.60416-0.60417 0.28887 0.72187 0.25335 1.5844-0.0789 1.9167-0.33229 0.33229-0.56864-0.25834-0.52522-1.3125zm353.36 0.1385c1.0676-0.85535 2.3801-1.5552 2.9167-1.5552 1.2705 0 0.70323 0.4619-2.3578 1.9197-2.3573 1.1226-2.3892 1.1018-0.55887-0.36454zm-639.44 0.06727c0-0.20765 0.7875-0.99515 1.75-1.75 1.5861-1.2439 1.6214-1.2085 0.37756 0.37756-1.3064 1.6658-2.1276 2.1955-2.1276 1.3724zm13-0.0521c0-0.275 0.9-0.98167 2-1.5704s2-0.84537 2-0.57037-0.9 0.98167-2 1.5704-2 0.84537-2 0.57037zm677.08-1.1537c0.048-1.165 0.28494-1.4019 0.60416-0.60417 0.28887 0.72187 0.25335 1.5844-0.0789 1.9167-0.33229 0.33229-0.56864-0.25834-0.52522-1.3125zm-730-3c0.048-1.165 0.28494-1.4019 0.60416-0.60417 0.28887 0.72187 0.25335 1.5844-0.0789 1.9167-0.3323 0.33229-0.56864-0.25834-0.52522-1.3125zm45.921-0.91664c1.2918-1.375 2.5736-2.5 2.8486-2.5s-0.55688 1.125-1.8486 2.5-2.5736 2.5-2.8486 2.5 0.55688-1.125 1.8486-2.5zm109.5-0.0261c-2.2-1.355-3.6031-2.466-3.118-2.4688 1.0243-6e-3 7.618 3.9552 7.618 4.5764 0 0.63478-0.19789 0.54209-4.5-2.1076zm29.579 0.94276c0.048-1.165 0.28494-1.4019 0.60416-0.60417 0.28887 0.72187 0.25335 1.5844-0.0789 1.9167-0.33229 0.33229-0.56864-0.25834-0.52522-1.3125zm120.49-0.12354c-0.54268-1.4252-0.42782-1.5401 0.5598-0.5598 0.68342 0.67834 0.99067 1.4852 0.68278 1.7931s-0.86705-0.24711-1.2426-1.2333zm382.25 1.0238c0.72187-0.28887 1.5844-0.25335 1.9167 0.0789 0.33229 0.33229-0.25834 0.56864-1.3125 0.52522-1.165-0.048-1.4019-0.28494-0.60417-0.60416zm7 0c0.72187-0.28887 1.5844-0.25335 1.9167 0.0789 0.33229 0.33229-0.25834 0.56864-1.3125 0.52522-1.165-0.048-1.4019-0.28494-0.60417-0.60416zm-567.81-0.74651c0-0.275 0.9-0.98167 2-1.5704s2-0.84537 2-0.57037-0.9 0.98167-2 1.5704-2 0.84537-2 0.57037zm254-5.0704c2.9874-3.025 5.6567-5.5 5.9317-5.5s-1.9443 2.475-4.9317 5.5-5.6567 5.5-5.9317 5.5 1.9443-2.475 4.9317-5.5zm51 4.7433c0-0.59954-1.6431-3.262-3.6512-5.9167-2.0082-2.6546-2.6687-3.9562-1.4677-2.8924 2.8269 2.5041 6.5249 8.4932 5.733 9.2851-0.33774 0.33773-0.61407 0.12353-0.61407-0.47601zm-369-1.6729c0-0.275 0.9-0.98167 2-1.5704s2-0.84537 2-0.57037-0.9 0.98167-2 1.5704-2 0.84537-2 0.57037zm504.67-1.237c-1.0345-1.0345-0.78532-6.142 0.33333-6.8333 0.60393-0.37325 1 0.98962 1 3.441 0 4.1452-0.16377 4.5619-1.3333 3.3924zm-518.67-1.7109c0-0.20765 0.7875-0.99515 1.75-1.75 1.5861-1.2439 1.6214-1.2085 0.37756 0.37756-1.3064 1.6658-2.1276 2.1955-2.1276 1.3724zm92.269-0.31543c0.97297-0.25354 2.323-0.23687 3 0.0371 0.67703 0.27393-0.11903 0.48137-1.769 0.46099-1.65-0.0204-2.2039-0.2445-1.231-0.49804zm41.044-3.388c-1.1876-2.1682-1.7407-3.6834-1.229-3.3672 1.1091 0.68544 4.21 6.4877 3.726 6.9717-0.18571 0.18571-1.3094-1.4363-2.497-3.6045zm-182.15 1.081c0-1.375 0.22698-1.9375 0.50439-1.25s0.27741 1.8125 0 2.5-0.50439 0.125-0.50439-1.25zm73.839-2.5021c1.9235-2.1988 3.891-4.4479 4.3724-4.9979s0.40883-0.1-0.16117 1c-0.56999 1.1-2.5376 3.3491-4.3724 4.9979l-3.3361 2.9979zm650.49-1.1493c-1.0581-1.9648-3.5054-4.6471-5.4383-5.9605-1.9329-1.3135-3.1419-2.3881-2.6866-2.3881 2.7226 0 11.883 10.086 10.457 11.513-0.22436 0.22436-1.2737-1.1997-2.3318-3.1645zm-596.49 0.15138c1.2918-1.375 2.5736-2.5 2.8486-2.5s-0.55688 1.125-1.8486 2.5-2.5736 2.5-2.8486 2.5 0.55688-1.125 1.8486-2.5zm555 2.1224c0-0.20765 0.7875-0.99515 1.75-1.75 1.5861-1.2439 1.6214-1.2085 0.37756 0.37756-1.3064 1.6658-2.1276 2.1955-2.1276 1.3724zm-704.44-1.9156c0.37553-0.98622 0.93469-1.5412 1.2426-1.2333s6.4e-4 1.1148-0.68278 1.7931c-0.98762 0.98026-1.1025 0.8654-0.5598-0.5598zm632.19 0.63085c0.6875-0.27741 1.8125-0.27741 2.5 0s0.125 0.50439-1.25 0.50439-1.9375-0.22698-1.25-0.50439zm-64.248-3.1738c1.6488-1.8348 3.8979-3.8024 4.9979-4.3724 1.1-0.57 1.55-0.64252 1-0.16117s-2.7991 2.4489-4.9979 4.3724l-3.9979 3.4972zm-154.06-0.60877c1.0676-0.85535 2.3801-1.5552 2.9167-1.5552 1.2705 0 0.70323 0.4619-2.3578 1.9197-2.3573 1.1226-2.3892 1.1018-0.55887-0.36454zm26.559 0.44483c-0.90129-0.58246-1.0246-0.97549-0.30902-0.98469 0.65504-8e-3 1.4691 0.43469 1.809 0.98469 0.7673 1.2415 0.42112 1.2415-1.5 0zm150 0.11054c0-0.9489 4.8865-5.6076 5.2771-5.0312 0.15675 0.23134-0.96647 1.6294-2.496 3.1068-1.5296 1.4774-2.7811 2.3434-2.7811 1.9243zm49-0.0515c0-0.51754 0.44485-1.2159 0.98855-1.5519 0.56686-0.35034 0.7345 0.0511 0.39301 0.94098-0.66479 1.7324-1.3816 2.0494-1.3816 0.61094zm-485.57-0.94994c0.71346-1.1544 4.5674-3.4827 4.5674-2.7593 0 0.23109-1.1804 1.1936-2.6231 2.1389-1.4427 0.9453-2.3177 1.2245-1.9443 0.62038zm44.067-1.6967-3-2.5777 3.25 2.1507c1.7875 1.1829 3.25 2.3451 3.25 2.5826 0 0.74855-0.42347 0.48773-3.5-2.1557zm143 0.0615c-2.2-1.355-3.6031-2.466-3.118-2.4688 1.0243-6e-3 7.618 3.9552 7.618 4.5764 0 0.63478-0.19789 0.54209-4.5-2.1076zm370.5 2.0965c0-0.275 0.9-0.98167 2-1.5704s2-0.84537 2-0.57037-0.9 0.98167-2 1.5704-2 0.84537-2 0.57037zm-286.74-3.288c1.5201-0.22986 3.7701-0.22371 5 0.0136 1.2299 0.23736-0.0137 0.42542-2.7638 0.41792-2.75-8e-3 -3.7563-0.20172-2.2362-0.43157zm-421.18-2.8658c0.048-1.165 0.28494-1.4019 0.60416-0.60417 0.28887 0.72187 0.25335 1.5844-0.0789 1.9167-0.3323 0.33229-0.56864-0.25834-0.52522-1.3125zm187.92 0.08335c-1.375-0.78602-2.0235-1.4451-1.4411-1.4646 0.58238-0.0195 1.9324 0.62525 3 1.4328 2.469 1.8674 1.6804 1.8835-1.5589 0.0318zm132.81 0.81689c0.72187-0.28887 1.5844-0.25335 1.9167 0.0789 0.33229 0.33229-0.25834 0.56864-1.3125 0.52522-1.165-0.048-1.4019-0.28494-0.60417-0.60416zm10 0c0.72187-0.28887 1.5844-0.25335 1.9167 0.0789 0.33229 0.33229-0.25834 0.56864-1.3125 0.52522-1.165-0.048-1.4019-0.28494-0.60417-0.60416zm306.19-0.24901c0-0.696-1.4625-2.6408-3.25-4.3217-2.2692-2.1339-2.571-2.697-1-1.866 2.5948 1.3726 5.824 5.8791 4.8855 6.8177-0.3495 0.34951-0.63546 0.066-0.63546-0.62999zm88.269-1.7609c0.97297-0.25354 2.323-0.23687 3 0.0371 0.67703 0.27393-0.11903 0.48137-1.769 0.46099-1.65-0.0204-2.2039-0.2445-1.231-0.49804zm-555.52-1.9693c0.6875-0.27741 1.8125-0.27741 2.5 0s0.125 0.50439-1.25 0.50439-1.9375-0.22698-1.25-0.50439zm8 0c0.6875-0.27741 1.8125-0.27741 2.5 0s0.125 0.50439-1.25 0.50439-1.9375-0.22698-1.25-0.50439zm-101.67-1.921c0.048-1.165 0.28494-1.4019 0.60416-0.60417 0.28887 0.72187 0.25335 1.5844-0.0789 1.9167-0.3323 0.33229-0.56864-0.25834-0.52522-1.3125zm24-1c0.048-1.165 0.28494-1.4019 0.60416-0.60417 0.28887 0.72187 0.25335 1.5844-0.0789 1.9167-0.3323 0.33229-0.56864-0.25834-0.52522-1.3125zm497.73-1.0998c0.72187-0.28887 1.5844-0.25335 1.9167 0.0789 0.33229 0.33229-0.25834 0.56864-1.3125 0.52522-1.165-0.048-1.4019-0.28494-0.60417-0.60416zm5-1c0.72187-0.28887 1.5844-0.25335 1.9167 0.0789 0.33229 0.33229-0.25834 0.56864-1.3125 0.52522-1.165-0.048-1.4019-0.28494-0.60417-0.60416zm8.4375-1.0454c2.0625-0.21574 5.4375-0.21574 7.5 0 2.0625 0.21575 0.375 0.39226-3.75 0.39226s-5.8125-0.17651-3.75-0.39226zm-510.17-4.8549c0.048-1.165 0.28494-1.4019 0.60416-0.60417 0.28887 0.72187 0.25335 1.5844-0.0789 1.9167-0.3323 0.33229-0.56864-0.25834-0.52522-1.3125zm-25-5c0.048-1.165 0.28494-1.4019 0.60416-0.60417 0.28887 0.72187 0.25335 1.5844-0.0789 1.9167-0.3323 0.33229-0.56864-0.25834-0.52522-1.3125zm24-3c0.048-1.165 0.28494-1.4019 0.60416-0.60417 0.28887 0.72187 0.25335 1.5844-0.0789 1.9167-0.3323 0.33229-0.56864-0.25834-0.52522-1.3125zm-67.884-6.9167c0.0204-1.65 0.2445-2.2039 0.49804-1.231s0.23687 2.323-0.0371 3c-0.27393 0.67703-0.48137-0.11903-0.46099-1.769zm-121.62-0.0714c-2.3789-2.3789-1.8806-2.9988 0.67857-0.84421 1.2375 1.0419 2.4375 2.0116 2.6667 2.155 0.22917 0.14333-0.076191 0.26063-0.67857 0.26063s-1.8024-0.70714-2.6667-1.5714zm160.94-1.0517c-0.9453-1.4427-1.2245-2.3177-0.62038-1.9443 1.1544 0.71346 3.4827 4.5674 2.7593 4.5674-0.23109 0-1.1936-1.1804-2.1389-2.6231zm-152-3.2021c2.3567-2.5711 5.7266-6.2498 7.4887-8.1748 1.7621-1.925 0.42724-0.049-2.9664 4.1689-3.3937 4.2179-6.7636 7.8966-7.4887 8.1748-0.72514 0.27826 0.60975-1.5977 2.9664-4.1689zm92.989 1.9891c1.6488-1.8348 3.8979-3.8024 4.9979-4.3724 1.1-0.57 1.55-0.64252 1-0.16117s-2.7991 2.4489-4.9979 4.3724l-3.9979 3.4972zm84.062-0.87081c-0.54268-1.4252-0.42782-1.5401 0.5598-0.5598 0.68342 0.67834 0.99067 1.4852 0.68278 1.7931s-0.86705-0.24711-1.2426-1.2333zm-67.312-2.8938c-1.2364-1.4105-1.7249-2.3902-1.0856-2.1771 1.0775 0.35917 4.5348 4.8 3.7055 4.7598-0.20458-0.01-1.3836-1.1721-2.6199-2.5826zm35.748-2.8993c-2.429-2.475-4.1914-4.5-3.9164-4.5s2.4874 2.025 4.9164 4.5 4.1914 4.5 3.9164 4.5-2.4874-2.025-4.9164-4.5zm24.5-2.9019c-3.3-3.4076-7.575-7.4537-9.5-8.9915l-3.5-2.7959 4 2.7437c4.7599 3.2649 13.259 11.232 14.61 13.696 1.367 2.4918 1.0671 2.2432-5.6104-4.6519zm-180.5 3.9609c0-0.79254 0.40803-1.6932 0.90674-2.0014 0.49871-0.30822 0.67122 0.34022 0.38337 1.441-0.61061 2.335-1.2901 2.6302-1.2901 0.5604zm4-5.8573c2.7095-2.8081 13.72-9.713 15.441-9.6836 0.58236 0.01-1.4162 1.379-4.4412 3.0424s-7.3 4.421-9.5 6.1282c-3.2719 2.539-3.5449 2.6323-1.5 0.51299zm143.92-2.4517-2.4243-2.75 2.75 2.4243c2.5703 2.2659 3.2086 3.0757 2.4243 3.0757-0.17912 0-1.4166-1.2375-2.75-2.75zm-125.97-1.6947c0.77013-0.92794 2.783-2.3897 4.4731-3.2484 3.8112-1.9364 3.203-1.2238-1.9263 2.2571-2.1708 1.4732-3.3169 1.9193-2.5468 0.99133zm119.77-2.6863c-1.5245-1.1372-5.1245-3.3648-8-4.9502-2.8755-1.5854-4.7517-2.8907-4.1693-2.9007 1.2953-0.0222 12.379 6.5506 14.405 8.5425 2.0957 2.0601 0.99729 1.7203-2.2361-0.69161zm-110.73-2.869c0.825-0.53316 1.95-0.96937 2.5-0.96937s0.325 0.43621-0.5 0.96937-1.95 0.96937-2.5 0.96937-0.325-0.43621 0.5-0.96937zm132.2-2.4291c-4.6449-3.2843-5.2986-4.223-1.3764-1.9764 1.8298 1.048 3.7974 2.468 4.3724 3.1555 1.4779 1.7668 0.78428 1.4939-2.996-1.1791zm-139.2 0.42907c0.825-0.53316 1.95-0.96937 2.5-0.96937s0.325 0.43621-0.5 0.96937-1.95 0.96937-2.5 0.96937-0.325-0.43621 0.5-0.96937zm5-2c0.825-0.53316 1.95-0.96937 2.5-0.96937s0.325 0.43621-0.5 0.96937-1.95 0.96937-2.5 0.96937-0.325-0.43621 0.5-0.96937zm5-2c0.825-0.53316 1.95-0.96937 2.5-0.96937s0.325 0.43621-0.5 0.96937-1.95 0.96937-2.5 0.96937-0.325-0.43621 0.5-0.96937zm87.812-0.68311c0.72187-0.28887 1.5844-0.25335 1.9167 0.0789 0.33229 0.33229-0.25834 0.56864-1.3125 0.52522-1.165-0.048-1.4019-0.28494-0.60417-0.60416zm30.188-2.3169c-3.025-1.5981-5.1475-2.9269-4.7168-2.9528 1.0628-0.064 10.717 4.8632 10.717 5.4697 0 0.66804 0.1387 0.72622-6-2.5168zm-113 1c0.825-0.53316 1.95-0.96937 2.5-0.96937s0.325 0.43621-0.5 0.96937-1.95 0.96937-2.5 0.96937-0.325-0.43621 0.5-0.96937zm78.812 0.31689c0.72187-0.28887 1.5844-0.25335 1.9167 0.0789 0.33229 0.33229-0.25834 0.56864-1.3125 0.52522-1.165-0.048-1.4019-0.28494-0.60417-0.60416zm-60-1c0.72187-0.28887 1.5844-0.25335 1.9167 0.0789 0.33229 0.33229-0.25834 0.56864-1.3125 0.52522-1.1649-0.048-1.4019-0.28494-0.60417-0.60416zm51-1c0.72187-0.28887 1.5844-0.25335 1.9167 0.0789 0.33229 0.33229-0.25834 0.56864-1.3125 0.52522-1.165-0.048-1.4019-0.28494-0.60417-0.60416zm-9-2c0.72187-0.28887 1.5844-0.25335 1.9167 0.0789 0.33229 0.33229-0.25834 0.56864-1.3125 0.52522-1.165-0.048-1.4019-0.28494-0.60417-0.60416zm-4-1c0.72187-0.28887 1.5844-0.25335 1.9167 0.0789 0.33229 0.33229-0.25834 0.56864-1.3125 0.52522-1.165-0.048-1.4019-0.28494-0.60417-0.60416zm47.188-0.31689c-0.825-0.53316-1.05-0.96937-0.5-0.96937s1.675 0.43621 2.5 0.96937 1.05 0.96937 0.5 0.96937-1.675-0.43621-2.5-0.96937zm-63.72-0.73627c2.6291-0.20668 6.6791-0.20418 9 6e-3 2.3209 0.20972 0.16983 0.37882-4.7802 0.37577-4.95-3e-3 -6.8489-0.17464-4.2198-0.38131zm-22.468-0.94684c0.72188-0.28887 1.5844-0.25335 1.9167 0.0789 0.33229 0.33229-0.25834 0.56864-1.3125 0.52522-1.1649-0.048-1.4019-0.28494-0.60417-0.60416zm81 0c0.72187-0.28887 1.5844-0.25335 1.9167 0.0789 0.33229 0.33229-0.25834 0.56864-1.3125 0.52522-1.165-0.048-1.4019-0.28494-0.60417-0.60416zm-76.062-0.97917c0.6875-0.27741 1.8125-0.27741 2.5 0s0.125 0.50439-1.25 0.50439-1.9375-0.22698-1.25-0.50439zm71.062-0.0208c0.72187-0.28887 1.5844-0.25335 1.9167 0.0789 0.33229 0.33229-0.25834 0.56864-1.3125 0.52522-1.165-0.048-1.4019-0.28494-0.60417-0.60416zm-65-1c0.72187-0.28887 1.5844-0.25335 1.9167 0.0789 0.33229 0.33229-0.25834 0.56864-1.3125 0.52522-1.165-0.048-1.4019-0.28494-0.60417-0.60416zm61 0c0.72187-0.28887 1.5844-0.25335 1.9167 0.0789 0.33229 0.33229-0.25834 0.56864-1.3125 0.52522-1.165-0.048-1.4019-0.28494-0.60417-0.60416zm-56.062-0.9792c0.6875-0.27741 1.8125-0.27741 2.5 0s0.125 0.50439-1.25 0.50439-1.9375-0.22698-1.25-0.50439zm51.062-0.0208c0.72187-0.28887 1.5844-0.25335 1.9167 0.0789 0.33229 0.33229-0.25834 0.56864-1.3125 0.52522-1.165-0.048-1.4019-0.28494-0.60417-0.60416zm-45-1c0.72187-0.28887 1.5844-0.25335 1.9167 0.0789 0.33229 0.33229-0.25834 0.56864-1.3125 0.52522-1.165-0.048-1.4019-0.28494-0.60417-0.60416zm4.9375-0.97917c0.6875-0.27741 1.8125-0.27741 2.5 0s0.125 0.50439-1.25 0.50439-1.9375-0.22698-1.25-0.50439zm31.062-0.0208c0.72187-0.28887 1.5844-0.25335 1.9167 0.0789 0.33229 0.33229-0.25834 0.56864-1.3125 0.52522-1.165-0.048-1.4019-0.28494-0.60417-0.60416z" fill="#6b6099"/>
  <path d="m394.12 518.96c-14.386-3.7676-32.637-15.463-40.955-26.245-9.646-12.503-10.456-25.917-3.0332-50.212 3.9192-12.827 8.6566-21.819 15.451-29.327 2.98-3.293 5.4182-6.4067 5.4182-6.9193 0-1.3424 6.6852-7.2349 7.3987-6.5213 0.32924 0.32925 3.6367-2.3234 7.35-5.8946 3.7132-3.5713 9.7001-8.1348 13.304-10.141 10.928-6.0835 25.827-8.8713 21.859-4.0902-0.7223 0.87032-7.8605 4.8746-15.863 8.8983-9.886 4.971-16.301 8.9234-20.015 12.331-3.0063 2.7584-5.7475 4.8414-6.0916 4.6288-1.8294-1.1306-11.582 12.258-15.956 21.906-8.7065 19.202-8.0046 42.605 1.6746 55.833 5.9822 8.1758 22.235 19.075 36.339 24.37 6.6485 2.496 8.8624 2.8219 19.5 2.8708 10.78 0.0495 12.454-0.18672 16.462-2.3234 12.159-6.4814 21.772-22.042 26.64-43.121 2.2147-9.5907 3.0377-44.617 1.323-56.308-0.74152-5.0555-1.2402-9.7243-1.1082-10.375 0.13202-0.65079-0.91139-6.2758-2.3187-12.5s-4.089-19.491-5.9592-29.482c-3.5341-18.88-5.0561-23.33-8.8099-25.757-4.0135-2.5957-7.0559-2.7175-13.729-0.54972-19.358 6.2884-27.5 2.1056-27.5-14.128 0-11.667 3.443-17.277 20.667-33.678 16.312-15.532 23.408-19.73 33.312-19.707 4.9696 0.0119 7.0213 0.59007 11.749 3.3108 7.6633 4.4101 8.8833 7.965 6.3265 18.435-3.3334 13.65-3.2333 21.826 0.43859 35.828 5.1674 19.705 5.8147 23.427 9.0715 52.161 1.6942 14.947 3.2634 27.473 3.4872 27.835 1.0902 1.7639-2.8299 35.154-5.6357 48.003-4.468 20.462-10.469 32.828-23.111 47.622-18.106 21.189-42.957 29.725-67.687 23.248zm56.53-215.04c9.0656-8.3216 11.255-20.847 4.274-24.457-5.8674-3.0341-12.842-1.4123-18.064 4.2008-2.5589 2.7502-6.8582 10.706-6.8582 12.691 0 2.3884 3.5035 8.5798 5.4057 9.553 3.6486 1.8666 12.269 0.74255 15.243-1.9877zm-180.26 77.101c-17.233-2.4435-27.064-8.3646-31-18.672-3.4549-9.0465 0.17069-33.958 7.4711-51.333 4.1149-9.7936 10.37-18.323 22.096-30.132 16.043-16.156 26.973-22.286 39.545-22.179 17.142 0.14608 31.474 15.715 26.503 28.789-1.6447 4.3258-10.792 13.246-23.257 22.68-11.002 8.3267-12.647 9.2105-25.709 13.815-21.164 7.4608-23.605 9.1647-23.445 16.368 0.19281 8.6663 7.0161 16.463 17.322 19.794 5.2292 1.69 9.9371 2.2271 22.856 2.6074 19.323 0.56877 32.943-0.7012 51.689-4.8198 14.648-3.2181 21.82-3.5126 22.311-0.91614 0.36144 1.9098-7.975 7.0418-16.771 10.324-8.1119 3.0271-38.356 10.153-51.578 12.153-12.746 1.9275-30.232 2.6265-38.034 1.5203zm27.998-72.434c9.1229-2.7456 15.603-9.7889 15.61-16.966 9e-3 -8.917-7.9373-14.86-20.016-14.971-13.206-0.12093-22.925 7.6554-22.964 18.375-0.0402 11.036 13.489 17.74 27.37 13.562zm203.38 72.193c-4.6631-1.208-9.3109-6.3602-10.838-12.014-2.4589-9.1046 1.0173-24.297 10.202-44.588 7.2817-16.087 11.88-23.67 21.936-36.175 14.233-17.699 22.036-22.972 34.019-22.99 5.3618-8e-3 7.731 0.56026 12.71 3.0483 10.765 5.3794 14.918 12.322 16.348 27.333 1.4896 15.636 3.4168 25.702 5.9614 31.138 3.0959 6.6134 10.058 13.425 17.403 17.028 5.941 2.9137 6.1648 2.9414 28.987 3.5829 23.029 0.64736 28.77 1.5145 29.923 4.52 1.5373 4.0062-7.619 12.439-18.568 17.1-6.2676 2.6683-6.7109 2.7104-32.122 3.0476-36.082 0.4788-38.561-0.54605-46.704-19.308-6.1511-14.173-6.4139-14.5-11.642-14.5-5.7989 0-9.7195 3.5618-21.982 19.97-9.5735 12.811-14.64 17.52-22.47 20.883-6.165 2.6481-8.8534 3.041-13.166 1.9239zm31.174-29.988c7.2867-3.758 15.596-11.413 19.337-17.814 7.5142-12.857 7.059-30.934-0.96169-38.187-2.6531-2.3992-8.7354-4.7964-12.038-4.7442-3.5475 0.056-10.651 2.564-11.103 3.9201-0.18993 0.56981-0.78689 1.036-1.3266 1.036-2.7308 0-11.168 12.592-13.309 19.862-0.91309 3.1007-2.0838 6.419-2.6015 7.374s-0.94138 5.933-0.94138 11.062c0 19.214 7.911 25.244 22.945 17.491zm192.17 29.985c-6.629-0.67087-16.824-4.1128-37.741-12.742-3.3949-1.4006-8.996-6.7478-12.312-11.754-3.6089-5.4484-4.0885-10.659-1.127-12.244 4.8197-2.5794 10.85-0.51583 32.21 11.022 23.463 12.674 39.897 16.972 45.995 12.03 3.3653-2.7274 3.1894-10.544-0.41375-18.392-3.4641-7.5448-10.951-15.291-33.225-34.379-19.416-16.638-22.468-20.054-24.987-27.973-2.0406-6.4142-0.89311-11.702 3.6661-16.895 4.6625-5.3103 9.973-7.9017 24.821-12.112 12.246-3.4726 14.614-3.8286 25.5-3.8324 13.636-5e-3 18.305 1.4893 21.614 6.9158 2.458 4.0309 2.3845 4.8085-0.75068 7.9437-3.6307 3.6307-7.0521 3.4161-21.744-1.3636-14.659-4.769-21.13-5.2151-24.446-1.6856-1.1959 1.273-2.1743 3.0464-2.1743 3.941 0 0.8946-0.45 1.9046-1 2.2446-1.2432 0.76834-1.3022 4.9424-0.10266 7.2636 0.49354 0.95504 1.672 3.616 2.6189 5.9132 2.1737 5.2738 4.6994 7.6211 16.449 15.287 11.963 7.805 37.955 33.726 41.65 41.537 2.74 5.7915 3.1686 14.084 0.9498 18.375-4.7906 9.264-24.098 19.151-40.794 20.89-3.9987 0.41647-10.594 0.42083-14.657 0.01zm88.23 0.18141c-12.314-2.4282-21.467-12.254-25.24-27.094-3.9119-15.387-3.5946-30.13 0.90726-42.162 3.5828-9.5758 7.6891-13.739 24.758-25.1 8.6522-5.759 19.703-13.175 24.557-16.48 14.327-9.7546 23.163-11.371 31.61-5.7808 5.1018 3.3762 9.0674 11.535 13.202 27.161 2.6721 10.1 3.1898 13.9 3.2688 24 0.0868 11.099-0.11208 12.44-2.6503 17.858-4.4437 9.4862-8.8468 14.57-22.671 26.176-14.134 11.866-21.243 16.368-30.584 19.372-7.9043 2.5413-12.115 3.0445-17.156 2.0503zm35.493-24.398c8.5004-2.9991 15.745-11.043 18.598-20.651 3.2275-10.868 1.3026-29.06-4.1817-39.523-8.735-16.664-24.572-19.17-38.825-6.1443-9.2955 8.4956-13.393 17.903-13.417 30.801-0.0218 12 5.7308 26.783 11.988 30.806 1.375 0.88411 2.7395 1.9359 3.0323 2.3373 2.5697 3.5234 15.679 4.888 22.805 2.3739zm-753.28 22.22c-3.7692-5.3813-1.2189-16.231 8.0852-34.398 7.6086-14.856 10.358-24.354 10.358-35.78 0-9.0407 2.609-16.325 9.883-27.595 7.9427-12.305 8.1898-12.886 12.058-28.334 1.629-6.5059 4.0915-13.757 5.4723-16.113 4.156-7.0917 11.425-12.558 16.7-12.558 2.7259 0 6.8872 4.7408 6.8872 7.8464 0 1.4049-3.1968 11.34-7.104 22.078-6.3982 17.584-7.0624 20.099-6.6852 25.313 0.76439 10.568 6.5719 15.154 18.344 14.487 16.88-0.95606 33.375-14.044 38.463-30.518 2.691-8.7123 2.6361-19.384-0.13777-26.798-2.4288-6.4915-11.141-15.992-21.88-23.858-9.7133-7.1152-12.569-8.2797-31.307-12.764-14.707-3.52-18.856-4.1272-28.693-4.1991-11.477-0.0838-11.54-0.0712-31.5 6.3058-11 3.5144-22.025 7.4067-24.5 8.6496-3.0932 1.5534-6.7936 5.0659-11.837 11.236-4.0352 4.9369-8.4383 9.5657-9.7847 10.286-2.1643 1.1583-2.6957 1.0624-4.5863-0.82824-1.9429-1.9429-2.0289-2.5036-0.94098-6.1348 2.1772-7.2669 9.5234-11.806 37.149-22.955 15.547-6.2741 19.398-7.4021 34.501-10.105 23.691-4.2392 34.238-4.1642 55.053 0.39156 17.912 3.9202 27.154 7.8582 39.945 17.019 15.006 10.748 20.872 18.091 23.512 29.437 1.5781 6.7811 0.74525 17.616-1.7932 23.328-3.8881 8.7498-7.8361 11.94-32.251 26.059-11.479 6.6383-11.612 6.6847-29.219 10.16-9.7283 1.9202-19.389 4.368-21.468 5.4395-6.976 3.595-9.5272 7.6208-18.773 29.624-4.8535 11.55-10.053 23.476-11.555 26.502-5.3515 10.783-14.638 20.998-19.09 20.998-0.96196 0-2.4495-1.0001-3.3057-2.2225z" fill="#3a2c77"/>
  <path d="m520 435.5v-14.5h-6.5c-5.8333 0-6.5-0.20513-6.5-2 0-1.914 0.66667-2 15.5-2s15.5 0.086 15.5 2c0 1.7949-0.66667 2-6.5 2h-6.5v29h-5zm23-1.3834c0-18.014-0.49134-17.08 9-17.097 6.5372-0.0117 11.62 1.682 13.955 4.6501 2.8991 3.6856 2.5519 6.117-1.407 9.8506-3.361 3.1698-3.4022 3.3016-1.5568 4.9716 1.0426 0.94354 2.8012 4.3969 3.9079 7.6741l2.0122 5.9586-2.6095-0.31212c-2.1893-0.26186-2.8951-1.1914-4.3833-5.7728-2.1256-6.5438-3.9132-8.0393-9.6092-8.0393h-4.3089v7c0 6.8-0.0714 7-2.5 7h-2.5zm17.984-3.6026c4.9392-4.47 0.27177-10.514-8.1194-10.514h-4.8651v13.248l5.4845-0.45482c3.378-0.28013 6.2586-1.1554 7.5-2.2788zm12.016 18.743c0-0.40871 3.0362-7.8539 6.7471-16.545 6.5761-15.401 6.8186-15.794 9.571-15.507 2.6172 0.27334 3.2799 1.3563 9.0536 14.795 8.4658 19.705 7.9805 18 5.1248 18-1.9755 0-2.8508-0.95316-4.5918-5l-2.1509-5h-15.357l-2.1124 5c-1.5746 3.727-2.6436 5-4.1985 5-1.1473 0-2.086-0.3344-2.086-0.74311zm22.014-13.007c0.0231-1.2797-5.4844-15.225-6.0135-15.227-0.49323-2e-3 -6 14.065-6 15.327 0 0.9154 11.997 0.81571 12.014-0.0998zm19.998-1.4626c-3.4304-8.3669-6.4594-15.792-6.7312-16.5-0.3226-0.8407 0.38326-1.2874 2.0342-1.2874 2.3134 0 2.9488 1.0835 7.4766 12.75 2.7216 7.0125 5.2557 13.636 5.6313 14.719 0.53002 1.5279 1.4234 0.18464 3.9903-6 9.2829-22.366 8.8122-21.469 11.265-21.469 1.2774 0 2.3225 0.22396 2.3225 0.49769s-3.2049 7.6987-7.122 16.5c-6.7078 15.072-7.2821 16.002-9.8758 16.002-2.6112 0-3.0771-0.78843-8.991-15.213zm30.989-1.2874v-16.5h10.5c9.8333 0 10.5 0.12698 10.5 2 0 1.8431-0.66667 2-8.5 2h-8.5v10h8c7.3333 0 8 0.16667 8 2s-0.66667 2-8 2h-8v12h9c7.3333 0 9 0.27778 9 1.5 0 1.2424-1.8889 1.5-11 1.5h-11zm30 0v-16.5h5v30h8.5c6.8889 0 8.5 0.28431 8.5 1.5 0 1.2424-1.8889 1.5-11 1.5h-11zm46.567 13.25c0.55352-4.0771 2.425-25.645 2.4296-28 3e-3 -1.3097 0.82109-1.7467 3.2534-1.7368 3.2055 0.0131 3.3218 0.18238 8.5 12.373 2.8875 6.7979 5.25 12.867 5.25 13.487s0.45 1.127 1 1.127 1-0.45631 1-1.014c0-0.55771 2.55-6.6556 5.6667-13.551 5.5913-12.37 5.7078-12.533 8.75-12.236l3.0833 0.30092 0.65988 9c0.36293 4.95 0.94419 12.262 1.2917 16.25 0.62368 7.1566 0.60099 7.25-1.7617 7.25-2.2793 0-2.4241-0.39345-3.0357-8.25-0.35322-4.5375-0.64492-10.838-0.64822-14-0.00329-3.1627-0.45596-5.75-1.006-5.75-0.55 0-1 0.44364-1 0.98587s-2.5745 6.8422-5.7211 14c-4.3345 9.86-6.1646 13.014-7.551 13.014-1.9518 0-2.2025-0.48375-9.2751-17.896l-4.2226-10.396-0.58629 5.8956c-0.32246 3.2426-0.87108 9.6081-1.2192 14.146-0.59797 7.7951-0.76153 8.25-2.9659 8.25-2.056 0-2.2806-0.38594-1.8918-3.25zm49.357-1.5c1.0424-2.6125 4.1154-9.925 6.8289-16.25 4.5604-10.63 5.1535-11.522 7.8402-11.789 2.8536-0.28402 3.0195-0.0201 9.1128 14.5 8.4016 20.021 7.9188 18.289 5.0992 18.289-1.9419 0-2.8178-0.96869-4.521-5l-2.1124-5h-15.283l-2.0779 5c-1.6598 3.9939-2.5512 5-4.43 5h-2.3521zm21.076-8.6453c0-0.44391-6.0976-14.961-6.4521-15.361-0.12489-0.14093-1.5368 3.0025-3.1375 6.9854s-3.0604 7.5857-3.2438 8.0062c-0.18334 0.4205 2.6292 0.76454 6.25 0.76454 3.6208 0 6.5833-0.17788 6.5833-0.39529zm17-3.1047v-16.5h2.7708c2.3564 0 4.1509 1.7821 11.999 11.916 5.0756 6.5539 9.5019 12.629 9.8362 13.5 1.5912 4.1465 2.0968 0.4395 1.6253-11.916l-0.51514-13.5h5.2836v33.133l-2.7253-0.31642c-2.1335-0.24771-4.5765-2.712-11.25-11.348-4.6886-6.0674-9.2886-12.142-10.222-13.5-1.635-2.3776-1.6995-1.9622-1.75 11.282l-0.05245 13.75h-5zm38 16.209c0-0.16003 3.0849-7.4725 6.8553-16.25 6.453-15.023 7.0251-15.976 9.75-16.248 2.8386-0.28367 3.0151-2e-3 9.101 14.5 8.4016 20.021 7.9188 18.289 5.0992 18.289-1.9419 0-2.8178-0.96869-4.521-5l-2.1124-5h-15.283l-2.0779 5c-1.6649 4.0062-2.5483 5-4.4446 5-1.3017 0-2.3667-0.13094-2.3667-0.29097zm23-13.104c0-0.44391-6.0976-14.961-6.4521-15.361-0.12489-0.14093-1.5368 3.0025-3.1375 6.9854s-3.0604 7.5857-3.2438 8.0062c-0.18334 0.4205 2.6292 0.76454 6.25 0.76454 3.6208 0 6.5833-0.17788 6.5833-0.39529zm24.02 11.145c-5.715-2.9202-8.2-6.4605-8.7216-12.426-1.0312-11.792 10.684-19.807 26.132-17.876 7.421 0.9272 7.1155 3.1937-0.36701 2.7223-12.41-0.78184-20.01 3.8058-20.762 12.533-0.80948 9.3934 5.0779 14.297 17.166 14.297h6.5321v-11h-4.5c-3.3333 0-4.5-0.38889-4.5-1.5 0-1.1795 1.3889-1.5 6.5-1.5h6.5v7.8834c0 9.2278 0.19432 9.0808-12.038 9.103-5.8648 0.0106-8.5156-0.4858-11.941-2.2364zm32.98-14.25v-16.5h11c10.333 0 11 0.12121 11 2 0 1.8431-0.66667 2-8.5 2h-8.5v10h8c7.3333 0 8 0.16667 8 2s-0.66667 2-8 2h-8v12h9c7.3333 0 9 0.27778 9 1.5 0 1.2464-1.9444 1.5-11.5 1.5h-11.5zm30 0.56127v-15.939l4.578-0.68651c5.6175-0.84239 12.467 0.019 16.425 2.0654 5.3161 2.7491 5.2624 10.276-0.0932 13.045l-3.0614 1.5831 2.5074 2.3238c1.3791 1.2781 3.0132 4.202 3.6313 6.4976 0.61814 2.2956 1.3721 4.8206 1.6755 5.6112 0.38816 1.0115-0.18236 1.4374-1.9254 1.4374-2.0862 0-2.6779-0.71742-3.7502-4.5471-2.0651-7.376-4.2753-9.4529-10.059-9.4529h-4.9274v7c0 6.8-0.0714 7-2.5 7h-2.5zm17.05-2.587c2.3769-1.2291 2.9503-2.1772 2.9503-4.8776 0-4.4763-2.0148-5.8979-9.0841-6.4092l-5.9159-0.42791v13.24h4.5497c2.5023 0 5.8773-0.68656 7.5-1.5257zm-955.05-28.974v-3.5h178.5c98.175 0 178.5 0.23134 178.5 0.5141 0 0.28275-1.4625 1.8446-3.25 3.4707l-3.25 2.9566-350.5 0.05863zm363.43-0.0533 3.9302-3.4701 76.14 0.52338 0.62672 6.5-84.627-0.0832 3.9302-3.4701zm107.57 0.0533v-3.5h502v7h-502z" fill="#030303"/>
 </g>
</svg>
