<?xml version="1.0" encoding="UTF-8"?>
<!-- Created with Inkscape (http://www.inkscape.org/) -->
<svg width="210mm" height="297mm" version="1.1" viewBox="0 0 210 297" xml:space="preserve" xmlns="http://www.w3.org/2000/svg"><g transform="translate(11.405 -5.7418)" stroke-width=".26458"><path d="m31.216 106.29-8.0036-0.07-1.56e-4 -2.5758-1.57e-4 -2.5758 15.317 0.1478-0.3824 1.0838c-0.54502 1.5448-0.48639 1.9388 0.44656 3.0014 0.45593 0.51927 0.78335 0.9699 0.7276 1.0014-0.05575 0.0315-3.703 0.0258-8.105-0.0128zm10.517-0.0701c0.3638-0.15722 1.0462-0.65768 1.5164-1.1121l0.85493-0.82628-0.2551 0.88947c-0.1403 0.4892-0.20218 0.94237-0.13751 1.007 0.28717 0.28717 1.3861-1.3842 1.9967-3.0368l0.66811-1.8082 10.048-0.0665c9.8961-0.0655 13.476-0.32744 8.0921-0.59209l-2.7491-0.13514 0.86599-0.84509c0.81074-0.79118 0.85745-0.93394 0.73217-2.2378-0.0736-0.76598-0.28124-1.4418-0.46142-1.5019-0.18018-0.06006-0.57394-0.39252-0.87502-0.73879-0.67538-0.77676-1.0532-0.78634-2.2728-0.05762-1.4354 0.85764-2.1479 1.5762-2.1479 2.1661 0 0.50033-0.03717 0.49425-0.68196-0.1115l-0.68196-0.64067 0.81425-0.33225c0.87551-0.35724 1.0937-0.8599 0.37328-0.8599-0.24253 0-0.36263-0.07834-0.26688-0.17409 0.09575-0.09575 0.04148-0.33388-0.12059-0.52917-0.37034-0.44623-2.0024-0.45407-2.8757-0.01382-1.0842 0.54657-0.94943 1.2451 0.51939 2.6918 1.535 1.5119 1.719 2.0678 0.57582 1.74-0.41628-0.11939-1.0385-0.36777-1.3826-0.55196-0.34416-0.18419-1.3133-0.31008-2.1535-0.27976-1.4709 0.05308-1.5278 0.0303-1.5278-0.61125 0-0.4005-0.39154-1.0922-0.9813-1.7337-1.1551-1.2563-2.1918-1.4096-3.1906-0.47196-0.41025 0.38513-0.11268-0.28732 0.84284-1.9046 0.81234-1.375 1.477-2.6003 1.477-2.723 0-0.1227 0.23812-0.47868 0.52917-0.79108 0.66844-0.71749 0.75286-1.5124 0.10337-0.97338-0.5498 0.45629-2.3507 3.1689-3.1466 4.7396-0.65733 1.2972-1.6421 2.3943-1.2794 1.4254 0.10303-0.27524 0.64154-1.2467 1.1967-2.1588 0.55514-0.91207 1.0094-1.7215 1.0094-1.7986 0-0.07719 0.4292-0.81923 0.95378-1.649 1.0272-1.6247 2.2184-2.9862 3.2869-3.7567l0.66876-0.48227-0.10291 1.8943c-0.0566 1.0419-0.21076 2.0281-0.34259 2.1915-0.13183 0.16346-0.16949 0.48013-0.08369 0.70372 0.17597 0.45856-0.42882 1.7718-1.0555 2.2919-0.56293 0.46719-0.52106 0.80823 0.09923 0.80823 0.84348 0 0.89673 0.49698 0.15712 1.4666-0.84072 1.1022-0.36702 1.2218 0.7406 0.187l0.77877-0.7276-0.17539 0.92604-0.17539 0.92604 0.73016-0.72977c0.62985-0.62951 0.68525-0.80167 0.40328-1.2532-0.4338-0.69463-0.41377-1.452 0.04856-1.8357 0.34691-0.28791 0.70585-2.0198 1.0569-5.0995 0.15131-1.3276-0.13822-1.7933-0.78242-1.2587-0.50749 0.42118-0.49232-0.0037 0.02659-0.7445 0.32949-0.47041 0.33988-0.58804 0.05195-0.58804-0.83922 0-3.144 1.4406-4.3527 2.7206-1.1762 1.2457-1.9249 2.388-4.1494 6.3311-0.45365 0.80413-0.83376 1.1964-1.0711 1.1053-0.51358-0.19708-1.8477 0.54213-2.5192 1.3958-0.39795 0.50591-0.51652 0.92639-0.40475 1.4353 0.17446 0.7943-0.09805 1.0741-1.1595 1.1906-0.37163 0.0408-1.2462 0.15264-1.9435 0.24854-1.5492 0.21308-1.6239-0.10686-0.2104-0.90131 1.4236-0.80013 1.6158-1.6226 0.62446-2.6729-0.95113-1.0077-1.9767-1.0406-3.2063-0.10265-1.5691 1.1968-2.1548 3.5278-1.1214 4.463 0.29104 0.26339 0.52917 0.5795 0.52917 0.70246 0 0.12297-1.1906 0.22358-2.6458 0.22358-1.4552 0-2.6458-0.0709-2.6458-0.15762 0-0.27417 0.90221-1.7969 1.5354-2.5914 0.33517-0.42056 0.55384-0.90944 0.48594-1.0864-0.06791-0.17696 0.26437-0.5067 0.73839-0.73274l0.86186-0.41099-0.12938 0.67682c-0.14358 0.75107 0.12803 0.68768 1.2041-0.28106 0.87537-0.78805 0.73354-1.5277-0.54978-2.867-1.6618-1.7343-3.6065-2.1776-6.1889-1.4107-1.565 0.46477-2.627 1.226-2.3455 1.6813 0.13792 0.22315 0.42086 0.12356 0.97593-0.3435 0.97126-0.81727 2.3293-1.0885 3.9148-0.78187 0.96214 0.18606 1.217 0.34616 1.217 0.76451 0 0.35266 0.1765 0.52928 0.52917 0.52952 0.81851 5.29e-4 0.72273 1.4018-0.13229 1.9354-0.46953 0.29304-0.56549 0.30624-0.33073 0.0455 0.4519-0.5019 0.41628-1.3036-0.06615-1.4887-0.21828-0.08376-0.39688-0.37768-0.39688-0.65315 0-0.32364-0.18631-0.50086-0.52653-0.50086-0.3928 0-0.72881 0.44611-1.3229 1.7564-0.43801 0.96601-0.8006 2.0078-0.80576 2.3151-0.0052 0.3073-0.17953 0.85637-0.3875 1.2202s-0.38234 0.94324-0.3875 1.2876c-0.0073 0.48969 0.10165 0.59714 0.5 0.49297 0.35733-0.09345 0.46734-0.0237 0.36857 0.23372-0.1036 0.26997-0.69267 0.36693-2.2292 0.36693h-2.0884v-16.404l5.4901-0.02841c5.3119-0.02749 19.056-0.02247 32.279 0.01179l6.4161 0.01662v21.96h-10.675c-5.8712 0-11.795 0.0626-13.163 0.139-1.9189 0.10719-2.3367 0.0736-1.8266-0.14686zm21.199-2.229c0.81818 0.026 1.6043 0.11934 1.747 0.2075 0.14265 0.0882 0.47305 4e-3 0.73423-0.18694 0.3433-0.25103 0.42706-0.5377 0.30233-1.0347-0.15747-0.62739-0.28804-0.68657-1.4943-0.67722-1.4047 0.0109-1.8209 0.2839-1.3315 0.87352 0.17764 0.21404 0.19948 0.42398 0.05348 0.51421-0.1357 0.0839-0.39405-0.20319-0.57411-0.6379-0.38377-0.9265-0.6649-0.99376-1.0609-0.25381-0.15794 0.29511-0.4011 0.46616-0.54034 0.3801-0.13925-0.0861-0.32434 0.029-0.41132 0.25565-0.18441 0.48056-0.63186 0.29509-0.63186-0.2619 0-0.2097 0.24515-0.38126 0.54478-0.38126s0.47733-0.10914 0.39488-0.24254c-0.21826-0.35314-2.6206-0.29742-2.8519 0.0661-0.14542 0.22858-0.19743 0.22286-0.20043-0.022-0.0023-0.19019-0.34135-0.33073-0.7978-0.33073-0.73075 0-0.79375 0.0735-0.79375 0.92604 0 0.50932 0.06736 0.92604 0.14968 0.92604 0.27582 0 1.3031-0.60515 1.5269-0.8995 0.13023-0.17125 0.16665-0.0421 0.08846 0.31359-0.12226 0.55618-0.05035 0.59984 0.89588 0.54401 0.56585-0.0334 1.1006 0.011 1.1882 0.0987 0.08768 0.0877 0.47787 0.0731 0.8671-0.0324 0.38923-0.10549 1.3771-0.17056 2.1953-0.14459zm-4.5303-0.409c0-0.14552 0.17859-0.26459 0.39688-0.26459 0.21828 0 0.39688 0.11907 0.39688 0.26459s-0.17859 0.26458-0.39688 0.26458c-0.21828 0-0.39688-0.11906-0.39688-0.26458zm6.2546 0.081c-0.31622-0.31622-0.17084-0.87475 0.22768-0.87475 0.21828 0 0.39688 0.17156 0.39688 0.38126 0 0.44202-0.37763 0.74041-0.62455 0.49349zm-8.1067-0.61017c0-0.14552 0.11906-0.26458 0.26458-0.26458 0.14552 0 0.26458 0.11906 0.26458 0.26458s-0.11906 0.26458-0.26458 0.26458c-0.14552 0-0.26458-0.11906-0.26458-0.26458zm7.0228 0.0183c-0.08373-0.13546-0.03122-0.32108 0.11668-0.41249 0.14789-0.0914 0.2689 0.0194 0.2689 0.2463 0 0.46475-0.15877 0.53318-0.38558 0.16619zm-5.1707-0.12226c0-0.0572 0.17859-0.17252 0.39688-0.25628 0.21828-0.0838 0.39688-0.037 0.39688 0.10398 0 0.14095-0.17859 0.25628-0.39688 0.25628-0.21828 0-0.39688-0.0468-0.39688-0.10398zm-8.2021 0.23627c0-1.0824-0.4551-1.2548-0.57774-0.21884-0.12194 1.0301-0.74518 1.1209-0.74518 0.1086 0-0.44869-0.11906-0.8158-0.26458-0.8158s-0.26458 0.41672-0.26458 0.92604c0 0.88195 0.0441 0.92604 0.92604 0.92604 0.88194 0 0.92604-0.0441 0.92604-0.92604zm0.8018 0.46302c0.0075-0.43472 0.02487-0.43409 0.28346 0.0102 0.23154 0.39786 0.58147 0.4615 2.1966 0.39948l1.9212-0.0738-0.26471-0.8625c-0.33074-1.0776-0.83283-1.1065-1.1946-0.0687-0.15219 0.43656-0.46149 0.79375-0.68734 0.79375-0.56831 0-0.51947-0.52195 0.05238-0.55986 0.44097-0.0292 0.44097-0.0364 0-0.15169-0.25466-0.0666-0.46302-0.23836-0.46302-0.3818s0.11084-0.1923 0.2463-0.10857c0.13547 0.0837 0.32109 0.0312 0.41249-0.11668 0.10068-0.16291-0.205-0.2689-0.77547-0.2689-0.79603 0-0.9438 0.0921-0.95554 0.59531l-0.01389 0.59531-0.41527-0.59531c-0.59071-0.84684-0.87988-0.73815-0.87988 0.33073 0 0.50932 0.11906 0.92604 0.26458 0.92604s0.2682-0.20836 0.27263-0.46302zm-11.148 1.1821c-0.7073-0.47506-0.91639-0.81121-0.98047-1.5763-0.14566-1.7391 0.2237-2.0532 2.4143-2.0532 1.8815 0 1.9184 0.013 1.9752 0.69884 0.07931 0.95835-0.39913 2.6305-0.89436 3.1257-0.57693 0.57693-1.4682 0.5078-2.5147-0.19504zm1.2328-4.5339c0.80694-0.59005 0.21139-0.82605-0.83062-0.32915-0.53586 0.25554-0.85878 0.31557-0.74991 0.13942 0.14051-0.22736-0.11765-0.2638-0.9738-0.13748-1.0996 0.16223-1.0536 0.12189 0.81896-0.71849 1.887-0.84687 2.0005-0.86677 2.3223-0.40726 0.18611 0.26571 0.51372 0.41583 0.72802 0.3336 0.2143-0.08223 0.39126-0.04748 0.39325 0.07723 2e-3 0.12471 0.0754 0.49464 0.16315 0.82206 0.14925 0.55693 0.07753 0.59531-1.1125 0.59531-1.163 0-1.228-0.0322-0.75888-0.37524zm6.6231-0.28622c0.15665-0.62414-0.0476-0.80868-0.76258-0.68901-0.11537 0.01931-0.08142-0.20472 0.07546-0.49783 0.36716-0.68604 0.79577-0.68502 0.79577 0.0019 0 0.31374 0.27344 0.65943 0.66146 0.83622 0.92686 0.42231 0.84694 1.0102-0.13733 1.0102-0.71992 0-0.7824-0.0653-0.63278-0.66146zm13.853-1.0436c0.75475-0.8034 0.92291-0.85692 0.55962-0.17811-0.1466 0.27392-0.47541 0.57819-0.73069 0.67615-0.34591 0.13274-0.30234 0.0059 0.17106-0.49804zm-1.3091-0.63393c0-0.68595 0.66448-1.5238 0.90273-1.1383 0.2595 0.41988-0.0441 1.2791-0.51593 1.4602-0.24994 0.09591-0.3868-0.01797-0.3868-0.32186zm-14.552-0.45654c0-0.88727 0.44786-1.7024 0.93535-1.7024 0.46519 0 0.47909 0.12836 0.0922 0.85126-0.25035 0.46779-0.22926 0.52652 0.13841 0.38544 0.36606-0.14047 0.38835-0.08157 0.14278 0.37728-0.17225 0.32185-0.45028 0.48261-0.68132 0.39395-0.21946-0.08421-0.31956-0.03529-0.22868 0.11177 0.08891 0.14385 0.03556 0.26155-0.11855 0.26155s-0.2802-0.30548-0.2802-0.67885zm13.498-0.92188c-0.0054-0.5484 0.5208-1.0451 1.1072-1.0451 0.67252 0 0.59237 0.45727-0.11906 0.67929-0.32742 0.10218-0.68279 0.31856-0.7897 0.48085-0.12635 0.19179-0.1958 0.15152-0.19844-0.11504zm-24.213-0.51594c-0.24429-0.39527 0.09561-0.79375 0.67707-0.79375 0.28874 0 0.51355 0.18057 0.51355 0.41249 0 0.22687-0.11906 0.3389-0.26458 0.24897-0.14552-0.08994-0.26458-0.03743-0.26458 0.11668 0 0.35486-0.44529 0.36538-0.66146 0.01561zm7.0611-0.28112c0.06367-0.191 0.27202-0.39936 0.46302-0.46302 0.19844-0.06615 0.29766 0.03307 0.23151 0.23151-0.06367 0.191-0.27202 0.39936-0.46302 0.46302-0.19844 0.06615-0.29766-0.03307-0.23151-0.23151zm12.916-0.84336c-0.0016-0.25517 0.77402-0.22391 1.454 0.0586 0.40106 0.16663 0.28926 0.21016-0.46184 0.17984-0.54505-0.02201-0.99153-0.1293-0.99219-0.23844zm-4.2345-2.5243c0-0.12528 0.29007-0.50028 0.64461-0.83335 0.63964-0.60091 0.64346-0.6012 0.49612-0.03774-0.14582 0.55762-1.1407 1.3174-1.1407 0.87109z" fill="#f6f6f6"/><path d="m23.212 106.88v-0.66894l8.0699 0.0736c4.4385 0.0405 8.0699 8e-3 8.0698-0.0719-7.9e-5 -0.08-0.14851-0.29389-0.32986-0.47523-0.18134-0.18134 0.08655-0.12175 0.59531 0.13244 0.85014 0.42473 2.0121 0.45603 14.353 0.38665l13.428-0.0755v1.3678h-44.185zm20.518-1.5384c0.03322-0.45946 0.20325-1.1926 0.37785-1.6291 0.1746-0.43656 0.38211-1.1807 0.46114-1.6536 0.12766-0.76396 0.23948-0.85989 1.0023-0.85989h0.85858l-0.6264 1.7257c-0.69043 1.9021-1.2778 2.9239-1.7951 3.1223-0.23803 0.0913-0.32079-0.1184-0.27835-0.70538zm-4.6766-0.90153c-0.32911-0.41964-0.31975-0.429 0.09989-0.0999 0.25466 0.19972 0.46302 0.40808 0.46302 0.46302 0 0.21776-0.21727 0.0776-0.56292-0.36313zm10.548-0.52916c-0.05539-0.10915-0.01697-0.55563 0.08537-0.99219 0.18295-0.78041 0.1866-0.77707 0.21738 0.19844 0.02972 0.94209-0.08064 1.2314-0.30276 0.79375zm1.1696-0.33073c0-0.36381 0.06005-0.51263 0.13345-0.33073 0.0734 0.1819 0.0734 0.47955 0 0.66146-0.0734 0.1819-0.13345 0.0331-0.13345-0.33073zm1.3479-0.39688c0.0029-0.58208 0.05712-0.78905 0.12041-0.45994 0.06328 0.32912 0.06088 0.80537-0.0053 1.0583-0.06622 0.25296-0.118-0.0163-0.11507-0.5984zm3.9688 0c0.0029-0.58208 0.05712-0.78905 0.12041-0.45994 0.06328 0.32912 0.06088 0.80537-0.0053 1.0583-0.06622 0.25296-0.118-0.0163-0.11506-0.5984zm6.5479 0.82615c0-0.0549 0.20836-0.2633 0.46302-0.46302 0.41964-0.32911 0.429-0.31975 0.0999 0.0999-0.34564 0.44073-0.56292 0.58089-0.56292 0.36313zm0.96724-0.30894c0.0806-0.21003 0.25313-0.316 0.3834-0.23549 0.32811 0.20278 0.29791 0.2997-0.14654 0.47025-0.25575 0.0981-0.33461 0.02-0.23686-0.23476zm-24.993-0.51721c0.0054-0.43656 0.06469-0.58312 0.13177-0.32569 0.06708 0.25743 0.06267 0.61462-0.0098 0.79375-0.07248 0.17913-0.12736-0.0315-0.12197-0.46806zm22.173 0.41249c0-0.13693 0.1177-0.32171 0.26155-0.41062 0.14998-0.0927 0.19434 0.0135 0.10398 0.24897-0.17589 0.45837-0.36554 0.54224-0.36554 0.16165zm-3.913-0.70376c-0.18764-0.2036-0.22443-0.37019-0.08176-0.37019 0.27475 0 0.6725 0.5033 0.51556 0.65238-0.05095 0.0484-0.24616-0.0786-0.4338-0.28219zm1.2672-0.0963c0-0.15065 0.14883-0.28301 0.33073-0.29414 0.1819-0.0111 0.55-0.0617 0.81799-0.11244 0.268-0.0507 0.44659-0.0515 0.39688-2e-3 -0.04971 0.0497-0.20945 0.11205-0.35497 0.13853-0.14552 0.0265-0.47294 0.15965-0.7276 0.29594-0.30237 0.16182-0.46302 0.15277-0.46302-0.0261zm5.6614-0.31789c-0.06558-0.10611 0.13818-0.14336 0.4528-0.0828 0.78516 0.15121 0.95562 0.37282 0.24564 0.31934-0.31856-0.024-0.63285-0.13045-0.69843-0.23657zm-36.445-2.1965c-0.08197-0.21362-0.02189-0.46699 0.13352-0.56304 0.15541-0.09605 0.55858-0.79876 0.89594-1.5616 0.48668-1.1005 0.7675-1.4172 1.3595-1.5333 1.0856-0.2129 1.3515 0.20833 0.67476 1.069-0.31496 0.40058-0.83581 1.2343-1.1574 1.8528-0.60739 1.168-1.5943 1.5491-1.9063 0.73608zm6.6411 0.0663c-0.10012-0.26318 0.51586-0.33936 2.7442-0.33936 3.8095 0 3.9742 0.50354 0.19757 0.60394-2.1003 0.0558-2.8453-0.0112-2.9418-0.26458zm10.649 0.0575c0-0.14552 0.29491-0.26459 0.65536-0.26459 0.4083 0 0.81989-0.2511 1.0918-0.66608 0.354-0.54027 0.50889-0.60596 0.82002-0.34774 0.30015 0.2491 0.42873 0.24529 0.59118-0.01756 0.15848-0.25642 0.2469-0.23349 0.37368 0.0969 0.09134 0.23804 0.06108 0.36791-0.06725 0.2886-0.12833-0.07931-0.30783 0.15263-0.39888 0.51543-0.15128 0.60275-0.29061 0.65963-1.6157 0.65963-0.79759 0-1.4502-0.11906-1.4502-0.26458zm4.4979-0.12c0-0.20079-0.14883-0.41917-0.33073-0.48528-0.1819-0.06612 0.21509-0.06278 0.8822 0.0074 0.80598 0.08481 1.4836-0.01235 2.0197-0.28958 0.75036-0.38803 0.88209-0.38084 1.8831 0.10282 1.2935 0.62497 1.8732 0.64705 3.136 0.11944 0.85617-0.35773 1.0061-0.35773 1.4014 0 0.5328 0.48218 1.4179 0.51534 2.2043 0.08259 0.31786-0.1749 0.75325-0.34685 0.96754-0.38211 0.69104-0.11369 0.99504-0.85751 0.95818-2.3444-0.01982-0.79939 0.02601-1.4516 0.10183-1.4494 0.53546 0.01573 0.89007 0.6611 1.0017 1.8231 0.1211 1.2603 0.06807 1.4182-0.76373 2.2739l-0.89387 0.91956-6.2839-7e-3c-5.1628-5e-3 -6.2839-0.0717-6.2839-0.3716zm-7.3761-1.2765c-0.46854-0.46854-0.34674-0.98474 0.23234-0.98474 0.29104 0 0.52917 0.04979 0.52917 0.11065 0 0.06086 0.06637 0.28362 0.1475 0.49502 0.18607 0.48489-0.51206 0.77602-0.90901 0.37906zm19.679-0.19099c0.26339-0.29104 0.53842-0.52917 0.61118-0.52917s-0.08321 0.23812-0.3466 0.52917c-0.26339 0.29104-0.53842 0.52917-0.61118 0.52917s0.08321-0.23812 0.3466-0.52917zm-26.611-0.22773-0.60798-0.49231 0.94606-0.31223c0.52034-0.17173 1.3852-0.73873 1.922-1.26 0.68143-0.6618 1.0597-0.86398 1.2536-0.67004 0.51873 0.51873-0.02186 1.5875-1.1132 2.2009-0.58158 0.32686-1.0574 0.69144-1.0574 0.81016 0 0.37918-0.71524 0.23196-1.3431-0.27645zm4.3943 0.24152c-0.09823-0.15895-0.0059-0.20998 0.22186-0.1226 0.21459 0.08235 0.62828-0.08841 0.91933-0.37945 0.43833-0.43833 0.55487-0.4622 0.67888-0.13901 0.08234 0.21459 0.04219 0.3237-0.08924 0.24248-0.13142-0.08123-0.27889-0.04362-0.3277 0.08358-0.14251 0.37136-1.219 0.61302-1.4031 0.315zm20.141-0.49765c-0.24084-0.26612-0.43606-0.77214-0.43383-1.1245 0.0032-0.51072 0.05606-0.56015 0.26053-0.24375 0.14106 0.21828 0.2583 0.27415 0.26053 0.12415 0.0021-0.15 0.35358-0.40465 0.78078-0.5659 0.63098-0.23817 0.80475-0.22017 0.92604 0.09592 0.21219 0.55294 0.19059 0.61874-0.17864 0.54426-0.18038-0.03638-0.44312 0.32081-0.58388 0.79375-0.29511 0.99156-0.42999 1.0407-1.0315 0.37604zm-13.88-0.44216c0.0054-0.43656 0.06469-0.58312 0.13177-0.32569 0.06708 0.25743 0.06267 0.61462-0.0098 0.79375-0.07248 0.17913-0.12736-0.03149-0.12197-0.46806zm9.8452 0.06615-0.50403-0.59531 0.59531 0.50403c0.55945 0.47366 0.71576 0.6866 0.50403 0.6866-0.05021 0-0.3181-0.26789-0.59531-0.59531zm-5.6021 0.10964c-0.38138-0.24207-0.92434-1.9149-0.69547-2.1426 0.26423-0.26296 1.1633 1.0753 1.1633 1.7316 0 0.70657-0.0011 0.70741-0.46786 0.41106zm-5.4097-0.20416c-0.37348-0.65509-0.39579-1.6419-0.05317-2.3529 0.21037-0.43656 0.31844-0.56855 0.24015-0.2933-0.25307 0.88976 0.63628-0.06739 1.3244-1.4254 0.79594-1.5707 2.5968-4.2833 3.1466-4.7396 0.64949-0.53903 0.56507 0.25589-0.10337 0.97338-0.29104 0.3124-0.52917 0.66476-0.52917 0.78303s-0.53578 1.1303-1.1906 2.249c-1.3042 2.2279-1.4239 2.5625-0.7276 2.0338 0.25466-0.19338 0.08995 0.05993-0.36602 0.56292-0.45597 0.50299-1.004 1.2589-1.2178 1.6799-0.21382 0.42096-0.44937 0.65908-0.52344 0.52917zm11.892-1.0218c-0.69395-0.63879-1.1702-1.211-1.0583-1.2716 0.5885-0.31878 1.1403-0.42342 0.99528-0.18874-0.28196 0.45622 0.45617 0.28172 0.85222-0.20147 0.20874-0.25466 0.30413-0.31419 0.21199-0.13229-0.09867 0.1948 0.0021 0.33073 0.24496 0.33073 0.70931 0 0.45064 0.54339-0.39978 0.83985l-0.81227 0.28316 0.72948 0.76141c1.0797 1.127 0.67679 0.90481-0.76355-0.42104zm-9.3877 0.69977c-0.25955-0.1648-0.24681-0.3205 0.05921-0.72355 0.37222-0.49024 0.38762-0.48052 0.33915 0.21404-0.02793 0.40018-0.05457 0.72578-0.05921 0.72355-0.0046-0.0022-0.15726-0.09855-0.33915-0.21404zm-6.3953-0.46542c0.0127-0.30822 0.07539-0.37092 0.15985-0.15985 0.07643 0.191 0.06703 0.4192-0.02089 0.50712-0.08792 0.08792-0.15045-0.06835-0.13896-0.34726zm-8.2868-0.76678c-0.06838-0.3577-0.04431-0.60092 0.05349-0.54047 0.32539 0.2011 1.0757-1.3864 0.89236-1.888-0.16899-0.46221-0.14892-0.46134 0.39602 0.01713 0.31572 0.27722 0.57403 0.79781 0.57403 1.1569 0 0.58065 0.0512 0.61358 0.46302 0.29773 0.25466-0.19532 0.17438-0.0313-0.17841 0.36448-0.71338 0.80032-1.0773 0.97869-0.52345 0.25658 0.24037-0.31341 0.14398-0.28338-0.29833 0.09293-1.0658 0.90674-1.2457 0.93843-1.3787 0.24272zm3.5034 0.1338c0-0.16624 0.10889-0.23495 0.24198-0.15269 0.13309 0.08226 0.30276 0.02677 0.37703-0.12329 0.07428-0.15007 0.10677-0.12848 0.07221 0.04796-0.08219 0.41958-0.69122 0.62049-0.69122 0.22802zm6.813-0.22692c0.25466-0.26679 0.50975-0.44826 0.56687-0.40327 0.1563 0.12311-0.53085 0.88834-0.7977 0.88834-0.1277 0-0.02383-0.21828 0.23084-0.48507zm-12.963-0.46187c-0.07754-0.07754-0.01684-0.54545 0.13488-1.0398 0.23517-0.76626 0.34843-0.86 0.7678-0.63556 0.7157 0.38303 0.57329 1.7059-0.19045 1.7691-0.31419 0.026-0.6347-0.01616-0.71223-0.0937zm11.707 0.0533c0-0.05494 0.20836-0.2633 0.46302-0.46302 0.41964-0.32911 0.429-0.31975 0.09989 0.09989-0.34564 0.44073-0.56292 0.58089-0.56292 0.36313zm10.485-0.69386 0.17909-0.92604-0.62639 0.52917c-0.54943 0.46415-0.53814 0.42101 0.0919-0.35103 0.86986-1.0659 0.90051-1.3688 0.13855-1.3688-0.52402 0-0.5371-0.03179-0.13608-0.33073 0.24401-0.1819 0.49678-0.74745 0.56172-1.2568 0.06493-0.50932 0.21098-1.3428 0.32456-1.8521 0.11358-0.50932 0.19089-1.469 0.17181-2.1326-0.0269-0.93557 0.08175-1.2793 0.48374-1.5303 1.0712-0.66896 1.1277-0.14638 0.45919 4.2436-0.14836 0.97424-0.4387 1.9115-0.64518 2.0829-0.46232 0.3837-0.48236 1.1411-0.04856 1.8357 0.28197 0.45151 0.22657 0.62367-0.40328 1.2532l-0.73016 0.72977zm-14.488-0.19844c-0.32911-0.41964-0.31975-0.429 0.09989-0.09989 0.44073 0.34564 0.58089 0.56292 0.36313 0.56292-0.05494 0-0.2633-0.20836-0.46302-0.46302zm17.69 0.16561c0.17948-0.18082 0.39297-0.26212 0.47443-0.18065 0.08146 0.08146-0.06538 0.22941-0.32632 0.32877-0.37708 0.14359-0.40748 0.11319-0.14811-0.14811zm-11.885-0.41249c0.191-0.07643 0.4192-0.06703 0.50712 0.02089 0.08792 0.08792-0.06835 0.15045-0.34727 0.13896-0.30822-0.0127-0.37092-0.07539-0.15985-0.15985zm-12.121-0.87172c-0.21828-0.13783-0.41066-0.49894-0.42751-0.80246-0.03055-0.55034-0.02894-0.55026 0.58716 0.02853 0.33978 0.31921 0.5549 0.68214 0.47804 0.80651-0.16982 0.27478-0.14926 0.27583-0.63769-0.03259zm19.976-0.27046c-0.08994-0.14552-0.03743-0.26458 0.11668-0.26458 0.15411 0 0.2802 0.11906 0.2802 0.26458s-0.0525 0.26458-0.11668 0.26458c-0.06417 0-0.19026-0.11906-0.2802-0.26458zm-18.422-0.7276c-0.32911-0.41964-0.31975-0.429 0.0999-0.0999 0.44073 0.34564 0.58089 0.56292 0.36313 0.56292-0.05494 0-0.2633-0.20836-0.46302-0.46302zm17.232 0.09854c0-0.05494 0.20836-0.2633 0.46302-0.46302 0.41964-0.32911 0.429-0.31975 0.0999 0.0999-0.34564 0.44073-0.56292 0.58089-0.56292 0.36313zm-20.158-0.61001c0.191-0.07643 0.4192-0.06703 0.50712 0.02089 0.08792 0.08792-0.06835 0.15045-0.34727 0.13896-0.30822-0.01269-0.37092-0.07539-0.15985-0.15985zm-1.7313-0.2672c0.25743-0.06708 0.61462-0.06267 0.79375 0.0098 0.17913 0.07248-0.03149 0.12736-0.46806 0.12197-0.43656-0.0054-0.58312-0.06469-0.32569-0.13177zm18.599-0.42337c0.09936-0.26094 0.2473-0.40778 0.32876-0.32632 0.08146 0.08146 1.68e-4 0.29496-0.18065 0.47443-0.26131 0.25936-0.2917 0.22897-0.14811-0.14811zm4.6132-1.7589c0-0.13693 0.1177-0.32171 0.26155-0.41062 0.14998-0.09269 0.19434 0.01351 0.10398 0.24897-0.17589 0.45837-0.36554 0.54223-0.36554 0.16165zm0.58075-1.7354c0.0054-0.43656 0.06469-0.58312 0.13177-0.32569 0.06708 0.25743 0.06267 0.61462-0.0098 0.79375-0.07249 0.17913-0.12738-0.03149-0.12198-0.46806zm-2.036-1.1906c0.26339-0.29104 0.53842-0.52917 0.61118-0.52917s-0.08321 0.23812-0.3466 0.52917-0.53842 0.52917-0.61118 0.52917c-0.07276 0 0.08321-0.23812 0.3466-0.52917zm2.0214-1.5646c-0.26851-0.16595-0.24367-0.25304 0.111-0.38914 0.55072-0.21133 0.68215-0.12068 0.42597 0.29383-0.11053 0.17885-0.3368 0.21901-0.53696 0.0953zm1.1809-0.50792c-0.07495-0.12127 0.03185-0.22049 0.23733-0.22049s0.31228 0.09922 0.23733 0.22049c-0.07495 0.12127-0.18174 0.22049-0.23733 0.22049-0.05558 0-0.16238-0.09922-0.23733-0.22049zm-29.528-0.86519c0-0.13804 9.238-0.23724 22.093-0.23724 13.622 0 22.093 0.09542 22.093 0.24886 0 0.15353-8.4629 0.24441-22.093 0.23724-12.846-0.0068-22.093-0.11091-22.093-0.24886z" fill="#d3d3d4"/><path d="m40.481 106.04c0.25743-0.0671 0.61462-0.0627 0.79375 0.01 0.17913 0.0725-0.03149 0.12736-0.46806 0.12197-0.43656-5e-3 -0.58312-0.0647-0.32569-0.13177zm0.67296-0.52656c0.191-0.0764 0.4192-0.067 0.50712 0.0209 0.08792 0.0879-0.06835 0.15045-0.34727 0.13897-0.30822-0.0127-0.37092-0.0754-0.15985-0.15986zm1.7694-0.34842c0.26339-0.29105 0.53842-0.52917 0.61118-0.52917s-0.08321 0.23812-0.3466 0.52917c-0.26339 0.29104-0.53842 0.52916-0.61118 0.52916s0.08321-0.23812 0.3466-0.52916zm5.4907-1.9844c0.0029-0.58208 0.05712-0.78905 0.12041-0.45994 0.06329 0.32912 0.06088 0.80537-0.0053 1.0583-0.06622 0.25296-0.118-0.0163-0.11507-0.5984zm5.75 0.53408c0.21463-0.25862 0.20128-0.38623-0.05102-0.48746-0.20294-0.0814-0.22059-0.14562-0.04344-0.15802 0.16408-0.0115 0.43448 0.14316 0.60089 0.34367 0.23811 0.2869 0.18542 0.39519-0.24731 0.50835-0.43371 0.11342-0.48844 0.0698-0.25911-0.20654zm4.7666 0.24797c0-0.0307 0.15875-0.18755 0.35278-0.34858 0.26362-0.21878 0.35278-0.20468 0.35278 0.0558 0 0.19172-0.15875 0.34858-0.35278 0.34858-0.19403 0-0.35278-0.0251-0.35278-0.0558zm2.9126-0.11362c-0.3256-0.20585-0.33387-0.30932-0.04725-0.59127 0.28442-0.27978 0.33199-0.26978 0.26237 0.0551-0.04684 0.21859 0.07236 0.36422 0.26535 0.32418 0.19272-0.04 0.27499 0.0493 0.18282 0.19843-0.20072 0.32477-0.17192 0.32418-0.6633 0.0135zm3.581-0.51786c-0.08372-0.13546-0.03122-0.32108 0.11668-0.41249 0.14789-0.0914 0.2689 0.0194 0.2689 0.24631 0 0.46474-0.15877 0.53317-0.38558 0.16618zm-20.994-1.4735c0.0054-0.43656 0.06469-0.58312 0.13177-0.32569 0.06708 0.25743 0.06267 0.61462-0.0098 0.79375-0.07248 0.17913-0.12736-0.0315-0.12197-0.46806zm-16.903-0.85942c2.1553-0.0445 5.6081-0.0444 7.6729 2.3e-4 2.0648 0.0447 0.30131 0.0811-3.9188 0.081-4.2201-1.2e-4 -5.9095-0.0366-3.7541-0.0812zm13.075 7e-3c0.4697-0.0585 1.3031-0.0594 1.8521-2e-3 0.54895 0.0573 0.16465 0.1051-0.85399 0.10628-1.0186 1e-3 -1.4678-0.0457-0.99809-0.10414zm9.0017-7e-3c2.5102-0.0435 6.6179-0.0435 9.1281 0 2.5102 0.0435 0.45641 0.0791-4.5641 0.0791s-7.0743-0.0356-4.5641-0.0791zm14.039 0.0173c0.191-0.0764 0.4192-0.067 0.50712 0.0209 0.08792 0.0879-0.06835 0.15046-0.34727 0.13897-0.30823-0.0127-0.37092-0.0754-0.15985-0.15985zm1.3229 0c0.19099-0.0764 0.4192-0.067 0.50712 0.0209 0.08792 0.0879-0.06835 0.15046-0.34727 0.13897-0.30823-0.0127-0.37092-0.0754-0.15985-0.15985zm-20.588-0.74538c0-0.21828 0.11533-0.39687 0.25628-0.39687 0.14095 0 0.18775 0.17859 0.10398 0.39687-0.08376 0.21829-0.19909 0.39688-0.25628 0.39688-0.05719 0-0.10398-0.17859-0.10398-0.39688zm-3.3073-0.39687c-0.08994-0.14552-0.03743-0.26458 0.11668-0.26458 0.15411 0 0.2802 0.11906 0.2802 0.26458s-0.0525 0.26458-0.11668 0.26458c-0.06417 0-0.19026-0.11906-0.2802-0.26458zm4.3877 0.18971c0.06063-0.0412 0.34837-0.24953 0.63941-0.46302 0.48948-0.35904 0.50193-0.35343 0.16604 0.07487-0.19972 0.25466-0.48745 0.46302-0.63941 0.46302s-0.22668-0.0337-0.16604-0.0749zm12.668-0.33404c-0.18665-0.2249-0.51573-0.34124-0.73128-0.25853-0.32957 0.12647-0.33651 0.08364-0.04363-0.26926 0.31109-0.37484 0.37249-0.37639 0.57502-0.01449 0.12471 0.22284 0.4313 0.5244 0.68133 0.67013 0.25003 0.14574 0.32034 0.26859 0.15626 0.27302-0.16408 4e-3 -0.45105-0.17597-0.6377-0.40088zm-8.5228-0.04239c0.32742-0.06306 0.8632-0.06306 1.1906 0s0.05953 0.11466-0.59531 0.11466c-0.65484 0-0.92273-0.0516-0.59531-0.11466zm2.6209-0.75127c0.0806-0.21004 0.25313-0.31601 0.3834-0.23549 0.32811 0.20278 0.29791 0.2997-0.14654 0.47025-0.25575 0.09814-0.33461 0.01998-0.23686-0.23476zm-19.182-0.38492c0-0.3638 0.06005-0.51263 0.13345-0.33073 0.0734 0.1819 0.0734 0.47956 0 0.66146s-0.13345 0.03307-0.13345-0.33073zm1.512 0.06614c-0.33589-0.4283-0.32344-0.43391 0.16604-0.07487 0.29104 0.21348 0.57878 0.42184 0.63941 0.46302 0.06063 0.04118-0.01409 0.07487-0.16604 0.07487-0.15196 0-0.43969-0.20836-0.63941-0.46302zm12.099-0.02332c-0.08411-0.1361 0.01375-0.38579 0.21747-0.55486 0.21905-0.1818 0.4329-0.2063 0.52334-0.05996 0.08411 0.1361-0.01375 0.38579-0.21747 0.55486-0.21905 0.1818-0.4329 0.2063-0.52334 0.05996zm-4.1275-0.24391c0-0.1591-0.20836-0.34373-0.46302-0.41028-0.41744-0.10909-0.41898-0.12402-0.01562-0.15169 0.47735-0.03275 0.90167 0.42822 0.63742 0.69247-0.08733 0.08733-0.15879 0.02861-0.15879-0.13049zm1.5875-0.2114c0-0.22687 0.121-0.3377 0.2689-0.2463 0.14789 0.0914 0.2004 0.27702 0.11668 0.41249-0.22681 0.36699-0.38558 0.29856-0.38558-0.16619zm6.5515 0.22536c0.32912-0.06329 0.80537-0.06088 1.0583 0.0053 0.25297 0.06622-0.01632 0.118-0.5984 0.11507-0.58208-0.0029-0.78905-0.05712-0.45994-0.12041zm3.4826-1.5988-0.64143-0.7276 0.7276 0.64143c0.68006 0.59952 0.84894 0.81378 0.64143 0.81378-0.04739 0-0.37481-0.32742-0.7276-0.7276zm-26.682 0.0441c0.0127-0.30822 0.07539-0.37092 0.15985-0.15985 0.07643 0.191 0.06703 0.4192-0.02089 0.50712-0.08792 0.08792-0.15045-0.06835-0.13896-0.34727zm21.431 0c0.01269-0.30822 0.07539-0.37092 0.15985-0.15985 0.07643 0.191 0.06703 0.4192-0.02089 0.50712-0.08792 0.08792-0.15045-0.06835-0.13896-0.34727zm-18.674-0.56349c-0.81032-0.19491-1.0594-0.5572-0.28073-0.40835 0.37699 0.07206 0.75023 0.23587 0.82943 0.36402 0.0792 0.12815 0.1072 0.21918 0.06224 0.2023-0.04497-0.01688-0.31989-0.08797-0.61093-0.15797zm-0.60574-2.8807c-0.18764-0.2036-0.22443-0.37019-0.08176-0.37019 0.27476 0 0.6725 0.50329 0.51556 0.65238-0.05095 0.0484-0.24616-0.07858-0.4338-0.28219zm1.498-0.30404c-0.32911-0.41964-0.31975-0.429 0.0999-0.09989 0.25466 0.19972 0.46302 0.40808 0.46302 0.46302 0 0.21776-0.21727 0.0776-0.56292-0.36313zm-2.6782-1.5643c0.1819-0.0734 0.47956-0.0734 0.66146 0s0.03307 0.13345-0.33073 0.13345c-0.3638 0-0.51263-0.06005-0.33073-0.13345z" fill="#a7a3ac"/><path d="m40.869 98.257c0.17948-0.18082 0.39297-0.26212 0.47443-0.18065 0.08146 0.08146-0.06538 0.22941-0.32632 0.32877-0.37708 0.14359-0.40747 0.11319-0.14811-0.14811zm9.0664-2.7815c0-0.08357 0.29766-0.50568 0.66146-0.93804 0.86275-1.0253 0.83424-1.2747-0.14576-1.2747h-0.80722l0.70998-0.93083c0.79909-1.0477 1.2411-2.7366 1.2797-4.89 0.02753-1.5366 0.39889-2.4801 1.0788-2.741 0.35007-0.13434 0.36308-0.07089 0.08859 0.43189-0.17697 0.32415-0.34075 1.2442-0.36395 2.0446-0.05957 2.055-0.47586 3.7756-1.1387 4.7065-0.72587 1.0194-0.71558 1.1144 0.1207 1.1144 0.52368 0 0.65064 0.10197 0.52726 0.42347-0.357 0.93034-2.0108 2.6195-2.0108 2.0538zm-6.0854-0.27763c0-0.36991 3.0191-5.5544 4.0217-6.9061 0.99643-1.3434 2.8996-2.9665 3.4785-2.9665 0.15236 0-0.21444 0.36141-0.81509 0.80314-1.1352 0.83487-3.1515 3.6756-5.1106 7.2005-0.99423 1.7888-1.5745 2.4776-1.5745 1.8689z" fill="#fba753"/><path d="m52.383 103.18c0.0029-0.58208 0.05712-0.78905 0.12041-0.45994 0.06329 0.32912 0.06088 0.80537-0.0053 1.0583-0.06622 0.25296-0.118-0.0163-0.11506-0.5984zm-3.7095-0.13229c0-0.50932 0.05445-0.71768 0.121-0.46302s0.06655 0.67138 0 0.92604-0.121 0.0463-0.121-0.46302zm11.58-0.54478c0-0.15411 0.11906-0.20662 0.26458-0.11668 0.14552 0.0899 0.26458 0.21603 0.26458 0.2802 0 0.0642-0.11906 0.11668-0.26458 0.11668s-0.26458-0.12609-0.26458-0.2802zm-16.912-0.40331c0.01269-0.30823 0.07539-0.37092 0.15985-0.15985 0.07643 0.19099 0.06703 0.4192-0.02089 0.50711-0.08792 0.0879-0.15045-0.0684-0.13896-0.34726zm-4.4979-0.79375c0.0127-0.30823 0.07539-0.37092 0.15985-0.15985 0.07643 0.19099 0.06703 0.4192-0.02089 0.50711-0.08792 0.0879-0.15045-0.0683-0.13896-0.34726zm-3.9185-1.3519c0.25743-0.06708 0.61462-0.06267 0.79375 0.0098 0.17913 0.07248-0.03149 0.12736-0.46806 0.12197-0.43656-5e-3 -0.58312-0.0647-0.32569-0.13177zm1.0583-0.79375c0.25743-0.06708 0.61462-0.06267 0.79375 0.0098 0.17913 0.07248-0.03149 0.12736-0.46806 0.12197-0.43656-0.0054-0.58312-0.06469-0.32569-0.13177zm24.9-0.18162c0.03338-0.2274 0.13457-0.48735 0.22488-0.57766 0.09031-0.09031 0.13689 0.02186 0.10351 0.24927-0.03338 0.2274-0.13457 0.48735-0.22488 0.57766-0.09031 0.09031-0.13689-0.02186-0.10351-0.24927zm-0.94375-0.08035c0.191-0.07643 0.4192-0.06703 0.50712 0.02089 0.08792 0.08792-0.06835 0.15045-0.34726 0.13896-0.30823-0.0127-0.37092-0.07539-0.15985-0.15985zm-4.4821-1.076c-0.32911-0.41964-0.31975-0.429 0.0999-0.09989 0.44073 0.34564 0.58089 0.56292 0.36312 0.56292-0.05494 0-0.2633-0.20836-0.46302-0.46302zm-14.635-0.04147c-0.08155-0.13195 0.09002-0.17759 0.38126-0.10143 0.6178 0.16156 0.69589 0.34134 0.14827 0.34134-0.20969 0-0.44798-0.10796-0.52953-0.23991zm15.579-0.61999-0.7771-0.8599 0.8599 0.77711c0.80154 0.72437 0.98151 0.94269 0.7771 0.94269-0.04553 0-0.43249-0.38695-0.8599-0.8599zm4.9532 0.33073c0-0.3638 0.06005-0.51263 0.13345-0.33073 0.0734 0.1819 0.0734 0.47956 0 0.66146-0.0734 0.1819-0.13345 0.03307-0.13345-0.33073zm-34.221-5.6139c0.1411-0.1411 0.47755-0.2097 0.74766-0.15244 0.36375 0.0771 0.29722 0.14364-0.25654 0.25654-0.48282 0.09844-0.65679 0.06156-0.49112-0.1041z" fill="#847795"/><path d="m61.048 103.86c0-0.13693 0.1177-0.32171 0.26155-0.41061 0.14998-0.0927 0.19434 0.0135 0.10398 0.24897-0.17589 0.45836-0.36554 0.54223-0.36554 0.16164zm-10.532-0.67707c0.0054-0.43656 0.06469-0.58312 0.13177-0.32569 0.06708 0.25743 0.06267 0.61462-0.0098 0.79375-0.07249 0.17913-0.12738-0.0315-0.12198-0.46806zm-12.318 0c-0.08376-0.21828-0.03697-0.39687 0.10398-0.39687s0.25628 0.17859 0.25628 0.39687-0.04679 0.39688-0.10398 0.39688c-0.05719 0-0.17252-0.1786-0.25628-0.39688zm16.5 0.0285c0-0.25112-0.11906-0.383-0.26458-0.29306-0.14552 0.0899-0.26458 0.0374-0.26458-0.11668 0-0.15411 0.1228-0.2802 0.27289-0.2802 0.33028 0 0.65236 0.75046 0.42126 0.98155-0.09074 0.0907-0.16498-0.0405-0.16498-0.29161zm7.0115-0.42535c-0.08994-0.14552-0.03743-0.26459 0.11668-0.26459 0.15411 0 0.2802 0.11907 0.2802 0.26459s-0.0525 0.26458-0.11668 0.26458c-0.06417 0-0.19026-0.11906-0.2802-0.26458zm-8.9132-0.44533c0.191-0.0764 0.4192-0.067 0.50712 0.0209 0.08792 0.0879-0.06835 0.15045-0.34727 0.13897-0.30823-0.0127-0.37092-0.0754-0.15985-0.15986zm3.7042 0c0.191-0.0764 0.4192-0.067 0.50712 0.0209 0.08792 0.0879-0.06835 0.15045-0.34727 0.13897-0.30823-0.0127-0.37092-0.0754-0.15985-0.15986zm1.571 6e-3c0.1819-0.0734 0.47956-0.0734 0.66146 0s0.03307 0.13346-0.33073 0.13346c-0.3638 0-0.51263-0.0601-0.33073-0.13346zm-13.824-3.5294c0.08994-0.14552 0.21603-0.26458 0.2802-0.26458 0.06417 0 0.11668 0.11906 0.11668 0.26458s-0.12609 0.26458-0.2802 0.26458-0.20661-0.11906-0.11668-0.26458zm13.12 0c8e-3 -0.21828 0.11687-0.635 0.24194-0.92604l0.22739-0.52917 0.01455 0.52917c8e-3 0.29104-0.10087 0.70776-0.24194 0.92604-0.22798 0.35278-0.25487 0.35278-0.24194 0zm-22.909-3.175c0.26339-0.29104 0.53842-0.52917 0.61118-0.52917 0.07276 0-0.08321 0.23812-0.3466 0.52917-0.26339 0.29104-0.53842 0.52917-0.61118 0.52917-0.07276 0 0.08321-0.23812 0.3466-0.52917zm11.509 0.16469c0-0.05494 0.20836-0.2633 0.46302-0.46302 0.41964-0.32911 0.429-0.31975 0.09989 0.09989-0.34564 0.44073-0.56292 0.58089-0.56292 0.36313zm1.2733-0.8746c0.191-0.07643 0.4192-0.06703 0.50712 0.02089 0.08792 0.08792-0.06835 0.15045-0.34726 0.13896-0.30822-0.0127-0.37092-0.07539-0.15985-0.15985z" fill="#736387"/><path d="m48.811 103.94c0.1819-0.0734 0.47956-0.0734 0.66146 0s0.03307 0.13346-0.33073 0.13346c-0.3638 0-0.51263-0.0601-0.33073-0.13346zm1.1859-0.61852c0-0.50932 0.05445-0.71768 0.121-0.46302 0.06655 0.25466 0.06655 0.67138 0 0.92604s-0.121 0.0463-0.121-0.46302zm1.7157 0.59532c-0.05842-0.10915-0.01778-0.4961 0.09031-0.8599 0.1837-0.61827 0.19825-0.60532 0.2229 0.19844 0.02545 0.82945-0.0913 1.076-0.31321 0.66146zm1.0837 0.0177c0.191-0.0764 0.4192-0.067 0.50712 0.0209 0.08792 0.0879-0.06835 0.15045-0.34727 0.13897-0.30823-0.0127-0.37092-0.0754-0.15985-0.15986zm3.5506-0.61301c0-0.50932 0.05445-0.71768 0.121-0.46302 0.06655 0.25466 0.06655 0.67138 0 0.92604s-0.121 0.0463-0.121-0.46302zm1.5302-0.0661c0.0021-0.47295 0.09152-0.72892 0.19844-0.56884 0.10691 0.16008 0.37298 0.35904 0.59126 0.44213 0.31612 0.12034 0.30266 0.15533-0.06615 0.17196-0.25466 0.0115-0.46302 0.13122-0.46302 0.26608 0 0.13485 0.20836 0.29963 0.46302 0.36618 0.34843 0.0911 0.31569 0.12859-0.13229 0.15169-0.5023 0.0259-0.59468-0.10366-0.59126-0.8292zm1.7176 0.59834c-0.09269-0.14998 0.01352-0.19434 0.24897-0.10398 0.45837 0.17589 0.54224 0.36553 0.16165 0.36553-0.13693 0-0.32171-0.1177-0.41062-0.26155zm4.7625 0c-0.09269-0.14998 0.01352-0.19434 0.24897-0.10398 0.45837 0.17589 0.54223 0.36553 0.16165 0.36553-0.13693 0-0.32171-0.1177-0.41062-0.26155zm-1.1364-0.54064c-0.47384-0.75875-0.38975-1.0016 0.10315-0.2979 0.23312 0.33283 0.37744 0.65156 0.32071 0.70829-0.05673 0.0567-0.24747-0.12794-0.42386-0.41039zm-5.9922-0.0691c0.09936-0.26094 0.2473-0.40779 0.32877-0.32632 0.08146 0.0815 1.69e-4 0.29495-0.18065 0.47443-0.26131 0.25936-0.2917 0.22897-0.14811-0.14811zm-4.4322-0.10319c0.191-0.0764 0.4192-0.067 0.50712 0.0209 0.08792 0.0879-0.06835 0.15045-0.34727 0.13897-0.30823-0.0127-0.37092-0.0754-0.15985-0.15986zm-8.6816-3.5234c0-0.29104 0.10792-0.52917 0.23981-0.52917 0.1319 0 0.17754 0.23812 0.10143 0.52917-0.07611 0.29104-0.18403 0.52916-0.23981 0.52916-0.05579 0-0.10143-0.23812-0.10143-0.52916zm11.914 0.13229c0-0.14552 0.11541-0.44318 0.25648-0.66146 0.14106-0.21828 0.25648-0.27781 0.25648-0.13229s-0.11541 0.44318-0.25648 0.66146-0.25648 0.27781-0.25648 0.13229zm-18.529-0.39694c-0.23847-0.15411-0.2711-0.2581-0.08176-0.26053 0.17331-0.0022 0.3887 0.11501 0.47864 0.26053 0.20302 0.32849 0.11142 0.32849-0.39688 0zm11.84 0.07786c0.32742-0.06306 0.8632-0.06306 1.1906 0s0.05953 0.11466-0.59531 0.11466c-0.65484 0-0.92274-0.0516-0.59531-0.11466zm-4.1254-1.4008c0-0.3638 0.06005-0.51263 0.13345-0.33073 0.0734 0.1819 0.0734 0.47956 0 0.66146s-0.13345 0.03307-0.13345-0.33073zm-8.5084-1.4228c0-0.05494 0.20836-0.2633 0.46302-0.46302 0.41964-0.32911 0.429-0.31975 0.0999 0.09989-0.34564 0.44073-0.56292 0.58089-0.56292 0.36313zm4.7625-0.82615c0.34177-0.3638 0.68094-0.66146 0.7537-0.66146 0.07276 0-0.14734 0.29766-0.48912 0.66146-0.34177 0.3638-0.68094 0.66146-0.7537 0.66146s0.14734-0.29766 0.48912-0.66146zm-10.583 0.28867c0-0.05038 0.17859-0.23981 0.39688-0.42097 0.22876-0.18985 0.39688-0.21557 0.39688-0.0607 0 0.14777-0.17859 0.3372-0.39688 0.42097-0.21828 0.08376-0.39688 0.11108-0.39688 0.0607zm1.873-1.8982c0.0127-0.30822 0.07539-0.37092 0.15985-0.15985 0.07643 0.191 0.06703 0.4192-0.02089 0.50712-0.08792 0.08792-0.15045-0.06835-0.13896-0.34727zm-7.8261-1.1686c0.26339-0.29104 0.53842-0.52917 0.61118-0.52917 0.07276 0-0.08321 0.23812-0.3466 0.52917-0.26339 0.29104-0.53842 0.52917-0.61118 0.52917-0.07276 0 0.08321-0.23812 0.3466-0.52917z" fill="#645773"/><path d="m39.484 105.55c-0.97234-0.49817-1.4555-1.104-1.4542-1.8234 8.2e-4 -0.44807 0.09221-0.39514 0.51501 0.29827 0.52405 0.85946 1.1715 1.3178 2.379 1.6842l0.67691 0.2054-0.66146 0.0211c-0.3638 0.0116-1.0186-0.16189-1.4552-0.38556zm3.5628-1.0414c0.31688-0.62077 0.53825-1.5693 0.53825-2.3064v-1.252l-9.9681-0.0109c-5.4825-6e-3 -10.027-0.0695-10.098-0.14103-0.07157-0.0716 4.365-0.13013 9.8591-0.13013h9.9892l-0.18627-1.1245c-0.28256-1.7057-0.5493-2.0599-1.4943-1.9841-0.45206 0.03625-0.86957-0.06793-0.92781-0.23151-0.12347-0.34683 1.076-1.8457 1.7775-2.2211 0.71934-0.38498 1.3858-0.03363 1.2079 0.63682-0.12854 0.48452-0.03923 1.2074 0.53446 4.3263l0.10898 0.59247 22.613 0.1438-22.553 0.1264-0.30054 1.5214c-0.17727 0.89734-0.57494 1.8469-0.96955 2.3151l-0.66901 0.79375zm-0.30842-7.862c0.43256-0.43256 0.40159-1.27-0.04698-1.27-0.52266 0-1.0445 0.71703-0.86405 1.1873 0.18516 0.48251 0.48411 0.50966 0.91103 0.08275zm-15.813 2.7805c0.0052-0.26325 0.17953-0.77629 0.3875-1.1401s0.38313-0.95911 0.38924-1.3229c0.0061-0.3638 0.24767-1.0186 0.5368-1.4552 0.28912-0.43656 0.52646-0.98753 0.52742-1.2244 0.0019-0.466 0.71871-1.1896 0.94968-0.95859 0.07777 0.07777-0.03931 0.5739-0.26018 1.1025-0.41396 0.99074-0.32978 1.7293 0.20045 1.7587 0.16633 0.0092 0.02872 0.1266-0.30581 0.26084-0.3693 0.14819-0.86972 0.81522-1.2739 1.698-0.71112 1.5533-1.1665 2.0601-1.1512 1.2812zm6.7507 0.09289c-0.39311-0.28745-0.44903-0.55025-0.29558-1.3891 0.10409-0.569 0.37738-1.3262 0.6073-1.6827l0.41805-0.64819 0.21531 0.58204c0.13128 0.35488 0.45098 0.59047 0.81915 0.60363 0.52791 0.01887 0.49826 0.06783-0.2358 0.38937-1.1689 0.51202-1.3374 0.90985-0.62835 1.484 0.66986 0.54242 2.2597 0.63966 3.7009 0.22635 0.49855-0.14298 0.79542-0.1557 0.65971-0.02825-0.31861 0.29921-2.7994 0.81738-3.9134 0.81738-0.47435 0-1.0806-0.15953-1.3473-0.35452zm11.143 0.17813c-0.29457-0.29457-0.17985-1.5034 0.20926-2.2049 0.36674-0.66116 0.36688-0.66104 0.32135 0.26458-0.04156 0.84505 0.0175 0.92518 0.67535 0.91613l0.72089-0.0099-0.56858 0.60522c-0.57252 0.60942-1.0325 0.75463-1.3583 0.42883zm8.8856-0.24283c-0.47294-0.20683-0.8599-0.49477-0.8599-0.63988 0-0.39798 0.34172-0.32663 1.892 0.39505 1.2523 0.58298 1.3239 0.65669 0.62158 0.63988-0.43656-0.01045-1.1807-0.18822-1.6536-0.39505zm4.583 0.0034c-0.25084-0.2508-0.41577-0.8734-0.41577-1.5694 0-0.99656 0.11563-1.236 0.84886-1.7581l0.84886-0.60444-0.45198 0.64529c-0.56496 0.8066-0.57446 1.5579-0.02952 2.3359 0.90427 1.291 2.8037 0.01489 2.396-1.6097-0.23151-0.9224-0.87711-1.5318-1.437-1.3564-0.37002 0.11592-0.35715 0.06279 0.06869-0.28347 0.6858-0.55764 1.2363-0.42897 1.6482 0.38527 0.56246 1.1117 0.41944 2.207-0.38633 2.9585-1.3893 1.2958-2.377 1.5696-3.09 0.85668zm-1.8309-0.25476c0.10226-0.26648-0.35508-0.90074-1.3312-1.8462-1.5296-1.4815-1.7973-2.0701-1.0685-2.3498 0.60289-0.23135 0.63982-0.21247 0.63982 0.32715 0 0.26826 0.59531 0.98972 1.3229 1.6032 1.3692 1.1546 1.742 2.1895 0.9044 2.5109-0.59901 0.22986-0.64127 0.20767-0.46743-0.24535zm-8.3263-0.52009c-0.16576-0.3638-0.39438-0.66146-0.50805-0.66146-0.11367 0-0.20552-0.37222-0.20411-0.82716 0.0036-1.1545-0.69481-1.5659-1.5033-0.88565-0.37051 0.31174-0.30509 0.17725 0.1663-0.34185 1.1858-1.3059 2.5302-1.0485 2.5302 0.48439 0 0.38783 0.24677 1.0189 0.54837 1.4023 0.45986 0.58462 0.7588 0.69714 1.8521 0.69714 1.2768 0 1.7162 0.31428 0.8852 0.63315-0.23018 0.08833-1.104 0.1606-1.9419 0.1606-1.3682 0-1.5541-0.06739-1.8248-0.66146zm-11.71-2.0471c0.48199-0.64354 0.16478-1.2601-0.64829-1.2601-0.38954 0-0.6148-0.1142-0.52186-0.26458 0.25447-0.41174 1.6163-0.31118 1.997 0.14745 0.28878 0.34796 0.22431 0.52282-0.41456 1.1245-0.41608 0.39185-0.6016 0.5056-0.41225 0.2528zm-4.5542-2.0204c0.11123-0.82925 0.02145-1.1248-0.4888-1.6093-0.34378-0.32638-0.86318-0.69313-1.1542-0.81499-0.51807-0.21692-0.5175-0.22192 0.02702-0.23834 0.3059-0.0092 0.96074 0.25495 1.4552 0.58705 0.7054 0.47378 0.91649 0.81196 0.98011 1.5702 0.06218 0.74102-0.03978 1.0311-0.43724 1.2438-0.48149 0.25769-0.50864 0.20521-0.38208-0.73843zm23.757 0.23106c-0.78998-0.20102-0.78904-0.20212 0.19844-0.23328 0.5457-0.01722 0.99219 0.08776 0.99219 0.23328 0 0.29151-0.04501 0.29151-1.1906 0zm-26.921-3.0856c0.1819-0.0734 0.47956-0.0734 0.66146 0s0.03307 0.13345-0.33073 0.13345c-0.3638 0-0.51263-0.06005-0.33073-0.13345z" fill="#50396c"/></g></svg>
